%FSAX24Y24*%
%MOIN*%
G70*
G01*
G75*
%ADD10C,0.0350*%
%ADD11C,0.0600*%
%ADD12C,0.0500*%
%ADD13C,0.1000*%
%ADD14C,0.0800*%
%ADD15R,0.0591X0.0591*%
%ADD16C,0.0591*%
%ADD17R,0.0630X0.0630*%
%ADD18C,0.0630*%
%ADD19O,0.0787X0.0551*%
%ADD20R,0.0787X0.0551*%
%ADD21R,0.0600X0.0600*%
%ADD22C,0.0600*%
G04:AMPARAMS|DCode=23|XSize=60mil|YSize=60mil|CornerRadius=7.5mil|HoleSize=0mil|Usage=FLASHONLY|Rotation=0.000|XOffset=0mil|YOffset=0mil|HoleType=Round|Shape=RoundedRectangle|*
%AMROUNDEDRECTD23*
21,1,0.0600,0.0450,0,0,0.0*
21,1,0.0450,0.0600,0,0,0.0*
1,1,0.0150,0.0225,-0.0225*
1,1,0.0150,-0.0225,-0.0225*
1,1,0.0150,-0.0225,0.0225*
1,1,0.0150,0.0225,0.0225*
%
%ADD23ROUNDEDRECTD23*%
%ADD24C,0.0906*%
%ADD25O,0.0394X0.0787*%
%ADD26R,0.0394X0.0787*%
%ADD27R,0.0591X0.0591*%
%ADD28C,0.0650*%
%ADD29C,0.0591*%
%ADD30R,0.0591X0.0591*%
%ADD31R,0.0591X0.0591*%
%ADD32C,0.2500*%
%ADD33C,0.0450*%
%ADD34C,0.0800*%
%ADD35C,0.0100*%
%ADD36C,0.0098*%
%ADD37C,0.0050*%
%ADD38C,0.0079*%
%ADD39C,0.0040*%
%ADD40C,0.0060*%
D35*
X090749Y055190D02*
G03*
X090749Y055190I-002000J000000D01*
G01*
X090429Y046320D02*
G03*
X090429Y046320I-002600J000000D01*
G01*
X091889Y039060D02*
G03*
X091889Y039060I-001500J000000D01*
G01*
X091899Y031920D02*
G03*
X091899Y031920I-002500J000000D01*
G01*
X078749Y046600D02*
G03*
X081049Y046600I001150J000000D01*
G01*
Y050900D02*
G03*
X078749Y050900I-001150J000000D01*
G01*
X078699Y053450D02*
G03*
X080999Y053450I001150J000000D01*
G01*
Y057750D02*
G03*
X078699Y057750I-001150J000000D01*
G01*
Y060300D02*
G03*
X080999Y060300I001150J000000D01*
G01*
Y064600D02*
G03*
X078699Y064600I-001150J000000D01*
G01*
X078729Y026050D02*
G03*
X081029Y026050I001150J000000D01*
G01*
Y030350D02*
G03*
X078729Y030350I-001150J000000D01*
G01*
Y032900D02*
G03*
X081029Y032900I001150J000000D01*
G01*
Y037200D02*
G03*
X078729Y037200I-001150J000000D01*
G01*
Y039750D02*
G03*
X081029Y039750I001150J000000D01*
G01*
Y044050D02*
G03*
X078729Y044050I-001150J000000D01*
G01*
X050320Y055330D02*
Y059880D01*
X047820Y055330D02*
X050320D01*
X047820D02*
Y059880D01*
X050320D01*
X047820Y060180D02*
Y064730D01*
X050320D01*
Y060180D02*
Y064730D01*
X047820Y060180D02*
X050320D01*
X042657Y049030D02*
X047207D01*
Y046530D02*
Y049030D01*
X042657Y046530D02*
X047207D01*
X042657D02*
Y049030D01*
Y042550D02*
X047207D01*
Y040050D02*
Y042550D01*
X042657Y040050D02*
X047207D01*
X042657D02*
Y042550D01*
X047820Y049030D02*
X052370D01*
Y046530D02*
Y049030D01*
X047820Y046530D02*
X052370D01*
X047820D02*
Y049030D01*
Y042550D02*
X052370D01*
Y040050D02*
Y042550D01*
X047820Y040050D02*
X052370D01*
X047820D02*
Y042550D01*
X037493Y040050D02*
X042043D01*
X037493D02*
Y042550D01*
X042043D01*
Y040050D02*
Y042550D01*
X032330Y040050D02*
X036880D01*
X032330D02*
Y042550D01*
X036880D01*
Y040050D02*
Y042550D01*
X037950Y057400D02*
Y061950D01*
X040450D01*
Y057400D02*
Y061950D01*
X037950Y057400D02*
X040450D01*
Y052550D02*
Y057100D01*
X037950Y052550D02*
X040450D01*
X037950D02*
Y057100D01*
X040450D01*
X087249Y061240D02*
X091799D01*
Y058740D02*
Y061240D01*
X087249Y058740D02*
X091799D01*
X087249D02*
Y061240D01*
X090249Y057470D02*
Y058470D01*
X090137D02*
X090249D01*
X087249Y057470D02*
Y058470D01*
Y057970D02*
X090199D01*
X088099D02*
X088949D01*
X087249Y057470D02*
X090249D01*
X087249Y058470D02*
X090137D01*
X087549Y054390D02*
X087949D01*
X087749Y054190D02*
Y054590D01*
X090909Y046890D02*
X091909D01*
X090909Y046778D02*
Y046890D01*
Y043890D02*
X091909D01*
X091409D02*
Y046840D01*
Y044740D02*
Y045590D01*
X091909Y043890D02*
Y046890D01*
X090909Y043890D02*
Y046778D01*
X088629Y047070D02*
X089029D01*
X088829Y046870D02*
Y047270D01*
X085319Y051710D02*
X089869D01*
Y049210D02*
Y051710D01*
X085319Y049210D02*
X089869D01*
X085319D02*
Y051710D01*
X090909Y047930D02*
X091909D01*
Y048042D01*
X090909Y050930D02*
X091909D01*
X091409Y047980D02*
Y050930D01*
Y049230D02*
Y050080D01*
X090909Y047930D02*
Y050930D01*
X091909Y048042D02*
Y050930D01*
Y036220D02*
Y037220D01*
X091797D02*
X091909D01*
X088909Y036220D02*
Y037220D01*
Y036720D02*
X091859D01*
X089759D02*
X090609D01*
X088909Y036220D02*
X091909D01*
X088909Y037220D02*
X091797D01*
X089614Y038110D02*
Y038510D01*
X089414Y038310D02*
X089814D01*
X090149Y030720D02*
Y031120D01*
X089949Y030920D02*
X090349D01*
X088919Y034880D02*
Y035880D01*
Y034880D02*
X089032D01*
X091919D02*
Y035880D01*
X088969Y035380D02*
X091919D01*
X090219D02*
X091069D01*
X088919Y035880D02*
X091919D01*
X089032Y034880D02*
X091919D01*
X075399Y046600D02*
Y050900D01*
X084399Y046600D02*
Y050900D01*
X075399D02*
X084399D01*
X075399Y046600D02*
X084399D01*
X075349Y053450D02*
Y057750D01*
X084349Y053450D02*
Y057750D01*
X075349D02*
X084349D01*
X075349Y053450D02*
X084349D01*
X075349Y060300D02*
Y064600D01*
X084349Y060300D02*
Y064600D01*
X075349D02*
X084349D01*
X075349Y060300D02*
X084349D01*
X075379Y026050D02*
Y030350D01*
X084379Y026050D02*
Y030350D01*
X075379D02*
X084379D01*
X075379Y026050D02*
X084379D01*
X075379Y032900D02*
Y037200D01*
X084379Y032900D02*
Y037200D01*
X075379D02*
X084379D01*
X075379Y032900D02*
X084379D01*
X075379Y039750D02*
Y044050D01*
X084379Y039750D02*
Y044050D01*
X075379D02*
X084379D01*
X075379Y039750D02*
X084379D01*
X031665Y030397D02*
X046232D01*
X031665Y024098D02*
Y030397D01*
Y024098D02*
X046232D01*
Y030397D01*
X047138Y024103D02*
X061705D01*
Y030402D01*
X047138D02*
X061705D01*
X047138Y024103D02*
Y030402D01*
X063212Y025652D02*
X073448D01*
X063212D02*
Y037148D01*
X073448D01*
Y025652D02*
Y037148D01*
X060500Y036300D02*
X059900D01*
Y036600D01*
X060000Y036700D01*
X060200D01*
X060300Y036600D01*
Y036300D01*
Y036500D02*
X060500Y036700D01*
X060000Y036900D02*
X059900Y037000D01*
Y037200D01*
X060000Y037300D01*
X060100D01*
X060200Y037200D01*
Y037100D01*
Y037200D01*
X060300Y037300D01*
X060400D01*
X060500Y037200D01*
Y037000D01*
X060400Y036900D01*
X060000Y037500D02*
X059900Y037600D01*
Y037800D01*
X060000Y037899D01*
X060400D01*
X060500Y037800D01*
Y037600D01*
X060400Y037500D01*
X060000D01*
X059900Y038099D02*
X060500D01*
Y038399D01*
X060400Y038499D01*
X060300D01*
X060200Y038399D01*
Y038099D01*
Y038399D01*
X060100Y038499D01*
X060000D01*
X059900Y038399D01*
Y038099D01*
X091630Y055120D02*
X091030D01*
Y055420D01*
X091130Y055520D01*
X091330D01*
X091430Y055420D01*
Y055120D01*
Y055320D02*
X091630Y055520D01*
X091130Y055720D02*
X091030Y055820D01*
Y056020D01*
X091130Y056120D01*
X091230D01*
X091330Y056020D01*
Y055920D01*
Y056020D01*
X091430Y056120D01*
X091530D01*
X091630Y056020D01*
Y055820D01*
X091530Y055720D01*
X091130Y056320D02*
X091030Y056420D01*
Y056620D01*
X091130Y056719D01*
X091230D01*
X091330Y056620D01*
X091430Y056719D01*
X091530D01*
X091630Y056620D01*
Y056420D01*
X091530Y056320D01*
X091430D01*
X091330Y056420D01*
X091230Y056320D01*
X091130D01*
X091330Y056420D02*
Y056620D01*
X089070Y026800D02*
Y027400D01*
X089370D01*
X089470Y027300D01*
Y027100D01*
X089370Y027000D01*
X089070D01*
X089270D02*
X089470Y026800D01*
X089670Y027300D02*
X089770Y027400D01*
X089970D01*
X090070Y027300D01*
Y027200D01*
X089970Y027100D01*
X089870D01*
X089970D01*
X090070Y027000D01*
Y026900D01*
X089970Y026800D01*
X089770D01*
X089670Y026900D01*
X090270Y027400D02*
X090669D01*
Y027300D01*
X090270Y026900D01*
Y026800D01*
X089260Y041070D02*
Y041670D01*
X089560D01*
X089660Y041570D01*
Y041370D01*
X089560Y041270D01*
X089260D01*
X089460D02*
X089660Y041070D01*
X089860Y041570D02*
X089960Y041670D01*
X090160D01*
X090260Y041570D01*
Y041470D01*
X090160Y041370D01*
X090060D01*
X090160D01*
X090260Y041270D01*
Y041170D01*
X090160Y041070D01*
X089960D01*
X089860Y041170D01*
X090859Y041670D02*
X090660Y041570D01*
X090460Y041370D01*
Y041170D01*
X090560Y041070D01*
X090760D01*
X090859Y041170D01*
Y041270D01*
X090760Y041370D01*
X090460D01*
X088400Y061950D02*
Y062550D01*
X088700D01*
X088800Y062450D01*
Y062250D01*
X088700Y062150D01*
X088400D01*
X088600D02*
X088800Y061950D01*
X089000Y062450D02*
X089100Y062550D01*
X089300D01*
X089400Y062450D01*
Y062350D01*
X089300Y062250D01*
X089200D01*
X089300D01*
X089400Y062150D01*
Y062050D01*
X089300Y061950D01*
X089100D01*
X089000Y062050D01*
X089999Y062550D02*
X089600D01*
Y062250D01*
X089800Y062350D01*
X089900D01*
X089999Y062250D01*
Y062050D01*
X089900Y061950D01*
X089700D01*
X089600Y062050D01*
X094320Y054990D02*
X093720D01*
Y054690D01*
X093820Y054590D01*
X094220D01*
X094320Y054690D01*
Y054990D01*
Y053990D02*
X094220Y054190D01*
X094020Y054390D01*
X093820D01*
X093720Y054290D01*
Y054090D01*
X093820Y053990D01*
X093920D01*
X094020Y054090D01*
Y054390D01*
X094830Y027190D02*
X094230D01*
Y026890D01*
X094330Y026790D01*
X094730D01*
X094830Y026890D01*
Y027190D01*
Y026190D02*
Y026590D01*
X094530D01*
X094630Y026390D01*
Y026290D01*
X094530Y026190D01*
X094330D01*
X094230Y026290D01*
Y026490D01*
X094330Y026590D01*
X094850Y042390D02*
X094250D01*
Y042090D01*
X094350Y041990D01*
X094750D01*
X094850Y042090D01*
Y042390D01*
X094250Y041490D02*
X094850D01*
X094550Y041790D01*
Y041390D01*
X085890Y063690D02*
X086490D01*
Y063990D01*
X086390Y064090D01*
X085990D01*
X085890Y063990D01*
Y063690D01*
X085990Y064290D02*
X085890Y064390D01*
Y064590D01*
X085990Y064690D01*
X086090D01*
X086190Y064590D01*
Y064490D01*
Y064590D01*
X086290Y064690D01*
X086390D01*
X086490Y064590D01*
Y064390D01*
X086390Y064290D01*
X069580Y023750D02*
X068980D01*
Y024050D01*
X069080Y024150D01*
X069280D01*
X069380Y024050D01*
Y023750D01*
X069580Y024750D02*
Y024350D01*
X069180Y024750D01*
X069080D01*
X068980Y024650D01*
Y024450D01*
X069080Y024350D01*
X063880Y023730D02*
X063280D01*
Y024030D01*
X063380Y024130D01*
X063580D01*
X063680Y024030D01*
Y023730D01*
X063880Y024330D02*
Y024530D01*
Y024430D01*
X063280D01*
X063380Y024330D01*
X033250Y062980D02*
X033750D01*
X033850Y063080D01*
Y063280D01*
X033750Y063380D01*
X033250D01*
X033850Y063980D02*
Y063580D01*
X033450Y063980D01*
X033350D01*
X033250Y063880D01*
Y063680D01*
X033350Y063580D01*
X063470Y026620D02*
Y026120D01*
X063570Y026020D01*
X063770D01*
X063870Y026120D01*
Y026620D01*
X064070D02*
X064470D01*
Y026520D01*
X064070Y026120D01*
Y026020D01*
X047560Y025080D02*
Y024580D01*
X047660Y024480D01*
X047860D01*
X047960Y024580D01*
Y025080D01*
X048560D02*
X048360Y024980D01*
X048160Y024780D01*
Y024580D01*
X048260Y024480D01*
X048460D01*
X048560Y024580D01*
Y024680D01*
X048460Y024780D01*
X048160D01*
X032320Y025150D02*
Y024650D01*
X032420Y024550D01*
X032620D01*
X032720Y024650D01*
Y025150D01*
X033220Y024550D02*
Y025150D01*
X032920Y024850D01*
X033320D01*
X061160Y054480D02*
Y054980D01*
X061060Y055080D01*
X060860D01*
X060760Y054980D01*
Y054480D01*
X060560Y055080D02*
X060360D01*
X060460D01*
Y054480D01*
X060560Y054580D01*
X062000Y036600D02*
X061400D01*
Y036900D01*
X061500Y037000D01*
X061700D01*
X061800Y036900D01*
Y036600D01*
Y036800D02*
X062000Y037000D01*
X061500Y037200D02*
X061400Y037300D01*
Y037500D01*
X061500Y037600D01*
X061600D01*
X061700Y037500D01*
Y037400D01*
Y037500D01*
X061800Y037600D01*
X061900D01*
X062000Y037500D01*
Y037300D01*
X061900Y037200D01*
X061500Y037800D02*
X061400Y037900D01*
Y038100D01*
X061500Y038199D01*
X061900D01*
X062000Y038100D01*
Y037900D01*
X061900Y037800D01*
X061500D01*
X050250Y030920D02*
Y031520D01*
X050550D01*
X050650Y031420D01*
Y031220D01*
X050550Y031120D01*
X050250D01*
X050450D02*
X050650Y030920D01*
X051250D02*
X050850D01*
X051250Y031320D01*
Y031420D01*
X051150Y031520D01*
X050950D01*
X050850Y031420D01*
X051450Y031520D02*
X051849D01*
Y031420D01*
X051450Y031020D01*
Y030920D01*
X050200Y032180D02*
Y032780D01*
X050500D01*
X050600Y032680D01*
Y032480D01*
X050500Y032380D01*
X050200D01*
X050400D02*
X050600Y032180D01*
X051200D02*
X050800D01*
X051200Y032580D01*
Y032680D01*
X051100Y032780D01*
X050900D01*
X050800Y032680D01*
X051799Y032780D02*
X051600Y032680D01*
X051400Y032480D01*
Y032280D01*
X051500Y032180D01*
X051700D01*
X051799Y032280D01*
Y032380D01*
X051700Y032480D01*
X051400D01*
X041900Y032180D02*
Y032780D01*
X042200D01*
X042300Y032680D01*
Y032480D01*
X042200Y032380D01*
X041900D01*
X042100D02*
X042300Y032180D01*
X042500D02*
X042700D01*
X042600D01*
Y032780D01*
X042500Y032680D01*
X043400Y032780D02*
X043200Y032680D01*
X043000Y032480D01*
Y032280D01*
X043100Y032180D01*
X043300D01*
X043400Y032280D01*
Y032380D01*
X043300Y032480D01*
X043000D01*
X041790Y031040D02*
Y031640D01*
X042090D01*
X042190Y031540D01*
Y031340D01*
X042090Y031240D01*
X041790D01*
X041990D02*
X042190Y031040D01*
X042390D02*
X042590D01*
X042490D01*
Y031640D01*
X042390Y031540D01*
X043290Y031640D02*
X042890D01*
Y031340D01*
X043090Y031440D01*
X043190D01*
X043290Y031340D01*
Y031140D01*
X043190Y031040D01*
X042990D01*
X042890Y031140D01*
X095280Y035040D02*
X094780D01*
X094680Y034940D01*
Y034740D01*
X094780Y034640D01*
X095280D01*
X094680Y034440D02*
Y034240D01*
Y034340D01*
X095280D01*
X095180Y034440D01*
Y033940D02*
X095280Y033840D01*
Y033640D01*
X095180Y033540D01*
X094780D01*
X094680Y033640D01*
Y033840D01*
X094780Y033940D01*
X095180D01*
X095410Y047150D02*
X094910D01*
X094810Y047050D01*
Y046850D01*
X094910Y046750D01*
X095410D01*
X094910Y046550D02*
X094810Y046450D01*
Y046250D01*
X094910Y046150D01*
X095310D01*
X095410Y046250D01*
Y046450D01*
X095310Y046550D01*
X095210D01*
X095110Y046450D01*
Y046150D01*
X095280Y058070D02*
X094780D01*
X094680Y057970D01*
Y057770D01*
X094780Y057670D01*
X095280D01*
X095180Y057470D02*
X095280Y057370D01*
Y057170D01*
X095180Y057070D01*
X095080D01*
X094980Y057170D01*
X094880Y057070D01*
X094780D01*
X094680Y057170D01*
Y057370D01*
X094780Y057470D01*
X094880D01*
X094980Y057370D01*
X095080Y057470D01*
X095180D01*
X094980Y057370D02*
Y057170D01*
X093570Y029780D02*
X092970D01*
Y030080D01*
X093070Y030180D01*
X093270D01*
X093370Y030080D01*
Y029780D01*
Y029980D02*
X093570Y030180D01*
X093070Y030380D02*
X092970Y030480D01*
Y030680D01*
X093070Y030780D01*
X093170D01*
X093270Y030680D01*
Y030580D01*
Y030680D01*
X093370Y030780D01*
X093470D01*
X093570Y030680D01*
Y030480D01*
X093470Y030380D01*
X093570Y031280D02*
X092970D01*
X093270Y030980D01*
Y031379D01*
X088200Y036540D02*
X087600D01*
Y036840D01*
X087700Y036940D01*
X087900D01*
X088000Y036840D01*
Y036540D01*
Y036740D02*
X088200Y036940D01*
X087700Y037140D02*
X087600Y037240D01*
Y037440D01*
X087700Y037540D01*
X087800D01*
X087900Y037440D01*
Y037340D01*
Y037440D01*
X088000Y037540D01*
X088100D01*
X088200Y037440D01*
Y037240D01*
X088100Y037140D01*
X087700Y037740D02*
X087600Y037840D01*
Y038040D01*
X087700Y038139D01*
X087800D01*
X087900Y038040D01*
Y037940D01*
Y038040D01*
X088000Y038139D01*
X088100D01*
X088200Y038040D01*
Y037840D01*
X088100Y037740D01*
X090570Y052140D02*
Y052740D01*
X090870D01*
X090970Y052640D01*
Y052440D01*
X090870Y052340D01*
X090570D01*
X090770D02*
X090970Y052140D01*
X091170Y052640D02*
X091270Y052740D01*
X091470D01*
X091570Y052640D01*
Y052540D01*
X091470Y052440D01*
X091370D01*
X091470D01*
X091570Y052340D01*
Y052240D01*
X091470Y052140D01*
X091270D01*
X091170Y052240D01*
X092169Y052140D02*
X091770D01*
X092169Y052540D01*
Y052640D01*
X092070Y052740D01*
X091870D01*
X091770Y052640D01*
X075653Y040668D02*
Y040068D01*
X076053D01*
X076653Y040668D02*
X076453Y040568D01*
X076253Y040368D01*
Y040168D01*
X076353Y040068D01*
X076553D01*
X076653Y040168D01*
Y040268D01*
X076553Y040368D01*
X076253D01*
X075680Y033870D02*
Y033270D01*
X076080D01*
X076680Y033870D02*
X076280D01*
Y033570D01*
X076480Y033670D01*
X076580D01*
X076680Y033570D01*
Y033370D01*
X076580Y033270D01*
X076380D01*
X076280Y033370D01*
X075610Y026910D02*
Y026310D01*
X076010D01*
X076510D02*
Y026910D01*
X076210Y026610D01*
X076610D01*
X075660Y061340D02*
Y060740D01*
X076060D01*
X076260Y061240D02*
X076360Y061340D01*
X076560D01*
X076660Y061240D01*
Y061140D01*
X076560Y061040D01*
X076460D01*
X076560D01*
X076660Y060940D01*
Y060840D01*
X076560Y060740D01*
X076360D01*
X076260Y060840D01*
X075610Y054360D02*
Y053760D01*
X076010D01*
X076610D02*
X076210D01*
X076610Y054160D01*
Y054260D01*
X076510Y054360D01*
X076310D01*
X076210Y054260D01*
X075760Y047490D02*
Y046890D01*
X076160D01*
X076360D02*
X076560D01*
X076460D01*
Y047490D01*
X076360Y047390D01*
X094780Y063600D02*
Y063800D01*
Y063700D01*
X094280D01*
X094180Y063800D01*
Y063900D01*
X094280Y064000D01*
X094680Y063400D02*
X094780Y063300D01*
Y063100D01*
X094680Y063000D01*
X094580D01*
X094480Y063100D01*
Y063200D01*
Y063100D01*
X094380Y063000D01*
X094280D01*
X094180Y063100D01*
Y063300D01*
X094280Y063400D01*
X089440Y028870D02*
Y028270D01*
X089740D01*
X089840Y028370D01*
Y028770D01*
X089740Y028870D01*
X089440D01*
X090440Y028270D02*
X090040D01*
X090440Y028670D01*
Y028770D01*
X090340Y028870D01*
X090140D01*
X090040Y028770D01*
X089560Y043340D02*
Y042740D01*
X089860D01*
X089960Y042840D01*
Y043240D01*
X089860Y043340D01*
X089560D01*
X090160Y042740D02*
X090360D01*
X090260D01*
Y043340D01*
X090160Y043240D01*
X091170Y034590D02*
X091070Y034690D01*
X090870D01*
X090770Y034590D01*
Y034190D01*
X090870Y034090D01*
X091070D01*
X091170Y034190D01*
X091770Y034090D02*
X091370D01*
X091770Y034490D01*
Y034590D01*
X091670Y034690D01*
X091470D01*
X091370Y034590D01*
X091970Y034090D02*
X092170D01*
X092070D01*
Y034690D01*
X091970Y034590D01*
X089090Y032170D02*
X088990Y032270D01*
X088790D01*
X088690Y032170D01*
Y031770D01*
X088790Y031670D01*
X088990D01*
X089090Y031770D01*
X089690Y031670D02*
X089290D01*
X089690Y032070D01*
Y032170D01*
X089590Y032270D01*
X089390D01*
X089290Y032170D01*
X089890D02*
X089990Y032270D01*
X090190D01*
X090289Y032170D01*
Y031770D01*
X090190Y031670D01*
X089990D01*
X089890Y031770D01*
Y032170D01*
X090220Y038800D02*
X090120Y038700D01*
Y038500D01*
X090220Y038400D01*
X090620D01*
X090720Y038500D01*
Y038700D01*
X090620Y038800D01*
X090720Y039000D02*
Y039200D01*
Y039100D01*
X090120D01*
X090220Y039000D01*
X090620Y039500D02*
X090720Y039600D01*
Y039800D01*
X090620Y039900D01*
X090220D01*
X090120Y039800D01*
Y039600D01*
X090220Y039500D01*
X090320D01*
X090420Y039600D01*
Y039900D01*
X092200Y038280D02*
X092100Y038380D01*
X091900D01*
X091800Y038280D01*
Y037880D01*
X091900Y037780D01*
X092100D01*
X092200Y037880D01*
X092400Y037780D02*
X092600D01*
X092500D01*
Y038380D01*
X092400Y038280D01*
X092900D02*
X093000Y038380D01*
X093200D01*
X093300Y038280D01*
Y038180D01*
X093200Y038080D01*
X093300Y037980D01*
Y037880D01*
X093200Y037780D01*
X093000D01*
X092900Y037880D01*
Y037980D01*
X093000Y038080D01*
X092900Y038180D01*
Y038280D01*
X093000Y038080D02*
X093200D01*
X091360Y051780D02*
X091260Y051880D01*
X091060D01*
X090960Y051780D01*
Y051380D01*
X091060Y051280D01*
X091260D01*
X091360Y051380D01*
X091560Y051280D02*
X091760D01*
X091660D01*
Y051880D01*
X091560Y051780D01*
X092060Y051880D02*
X092460D01*
Y051780D01*
X092060Y051380D01*
Y051280D01*
X087160Y050700D02*
X087060Y050800D01*
X086860D01*
X086760Y050700D01*
Y050300D01*
X086860Y050200D01*
X087060D01*
X087160Y050300D01*
X087360Y050200D02*
X087560D01*
X087460D01*
Y050800D01*
X087360Y050700D01*
X088260Y050800D02*
X088060Y050700D01*
X087860Y050500D01*
Y050300D01*
X087960Y050200D01*
X088160D01*
X088260Y050300D01*
Y050400D01*
X088160Y050500D01*
X087860D01*
X087470Y045160D02*
X087370Y045260D01*
X087170D01*
X087070Y045160D01*
Y044760D01*
X087170Y044660D01*
X087370D01*
X087470Y044760D01*
X087670Y044660D02*
X087870D01*
X087770D01*
Y045260D01*
X087670Y045160D01*
X088570Y045260D02*
X088170D01*
Y044960D01*
X088370Y045060D01*
X088470D01*
X088570Y044960D01*
Y044760D01*
X088470Y044660D01*
X088270D01*
X088170Y044760D01*
X092760Y045010D02*
X092860Y045110D01*
Y045310D01*
X092760Y045410D01*
X092360D01*
X092260Y045310D01*
Y045110D01*
X092360Y045010D01*
X092260Y044810D02*
Y044610D01*
Y044710D01*
X092860D01*
X092760Y044810D01*
X092260Y044010D02*
X092860D01*
X092560Y044310D01*
Y043910D01*
X088630Y054310D02*
X088530Y054410D01*
X088330D01*
X088230Y054310D01*
Y053910D01*
X088330Y053810D01*
X088530D01*
X088630Y053910D01*
X088830Y053810D02*
X089030D01*
X088930D01*
Y054410D01*
X088830Y054310D01*
X089330D02*
X089430Y054410D01*
X089630D01*
X089730Y054310D01*
Y054210D01*
X089630Y054110D01*
X089530D01*
X089630D01*
X089730Y054010D01*
Y053910D01*
X089630Y053810D01*
X089430D01*
X089330Y053910D01*
X086470Y057610D02*
X086370Y057510D01*
Y057310D01*
X086470Y057210D01*
X086870D01*
X086970Y057310D01*
Y057510D01*
X086870Y057610D01*
X086970Y057810D02*
Y058010D01*
Y057910D01*
X086370D01*
X086470Y057810D01*
X086970Y058710D02*
Y058310D01*
X086570Y058710D01*
X086470D01*
X086370Y058610D01*
Y058410D01*
X086470Y058310D01*
X089210Y060230D02*
X089110Y060330D01*
X088910D01*
X088810Y060230D01*
Y059830D01*
X088910Y059730D01*
X089110D01*
X089210Y059830D01*
X089410Y059730D02*
X089610D01*
X089510D01*
Y060330D01*
X089410Y060230D01*
X089910Y059730D02*
X090110D01*
X090010D01*
Y060330D01*
X089910Y060230D01*
X043810Y058870D02*
Y058370D01*
X043910Y058270D01*
X044110D01*
X044210Y058370D01*
Y058870D01*
X044410Y058770D02*
X044510Y058870D01*
X044710D01*
X044810Y058770D01*
Y058670D01*
X044710Y058570D01*
X044610D01*
X044710D01*
X044810Y058470D01*
Y058370D01*
X044710Y058270D01*
X044510D01*
X044410Y058370D01*
X038700Y055000D02*
X038600Y054900D01*
Y054700D01*
X038700Y054600D01*
X039100D01*
X039200Y054700D01*
Y054900D01*
X039100Y055000D01*
X039200Y055200D02*
Y055400D01*
Y055300D01*
X038600D01*
X038700Y055200D01*
X038960Y059660D02*
X038860Y059560D01*
Y059360D01*
X038960Y059260D01*
X039360D01*
X039460Y059360D01*
Y059560D01*
X039360Y059660D01*
X039460Y060260D02*
Y059860D01*
X039060Y060260D01*
X038960D01*
X038860Y060160D01*
Y059960D01*
X038960Y059860D01*
X037490Y054120D02*
X036890D01*
Y054420D01*
X036990Y054520D01*
X037190D01*
X037290Y054420D01*
Y054120D01*
Y054320D02*
X037490Y054520D01*
Y054720D02*
Y054920D01*
Y054820D01*
X036890D01*
X036990Y054720D01*
X038870Y064240D02*
Y064840D01*
X039170D01*
X039270Y064740D01*
Y064540D01*
X039170Y064440D01*
X038870D01*
X039070D02*
X039270Y064240D01*
X039870D02*
X039470D01*
X039870Y064640D01*
Y064740D01*
X039770Y064840D01*
X039570D01*
X039470Y064740D01*
X036160Y054070D02*
X035560D01*
Y054370D01*
X035660Y054470D01*
X035860D01*
X035960Y054370D01*
Y054070D01*
Y054270D02*
X036160Y054470D01*
X035660Y054670D02*
X035560Y054770D01*
Y054970D01*
X035660Y055070D01*
X035760D01*
X035860Y054970D01*
Y054870D01*
Y054970D01*
X035960Y055070D01*
X036060D01*
X036160Y054970D01*
Y054770D01*
X036060Y054670D01*
X041740Y056730D02*
X041140D01*
Y057030D01*
X041240Y057130D01*
X041440D01*
X041540Y057030D01*
Y056730D01*
Y056930D02*
X041740Y057130D01*
Y057630D02*
X041140D01*
X041440Y057330D01*
Y057730D01*
X037510Y059500D02*
X036910D01*
Y059800D01*
X037010Y059900D01*
X037210D01*
X037310Y059800D01*
Y059500D01*
Y059700D02*
X037510Y059900D01*
X036910Y060500D02*
Y060100D01*
X037210D01*
X037110Y060300D01*
Y060400D01*
X037210Y060500D01*
X037410D01*
X037510Y060400D01*
Y060200D01*
X037410Y060100D01*
X038890Y062910D02*
Y063510D01*
X039190D01*
X039290Y063410D01*
Y063210D01*
X039190Y063110D01*
X038890D01*
X039090D02*
X039290Y062910D01*
X039890Y063510D02*
X039690Y063410D01*
X039490Y063210D01*
Y063010D01*
X039590Y062910D01*
X039790D01*
X039890Y063010D01*
Y063110D01*
X039790Y063210D01*
X039490D01*
X036240Y059350D02*
X035640D01*
Y059650D01*
X035740Y059750D01*
X035940D01*
X036040Y059650D01*
Y059350D01*
Y059550D02*
X036240Y059750D01*
X035640Y059950D02*
Y060350D01*
X035740D01*
X036140Y059950D01*
X036240D01*
X034550Y041740D02*
X034450Y041840D01*
X034250D01*
X034150Y041740D01*
Y041340D01*
X034250Y041240D01*
X034450D01*
X034550Y041340D01*
X034750Y041740D02*
X034850Y041840D01*
X035050D01*
X035150Y041740D01*
Y041640D01*
X035050Y041540D01*
X034950D01*
X035050D01*
X035150Y041440D01*
Y041340D01*
X035050Y041240D01*
X034850D01*
X034750Y041340D01*
X039690Y041420D02*
X039590Y041520D01*
X039390D01*
X039290Y041420D01*
Y041020D01*
X039390Y040920D01*
X039590D01*
X039690Y041020D01*
X040290Y041520D02*
X039890D01*
Y041220D01*
X040090Y041320D01*
X040190D01*
X040290Y041220D01*
Y041020D01*
X040190Y040920D01*
X039990D01*
X039890Y041020D01*
X050000Y041460D02*
X049900Y041560D01*
X049700D01*
X049600Y041460D01*
Y041060D01*
X049700Y040960D01*
X049900D01*
X050000Y041060D01*
X050200Y041560D02*
X050600D01*
Y041460D01*
X050200Y041060D01*
Y040960D01*
X049770Y047800D02*
X049670Y047900D01*
X049470D01*
X049370Y047800D01*
Y047400D01*
X049470Y047300D01*
X049670D01*
X049770Y047400D01*
X049970Y047800D02*
X050070Y047900D01*
X050270D01*
X050370Y047800D01*
Y047700D01*
X050270Y047600D01*
X050370Y047500D01*
Y047400D01*
X050270Y047300D01*
X050070D01*
X049970Y047400D01*
Y047500D01*
X050070Y047600D01*
X049970Y047700D01*
Y047800D01*
X050070Y047600D02*
X050270D01*
X044850Y041550D02*
X044750Y041650D01*
X044550D01*
X044450Y041550D01*
Y041150D01*
X044550Y041050D01*
X044750D01*
X044850Y041150D01*
X045050D02*
X045150Y041050D01*
X045350D01*
X045450Y041150D01*
Y041550D01*
X045350Y041650D01*
X045150D01*
X045050Y041550D01*
Y041450D01*
X045150Y041350D01*
X045450D01*
X044540Y048090D02*
X044440Y048190D01*
X044240D01*
X044140Y048090D01*
Y047690D01*
X044240Y047590D01*
X044440D01*
X044540Y047690D01*
X044740Y047590D02*
X044940D01*
X044840D01*
Y048190D01*
X044740Y048090D01*
X045240D02*
X045340Y048190D01*
X045540D01*
X045640Y048090D01*
Y047690D01*
X045540Y047590D01*
X045340D01*
X045240Y047690D01*
Y048090D01*
X033880Y039060D02*
Y039660D01*
X034180D01*
X034280Y039560D01*
Y039360D01*
X034180Y039260D01*
X033880D01*
X034080D02*
X034280Y039060D01*
X034480Y039560D02*
X034580Y039660D01*
X034780D01*
X034880Y039560D01*
Y039460D01*
X034780Y039360D01*
X034880Y039260D01*
Y039160D01*
X034780Y039060D01*
X034580D01*
X034480Y039160D01*
Y039260D01*
X034580Y039360D01*
X034480Y039460D01*
Y039560D01*
X034580Y039360D02*
X034780D01*
X033810Y037780D02*
Y038380D01*
X034110D01*
X034210Y038280D01*
Y038080D01*
X034110Y037980D01*
X033810D01*
X034010D02*
X034210Y037780D01*
X034410D02*
X034610D01*
X034510D01*
Y038380D01*
X034410Y038280D01*
X034910Y037780D02*
X035110D01*
X035010D01*
Y038380D01*
X034910Y038280D01*
X038920Y037730D02*
Y038330D01*
X039220D01*
X039320Y038230D01*
Y038030D01*
X039220Y037930D01*
X038920D01*
X039120D02*
X039320Y037730D01*
X039520D02*
X039720D01*
X039620D01*
Y038330D01*
X039520Y038230D01*
X040320Y037730D02*
Y038330D01*
X040020Y038030D01*
X040420D01*
X038990Y039040D02*
Y039640D01*
X039290D01*
X039390Y039540D01*
Y039340D01*
X039290Y039240D01*
X038990D01*
X039190D02*
X039390Y039040D01*
X039590D02*
X039790D01*
X039690D01*
Y039640D01*
X039590Y039540D01*
X040090D02*
X040190Y039640D01*
X040390D01*
X040490Y039540D01*
Y039440D01*
X040390Y039340D01*
X040490Y039240D01*
Y039140D01*
X040390Y039040D01*
X040190D01*
X040090Y039140D01*
Y039240D01*
X040190Y039340D01*
X040090Y039440D01*
Y039540D01*
X040190Y039340D02*
X040390D01*
X049600Y039040D02*
Y039640D01*
X049900D01*
X050000Y039540D01*
Y039340D01*
X049900Y039240D01*
X049600D01*
X049800D02*
X050000Y039040D01*
X050600D02*
X050200D01*
X050600Y039440D01*
Y039540D01*
X050500Y039640D01*
X050300D01*
X050200Y039540D01*
X050800Y039040D02*
X051000D01*
X050900D01*
Y039640D01*
X050800Y039540D01*
X049670Y049500D02*
Y050100D01*
X049970D01*
X050070Y050000D01*
Y049800D01*
X049970Y049700D01*
X049670D01*
X049870D02*
X050070Y049500D01*
X050670D02*
X050270D01*
X050670Y049900D01*
Y050000D01*
X050570Y050100D01*
X050370D01*
X050270Y050000D01*
X051269Y049500D02*
X050870D01*
X051269Y049900D01*
Y050000D01*
X051170Y050100D01*
X050970D01*
X050870Y050000D01*
X049470Y037780D02*
Y038380D01*
X049770D01*
X049870Y038280D01*
Y038080D01*
X049770Y037980D01*
X049470D01*
X049670D02*
X049870Y037780D01*
X050470D02*
X050070D01*
X050470Y038180D01*
Y038280D01*
X050370Y038380D01*
X050170D01*
X050070Y038280D01*
X050670D02*
X050770Y038380D01*
X050970D01*
X051069Y038280D01*
Y038180D01*
X050970Y038080D01*
X050870D01*
X050970D01*
X051069Y037980D01*
Y037880D01*
X050970Y037780D01*
X050770D01*
X050670Y037880D01*
X049650Y050680D02*
Y051280D01*
X049950D01*
X050050Y051180D01*
Y050980D01*
X049950Y050880D01*
X049650D01*
X049850D02*
X050050Y050680D01*
X050650D02*
X050250D01*
X050650Y051080D01*
Y051180D01*
X050550Y051280D01*
X050350D01*
X050250Y051180D01*
X051150Y050680D02*
Y051280D01*
X050850Y050980D01*
X051249D01*
X044130Y037800D02*
Y038400D01*
X044430D01*
X044530Y038300D01*
Y038100D01*
X044430Y038000D01*
X044130D01*
X044330D02*
X044530Y037800D01*
X045130D02*
X044730D01*
X045130Y038200D01*
Y038300D01*
X045030Y038400D01*
X044830D01*
X044730Y038300D01*
X045729Y038400D02*
X045330D01*
Y038100D01*
X045530Y038200D01*
X045630D01*
X045729Y038100D01*
Y037900D01*
X045630Y037800D01*
X045430D01*
X045330Y037900D01*
X044220Y039060D02*
Y039660D01*
X044520D01*
X044620Y039560D01*
Y039360D01*
X044520Y039260D01*
X044220D01*
X044420D02*
X044620Y039060D01*
X045220D02*
X044820D01*
X045220Y039460D01*
Y039560D01*
X045120Y039660D01*
X044920D01*
X044820Y039560D01*
X045420D02*
X045520Y039660D01*
X045720D01*
X045819Y039560D01*
Y039460D01*
X045720Y039360D01*
X045819Y039260D01*
Y039160D01*
X045720Y039060D01*
X045520D01*
X045420Y039160D01*
Y039260D01*
X045520Y039360D01*
X045420Y039460D01*
Y039560D01*
X045520Y039360D02*
X045720D01*
X044200Y050700D02*
Y051300D01*
X044500D01*
X044600Y051200D01*
Y051000D01*
X044500Y050900D01*
X044200D01*
X044400D02*
X044600Y050700D01*
X045200D02*
X044800D01*
X045200Y051100D01*
Y051200D01*
X045100Y051300D01*
X044900D01*
X044800Y051200D01*
X045400Y050800D02*
X045500Y050700D01*
X045700D01*
X045799Y050800D01*
Y051200D01*
X045700Y051300D01*
X045500D01*
X045400Y051200D01*
Y051100D01*
X045500Y051000D01*
X045799D01*
X044270Y049370D02*
Y049970D01*
X044570D01*
X044670Y049870D01*
Y049670D01*
X044570Y049570D01*
X044270D01*
X044470D02*
X044670Y049370D01*
X044870Y049870D02*
X044970Y049970D01*
X045170D01*
X045270Y049870D01*
Y049770D01*
X045170Y049670D01*
X045070D01*
X045170D01*
X045270Y049570D01*
Y049470D01*
X045170Y049370D01*
X044970D01*
X044870Y049470D01*
X045470Y049370D02*
X045670D01*
X045570D01*
Y049970D01*
X045470Y049870D01*
X041740Y044820D02*
Y044320D01*
X041840Y044220D01*
X042040D01*
X042140Y044320D01*
Y044820D01*
X042740D02*
X042340D01*
Y044520D01*
X042540Y044620D01*
X042640D01*
X042740Y044520D01*
Y044320D01*
X042640Y044220D01*
X042440D01*
X042340Y044320D01*
X048950Y062710D02*
X048850Y062810D01*
X048650D01*
X048550Y062710D01*
Y062310D01*
X048650Y062210D01*
X048850D01*
X048950Y062310D01*
X049450Y062210D02*
Y062810D01*
X049150Y062510D01*
X049550D01*
X048850Y057710D02*
X048750Y057810D01*
X048550D01*
X048450Y057710D01*
Y057310D01*
X048550Y057210D01*
X048750D01*
X048850Y057310D01*
X049450Y057810D02*
X049250Y057710D01*
X049050Y057510D01*
Y057310D01*
X049150Y057210D01*
X049350D01*
X049450Y057310D01*
Y057410D01*
X049350Y057510D01*
X049050D01*
X051320Y062270D02*
X050720D01*
Y062570D01*
X050820Y062670D01*
X051020D01*
X051120Y062570D01*
Y062270D01*
Y062470D02*
X051320Y062670D01*
X051220Y062870D02*
X051320Y062970D01*
Y063170D01*
X051220Y063270D01*
X050820D01*
X050720Y063170D01*
Y062970D01*
X050820Y062870D01*
X050920D01*
X051020Y062970D01*
Y063270D01*
X044270Y052440D02*
Y053040D01*
X044570D01*
X044670Y052940D01*
Y052740D01*
X044570Y052640D01*
X044270D01*
X044470D02*
X044670Y052440D01*
X044870D02*
X045070D01*
X044970D01*
Y053040D01*
X044870Y052940D01*
X045370D02*
X045470Y053040D01*
X045670D01*
X045770Y052940D01*
Y052540D01*
X045670Y052440D01*
X045470D01*
X045370Y052540D01*
Y052940D01*
X052630Y062020D02*
X052030D01*
Y062320D01*
X052130Y062420D01*
X052330D01*
X052430Y062320D01*
Y062020D01*
Y062220D02*
X052630Y062420D01*
Y062620D02*
Y062820D01*
Y062720D01*
X052030D01*
X052130Y062620D01*
X052630Y063520D02*
Y063120D01*
X052230Y063520D01*
X052130D01*
X052030Y063420D01*
Y063220D01*
X052130Y063120D01*
X046910Y058970D02*
X046310D01*
Y059270D01*
X046410Y059370D01*
X046610D01*
X046710Y059270D01*
Y058970D01*
Y059170D02*
X046910Y059370D01*
Y059570D02*
Y059770D01*
Y059670D01*
X046310D01*
X046410Y059570D01*
Y060070D02*
X046310Y060170D01*
Y060370D01*
X046410Y060470D01*
X046510D01*
X046610Y060370D01*
Y060270D01*
Y060370D01*
X046710Y060470D01*
X046810D01*
X046910Y060370D01*
Y060170D01*
X046810Y060070D01*
X053570Y059050D02*
Y059650D01*
X053870D01*
X053970Y059550D01*
Y059350D01*
X053870Y059250D01*
X053570D01*
X053770D02*
X053970Y059050D01*
X054170D02*
X054370D01*
X054270D01*
Y059650D01*
X054170Y059550D01*
X054670Y059650D02*
X055070D01*
Y059550D01*
X054670Y059150D01*
Y059050D01*
X048290Y053780D02*
Y054380D01*
X048590D01*
X048690Y054280D01*
Y054080D01*
X048590Y053980D01*
X048290D01*
X048490D02*
X048690Y053780D01*
X048890D02*
X049090D01*
X048990D01*
Y054380D01*
X048890Y054280D01*
X049390Y053880D02*
X049490Y053780D01*
X049690D01*
X049790Y053880D01*
Y054280D01*
X049690Y054380D01*
X049490D01*
X049390Y054280D01*
Y054180D01*
X049490Y054080D01*
X049790D01*
X051400Y056570D02*
X050800D01*
Y056870D01*
X050900Y056970D01*
X051100D01*
X051200Y056870D01*
Y056570D01*
Y056770D02*
X051400Y056970D01*
Y057570D02*
Y057170D01*
X051000Y057570D01*
X050900D01*
X050800Y057470D01*
Y057270D01*
X050900Y057170D01*
Y057770D02*
X050800Y057870D01*
Y058070D01*
X050900Y058169D01*
X051300D01*
X051400Y058070D01*
Y057870D01*
X051300Y057770D01*
X050900D01*
X033636Y026620D02*
X033237D01*
X033436Y026420D02*
Y026820D01*
X042652Y026620D02*
X042252D01*
X044660Y026920D02*
Y026320D01*
X044460Y026520D01*
X044260Y026320D01*
Y026920D01*
X059734Y027880D02*
X060133D01*
X059934Y028080D02*
Y027680D01*
X050718Y027880D02*
X051118D01*
X048710Y027580D02*
Y028180D01*
X048910Y027980D01*
X049110Y028180D01*
Y027580D01*
X071530Y034300D02*
X071130D01*
X068530D02*
X068130D01*
X068330Y034100D02*
Y034500D01*
X065530Y034600D02*
Y034000D01*
X065330Y034200D01*
X065130Y034000D01*
Y034600D01*
X071980Y028500D02*
X071580D01*
X071780Y028300D02*
Y028700D01*
X071380Y028200D02*
Y028800D01*
Y028500D01*
X070980D01*
Y028200D01*
Y028800D01*
X070780Y028200D02*
X070381D01*
X070580D01*
Y028800D01*
X065980Y028500D02*
X065580D01*
X065380Y028200D02*
Y028800D01*
Y028500D01*
X064980D01*
Y028200D01*
Y028800D01*
X064780Y028200D02*
X064381D01*
X064580D01*
Y028800D01*
D36*
X092876Y060840D02*
G03*
X092876Y060840I-000049J000000D01*
G01*
X092798Y049561D02*
G03*
X092798Y049561I-000049J000000D01*
G01*
Y037211D02*
G03*
X092798Y037211I-000049J000000D01*
G01*
X034107Y062667D02*
G03*
X034107Y062667I-000049J000000D01*
G01*
D37*
X060583Y056612D02*
G03*
X060977Y056612I000197J000000D01*
G01*
X059796Y056612D02*
X060583D01*
X060977D02*
X061764D01*
Y053068D02*
Y056612D01*
X059796Y053068D02*
X061764D01*
X059796D02*
Y056612D01*
D38*
X036007Y062620D02*
G03*
X034393Y062620I-000807J000630D01*
G01*
X038364Y044290D02*
G03*
X038364Y044790I000000J000250D01*
G01*
X043890Y062606D02*
G03*
X044390Y062606I000250J000000D01*
G01*
X092839Y062790D02*
X093839D01*
X092839D02*
Y064790D01*
X093839D01*
Y062790D02*
Y064790D01*
X094225Y056884D02*
Y061096D01*
X094422Y056884D02*
Y061096D01*
X092571Y056884D02*
Y061096D01*
X094422D01*
X092571Y056884D02*
X094422D01*
X092493Y045643D02*
X094422D01*
X092493Y049817D02*
X094422D01*
X092493Y045643D02*
Y049817D01*
X094422Y045643D02*
Y049817D01*
X094225Y045643D02*
Y049817D01*
X092493Y033293D02*
X094422D01*
X092493Y037467D02*
X094422D01*
X092493Y033293D02*
Y037467D01*
X094422Y033293D02*
Y037467D01*
X094225Y033293D02*
Y037467D01*
X034393Y062620D02*
X036007D01*
X064100Y023650D02*
X067100D01*
Y024650D01*
X064100D02*
X067100D01*
X064100Y023650D02*
Y024650D01*
X071870Y023650D02*
Y024650D01*
X069870Y023650D02*
X071870D01*
X069870D02*
Y024650D01*
X071870D01*
X038364Y045583D02*
X046316D01*
X038364Y043497D02*
X046316D01*
Y045583D01*
X038364Y044790D02*
Y045583D01*
Y043497D02*
Y044290D01*
X045183Y054654D02*
Y062606D01*
X043097Y054654D02*
Y062606D01*
Y054654D02*
X045183D01*
X044390Y062606D02*
X045183D01*
X043097D02*
X043890D01*
D39*
X087950Y064030D02*
G03*
X087950Y064030I-000591J000000D01*
G01*
X094000Y041860D02*
G03*
X094000Y041860I-000591J000000D01*
G01*
X093960Y026550D02*
G03*
X093960Y026550I-000591J000000D01*
G01*
X093450Y054440D02*
G03*
X093450Y054440I-000591J000000D01*
G01*
X086859Y064230D02*
X087359D01*
X086859Y063830D02*
X087359Y064230D01*
X087859D01*
X087359D02*
X087859Y063830D01*
X086859D02*
X087859D01*
X092909Y042060D02*
X093409D01*
X092909Y041660D02*
X093409Y042060D01*
X093909D01*
X093409D02*
X093909Y041660D01*
X092909D02*
X093909D01*
X093369Y026350D02*
X093869D01*
X093369D02*
X093869Y026750D01*
X092869Y026350D02*
X093369D01*
X092869Y026750D02*
X093369Y026350D01*
X092869Y026750D02*
X093869D01*
X092359Y054640D02*
X092859D01*
X092359Y054240D02*
X092859Y054640D01*
X093359D01*
X092859D02*
X093359Y054240D01*
X092359D02*
X093359D01*
D40*
X050660Y058590D02*
X051460D01*
Y056190D02*
Y058590D01*
X050660Y056190D02*
X051460D01*
X050660D02*
Y058590D01*
X051060D02*
Y058768D01*
Y056012D02*
Y056190D01*
X047860Y053650D02*
Y054450D01*
X050260D01*
Y053650D02*
Y054450D01*
X047860Y053650D02*
X050260D01*
X047682Y054050D02*
X047860D01*
X050260D02*
X050438D01*
X055470Y058950D02*
Y059750D01*
X053070Y058950D02*
X055470D01*
X053070D02*
Y059750D01*
X055470D01*
Y059350D02*
X055648D01*
X052892D02*
X053070D01*
X046220Y058430D02*
X047020D01*
X046220D02*
Y060830D01*
X047020D01*
Y058430D02*
Y060830D01*
X046620Y058252D02*
Y058430D01*
Y060830D02*
Y061008D01*
X051960Y063890D02*
X052760D01*
Y061490D02*
Y063890D01*
X051960Y061490D02*
X052760D01*
X051960D02*
Y063890D01*
X052360D02*
Y064068D01*
Y061312D02*
Y061490D01*
X043830Y052360D02*
Y053160D01*
X046230D01*
Y052360D02*
Y053160D01*
X043830Y052360D02*
X046230D01*
X043652Y052760D02*
X043830D01*
X046230D02*
X046408D01*
X050660Y061490D02*
X051460D01*
X050660D02*
Y063890D01*
X051460D01*
Y061490D02*
Y063890D01*
X051060Y061312D02*
Y061490D01*
Y063890D02*
Y064068D01*
X046203Y049730D02*
X046381D01*
X043625D02*
X043803D01*
Y049330D02*
X046203D01*
Y050130D01*
X043803D02*
X046203D01*
X043803Y049330D02*
Y050130D01*
X043625Y051030D02*
X043803D01*
X046203D02*
X046381D01*
X043803Y051430D02*
X046203D01*
X043803Y050630D02*
Y051430D01*
Y050630D02*
X046203D01*
Y051430D01*
Y039350D02*
X046381D01*
X043625D02*
X043803D01*
Y038950D02*
X046203D01*
Y039750D01*
X043803D02*
X046203D01*
X043803Y038950D02*
Y039750D01*
X043625Y038050D02*
X043803D01*
X046203D02*
X046381D01*
X043803Y038450D02*
X046203D01*
X043803Y037650D02*
Y038450D01*
Y037650D02*
X046203D01*
Y038450D01*
X048932Y051030D02*
X049110D01*
X051510D02*
X051688D01*
X049110Y051430D02*
X051510D01*
X049110Y050630D02*
Y051430D01*
Y050630D02*
X051510D01*
Y051430D01*
X048932Y038050D02*
X049110D01*
X051510D02*
X051688D01*
X049110Y038450D02*
X051510D01*
X049110Y037650D02*
Y038450D01*
Y037650D02*
X051510D01*
Y038450D01*
Y049730D02*
X051688D01*
X048932D02*
X049110D01*
Y049330D02*
X051510D01*
Y050130D01*
X049110D02*
X051510D01*
X049110Y049330D02*
Y050130D01*
X051510Y039350D02*
X051688D01*
X048932D02*
X049110D01*
Y038950D02*
X051510D01*
Y039750D01*
X049110D02*
X051510D01*
X049110Y038950D02*
Y039750D01*
X038319Y039350D02*
X038497D01*
X040897D02*
X041075D01*
X038497Y039750D02*
X040897D01*
X038497Y038950D02*
Y039750D01*
Y038950D02*
X040897D01*
Y039750D01*
Y038050D02*
X041075D01*
X038319D02*
X038497D01*
Y037650D02*
X040897D01*
Y038450D01*
X038497D02*
X040897D01*
X038497Y037650D02*
Y038450D01*
X035590Y038050D02*
X035768D01*
X033012D02*
X033190D01*
Y037650D02*
X035590D01*
Y038450D01*
X033190D02*
X035590D01*
X033190Y037650D02*
Y038450D01*
X033012Y039350D02*
X033190D01*
X035590D02*
X035768D01*
X033190Y039750D02*
X035590D01*
X033190Y038950D02*
Y039750D01*
Y038950D02*
X035590D01*
Y039750D01*
X037210Y061090D02*
Y061268D01*
Y058512D02*
Y058690D01*
X037610D02*
Y061090D01*
X036810D02*
X037610D01*
X036810Y058690D02*
Y061090D01*
Y058690D02*
X037610D01*
X037832Y063230D02*
X038010D01*
X040410D02*
X040588D01*
X038010Y063630D02*
X040410D01*
X038010Y062830D02*
Y063630D01*
Y062830D02*
X040410D01*
Y063630D01*
X035910Y058512D02*
Y058690D01*
Y061090D02*
Y061268D01*
X035510Y058690D02*
Y061090D01*
Y058690D02*
X036310D01*
Y061090D01*
X035510D02*
X036310D01*
X041420Y055812D02*
Y055990D01*
Y058390D02*
Y058568D01*
X041020Y055990D02*
Y058390D01*
Y055990D02*
X041820D01*
Y058390D01*
X041020D02*
X041820D01*
X035910Y055790D02*
Y055968D01*
Y053212D02*
Y053390D01*
X036310D02*
Y055790D01*
X035510D02*
X036310D01*
X035510Y053390D02*
Y055790D01*
Y053390D02*
X036310D01*
X040410Y064530D02*
X040588D01*
X037832D02*
X038010D01*
Y064130D02*
X040410D01*
Y064930D01*
X038010D02*
X040410D01*
X038010Y064130D02*
Y064930D01*
X037210Y053212D02*
Y053390D01*
Y055790D02*
Y055968D01*
X036810Y053390D02*
Y055790D01*
Y053390D02*
X037610D01*
Y055790D01*
X036810D02*
X037610D01*
X088469Y042990D02*
X088619D01*
X091219D02*
X091369D01*
X089119Y042490D02*
Y043490D01*
X088619Y042490D02*
X091219D01*
X088619D02*
Y043490D01*
X091219D01*
Y042490D02*
Y043490D01*
X088439Y028530D02*
X088589D01*
X091189D02*
X091339D01*
X089089Y028030D02*
Y029030D01*
X088589Y028030D02*
X091189D01*
X088589D02*
Y029030D01*
X091189D01*
Y028030D02*
Y029030D01*
X089941Y052400D02*
X090119D01*
X092519D02*
X092697D01*
X090119Y052800D02*
X092519D01*
X090119Y052000D02*
Y052800D01*
Y052000D02*
X092519D01*
Y052800D01*
X087889Y038510D02*
Y038688D01*
Y035932D02*
Y036110D01*
X088289D02*
Y038510D01*
X087489D02*
X088289D01*
X087489Y036110D02*
Y038510D01*
Y036110D02*
X088289D01*
X093309Y031730D02*
Y031908D01*
Y029152D02*
Y029330D01*
X093709D02*
Y031730D01*
X092909D02*
X093709D01*
X092909Y029330D02*
Y031730D01*
Y029330D02*
X093709D01*
X043650Y030900D02*
Y031700D01*
X041250Y030900D02*
X043650D01*
X041250D02*
Y031700D01*
X043650D01*
Y031300D02*
X043828D01*
X041072D02*
X041250D01*
X043650Y032100D02*
Y032900D01*
X041250Y032100D02*
X043650D01*
X041250D02*
Y032900D01*
X043650D01*
Y032500D02*
X043828D01*
X041072D02*
X041250D01*
X049700Y032070D02*
Y032870D01*
X052100D01*
Y032070D02*
Y032870D01*
X049700Y032070D02*
X052100D01*
X049522Y032470D02*
X049700D01*
X052100D02*
X052278D01*
X049700Y030870D02*
Y031670D01*
X052100D01*
Y030870D02*
Y031670D01*
X049700Y030870D02*
X052100D01*
X049522Y031270D02*
X049700D01*
X052100D02*
X052278D01*
X061300Y036200D02*
X062100D01*
X061300D02*
Y038600D01*
X062100D01*
Y036200D02*
Y038600D01*
X061700Y036022D02*
Y036200D01*
Y038600D02*
Y038778D01*
X090459Y062190D02*
X090637D01*
X087881D02*
X088059D01*
Y061790D02*
X090459D01*
Y062590D01*
X088059D02*
X090459D01*
X088059Y061790D02*
Y062590D01*
X088541Y041350D02*
X088719D01*
X091119D02*
X091297D01*
X088719Y041750D02*
X091119D01*
X088719Y040950D02*
Y041750D01*
Y040950D02*
X091119D01*
Y041750D01*
X091089Y027120D02*
X091267D01*
X088511D02*
X088689D01*
Y026720D02*
X091089D01*
Y027520D01*
X088689D02*
X091089D01*
X088689Y026720D02*
Y027520D01*
X091399Y057140D02*
Y057318D01*
Y054562D02*
Y054740D01*
X091799D02*
Y057140D01*
X090999D02*
X091799D01*
X090999Y054740D02*
Y057140D01*
Y054740D02*
X091799D01*
X060200Y038600D02*
Y038778D01*
Y036022D02*
Y036200D01*
X060600D02*
Y038600D01*
X059800D02*
X060600D01*
X059800Y036200D02*
Y038600D01*
Y036200D02*
X060600D01*
M02*
