%FSAX24Y24*%
%MOIN*%
G70*
G01*
G75*
G04 Layer_Color=255*
%ADD10C,0.0350*%
%ADD11C,0.0600*%
%ADD12C,0.0500*%
%ADD13C,0.1000*%
%ADD14C,0.0800*%
%ADD15R,0.0591X0.0591*%
%ADD16C,0.0591*%
%ADD17R,0.0630X0.0630*%
%ADD18C,0.0630*%
%ADD19O,0.0787X0.0551*%
%ADD20R,0.0787X0.0551*%
%ADD21R,0.0600X0.0600*%
%ADD22C,0.0600*%
G04:AMPARAMS|DCode=23|XSize=60mil|YSize=60mil|CornerRadius=7.5mil|HoleSize=0mil|Usage=FLASHONLY|Rotation=0.000|XOffset=0mil|YOffset=0mil|HoleType=Round|Shape=RoundedRectangle|*
%AMROUNDEDRECTD23*
21,1,0.0600,0.0450,0,0,0.0*
21,1,0.0450,0.0600,0,0,0.0*
1,1,0.0150,0.0225,-0.0225*
1,1,0.0150,-0.0225,-0.0225*
1,1,0.0150,-0.0225,0.0225*
1,1,0.0150,0.0225,0.0225*
%
%ADD23ROUNDEDRECTD23*%
%ADD24C,0.0906*%
%ADD25O,0.0394X0.0787*%
%ADD26R,0.0394X0.0787*%
%ADD27R,0.0591X0.0591*%
%ADD28C,0.0650*%
%ADD29C,0.0591*%
%ADD30R,0.0591X0.0591*%
%ADD31R,0.0591X0.0591*%
%ADD32C,0.2500*%
%ADD33C,0.0450*%
%ADD34C,0.0800*%
D13*
X051060Y059390D02*
D03*
Y055390D02*
D03*
X047060Y054050D02*
D03*
X051060D02*
D03*
X056270Y059350D02*
D03*
X052270D02*
D03*
X046620Y057630D02*
D03*
Y061630D02*
D03*
X052360Y064690D02*
D03*
Y060690D02*
D03*
X043030Y052760D02*
D03*
X047030D02*
D03*
X051060Y060690D02*
D03*
Y064690D02*
D03*
X047003Y049730D02*
D03*
X043003D02*
D03*
Y051030D02*
D03*
X047003D02*
D03*
Y039350D02*
D03*
X043003D02*
D03*
Y038050D02*
D03*
X047003D02*
D03*
X048310Y051030D02*
D03*
X052310D02*
D03*
X048310Y038050D02*
D03*
X052310D02*
D03*
Y049730D02*
D03*
X048310D02*
D03*
X052310Y039350D02*
D03*
X048310D02*
D03*
X037697D02*
D03*
X041697D02*
D03*
Y038050D02*
D03*
X037697D02*
D03*
X036390D02*
D03*
X032390D02*
D03*
Y039350D02*
D03*
X036390D02*
D03*
X037210Y061890D02*
D03*
Y057890D02*
D03*
Y063230D02*
D03*
X041210D02*
D03*
X035910Y057890D02*
D03*
Y061890D02*
D03*
X041420Y055190D02*
D03*
Y059190D02*
D03*
X035910Y056590D02*
D03*
Y052590D02*
D03*
X041210Y064530D02*
D03*
X037210D02*
D03*
Y052590D02*
D03*
Y056590D02*
D03*
X087919Y042990D02*
D03*
X091919D02*
D03*
X087889Y028530D02*
D03*
X091889D02*
D03*
X079899Y051250D02*
D03*
Y046250D02*
D03*
X079849Y058100D02*
D03*
Y053100D02*
D03*
Y064950D02*
D03*
Y059950D02*
D03*
X079879Y030700D02*
D03*
Y025700D02*
D03*
Y037550D02*
D03*
Y032550D02*
D03*
Y044400D02*
D03*
Y039400D02*
D03*
X089319Y052400D02*
D03*
X093319D02*
D03*
X087889Y039310D02*
D03*
Y035310D02*
D03*
X093309Y032530D02*
D03*
Y028530D02*
D03*
X044450Y031300D02*
D03*
X040450D02*
D03*
X044450Y032500D02*
D03*
X040450D02*
D03*
X048900Y032470D02*
D03*
X052900D02*
D03*
X048900Y031270D02*
D03*
X052900D02*
D03*
X061700Y035400D02*
D03*
Y039400D02*
D03*
X091259Y062190D02*
D03*
X087259D02*
D03*
X087919Y041350D02*
D03*
X091919D02*
D03*
X091889Y027120D02*
D03*
X087889D02*
D03*
X091399Y057940D02*
D03*
Y053940D02*
D03*
X060200Y039400D02*
D03*
Y035400D02*
D03*
D14*
X049070Y059380D02*
D03*
Y055880D02*
D03*
Y060680D02*
D03*
Y064180D02*
D03*
X043157Y047780D02*
D03*
X046657D02*
D03*
X043157Y041300D02*
D03*
X046657D02*
D03*
X048320Y047780D02*
D03*
X051820D02*
D03*
X048320Y041300D02*
D03*
X051820D02*
D03*
X041543D02*
D03*
X038043D02*
D03*
X036380D02*
D03*
X032880D02*
D03*
X039200Y057900D02*
D03*
Y061400D02*
D03*
Y056600D02*
D03*
Y053100D02*
D03*
X087749Y059990D02*
D03*
X091249D02*
D03*
X089749Y057970D02*
D03*
X087749D02*
D03*
X089749Y055190D02*
D03*
X087749D02*
D03*
X091409Y046390D02*
D03*
Y044390D02*
D03*
X086829Y046320D02*
D03*
X088829D02*
D03*
X085819Y050460D02*
D03*
X089319D02*
D03*
X091409Y048430D02*
D03*
Y050430D02*
D03*
Y036720D02*
D03*
X089409D02*
D03*
X089639Y039060D02*
D03*
X091139D02*
D03*
X089399Y032920D02*
D03*
Y030920D02*
D03*
X089419Y035380D02*
D03*
X091419D02*
D03*
D15*
X093339Y064290D02*
D03*
D16*
Y063290D02*
D03*
X065600Y024150D02*
D03*
X066600D02*
D03*
X071370D02*
D03*
D17*
X093300Y059990D02*
D03*
D18*
Y058990D02*
D03*
Y057990D02*
D03*
D19*
X093319Y046391D02*
D03*
Y047061D02*
D03*
Y047730D02*
D03*
Y048399D02*
D03*
Y034041D02*
D03*
Y034711D02*
D03*
Y035380D02*
D03*
Y036049D02*
D03*
D20*
Y049069D02*
D03*
Y036719D02*
D03*
D21*
X073500Y045400D02*
D03*
X054500Y040400D02*
D03*
X073500Y047400D02*
D03*
X054500Y049000D02*
D03*
D22*
X073500Y044400D02*
D03*
Y043400D02*
D03*
Y042400D02*
D03*
Y041400D02*
D03*
Y040400D02*
D03*
X054500Y043400D02*
D03*
Y044400D02*
D03*
Y045400D02*
D03*
Y046400D02*
D03*
Y047400D02*
D03*
Y041400D02*
D03*
Y042400D02*
D03*
X073500Y050400D02*
D03*
Y051400D02*
D03*
Y052400D02*
D03*
Y053400D02*
D03*
Y054400D02*
D03*
Y048400D02*
D03*
Y049400D02*
D03*
X059340Y055340D02*
D03*
Y054340D02*
D03*
Y053340D02*
D03*
X062220D02*
D03*
Y054340D02*
D03*
Y055340D02*
D03*
Y056340D02*
D03*
X054500Y050000D02*
D03*
Y051000D02*
D03*
Y052000D02*
D03*
Y053000D02*
D03*
Y054000D02*
D03*
Y055000D02*
D03*
Y056000D02*
D03*
Y057000D02*
D03*
Y058000D02*
D03*
D23*
X059340Y056340D02*
D03*
D24*
X033436Y027720D02*
D03*
X042452D02*
D03*
X044460D02*
D03*
X059934Y026780D02*
D03*
X050918D02*
D03*
X048910D02*
D03*
X068330Y035400D02*
D03*
X065330D02*
D03*
X071330D02*
D03*
Y027400D02*
D03*
X065330D02*
D03*
D25*
X035700Y063250D02*
D03*
X035200D02*
D03*
D26*
X034700D02*
D03*
D27*
X064600Y024150D02*
D03*
X070370D02*
D03*
D28*
X087359Y063530D02*
D03*
Y064530D02*
D03*
X093409Y041360D02*
D03*
Y042360D02*
D03*
X093369Y027050D02*
D03*
Y026050D02*
D03*
X092859Y053940D02*
D03*
Y054940D02*
D03*
D29*
X045340Y046040D02*
D03*
X044340D02*
D03*
X043340D02*
D03*
X042340D02*
D03*
X041340D02*
D03*
X040340D02*
D03*
X039340D02*
D03*
X045340Y043040D02*
D03*
X044340D02*
D03*
X043340D02*
D03*
X042340D02*
D03*
X041340D02*
D03*
X040340D02*
D03*
X045640Y055630D02*
D03*
Y056630D02*
D03*
Y057630D02*
D03*
Y058630D02*
D03*
Y059630D02*
D03*
Y060630D02*
D03*
Y061630D02*
D03*
X042640Y055630D02*
D03*
Y056630D02*
D03*
Y057630D02*
D03*
Y058630D02*
D03*
Y059630D02*
D03*
Y060630D02*
D03*
D30*
X039340Y043040D02*
D03*
D31*
X042640Y061630D02*
D03*
M02*
