%FSAX24Y24*%
%MOIN*%
G70*
G01*
G75*
G04 Layer_Color=32896*
%ADD10C,0.0350*%
%ADD11C,0.0600*%
%ADD12C,0.0500*%
%ADD13C,0.1000*%
%ADD14C,0.0800*%
%ADD15R,0.0591X0.0591*%
%ADD16C,0.0591*%
%ADD17R,0.0630X0.0630*%
%ADD18C,0.0630*%
%ADD19O,0.0787X0.0551*%
%ADD20R,0.0787X0.0551*%
%ADD21R,0.0600X0.0600*%
%ADD22C,0.0600*%
G04:AMPARAMS|DCode=23|XSize=60mil|YSize=60mil|CornerRadius=7.5mil|HoleSize=0mil|Usage=FLASHONLY|Rotation=0.000|XOffset=0mil|YOffset=0mil|HoleType=Round|Shape=RoundedRectangle|*
%AMROUNDEDRECTD23*
21,1,0.0600,0.0450,0,0,0.0*
21,1,0.0450,0.0600,0,0,0.0*
1,1,0.0150,0.0225,-0.0225*
1,1,0.0150,-0.0225,-0.0225*
1,1,0.0150,-0.0225,0.0225*
1,1,0.0150,0.0225,0.0225*
%
%ADD23ROUNDEDRECTD23*%
%ADD24C,0.0906*%
%ADD25O,0.0394X0.0787*%
%ADD26R,0.0394X0.0787*%
%ADD27R,0.0591X0.0591*%
%ADD28C,0.0650*%
%ADD29C,0.0591*%
%ADD30R,0.0591X0.0591*%
%ADD31R,0.0591X0.0591*%
%ADD32C,0.2500*%
%ADD33C,0.0450*%
%ADD34C,0.0800*%
%ADD35C,0.0100*%
%ADD36C,0.0098*%
%ADD37C,0.0050*%
%ADD38C,0.0079*%
%ADD39C,0.0040*%
%ADD40C,0.0060*%
%ADD41C,0.1080*%
%ADD42C,0.0880*%
%ADD43R,0.0671X0.0671*%
%ADD44C,0.0671*%
%ADD45R,0.0710X0.0710*%
%ADD46C,0.0710*%
%ADD47O,0.0867X0.0631*%
%ADD48R,0.0867X0.0631*%
%ADD49R,0.0680X0.0680*%
%ADD50C,0.0680*%
G04:AMPARAMS|DCode=51|XSize=68mil|YSize=68mil|CornerRadius=11.5mil|HoleSize=0mil|Usage=FLASHONLY|Rotation=0.000|XOffset=0mil|YOffset=0mil|HoleType=Round|Shape=RoundedRectangle|*
%AMROUNDEDRECTD51*
21,1,0.0680,0.0450,0,0,0.0*
21,1,0.0450,0.0680,0,0,0.0*
1,1,0.0230,0.0225,-0.0225*
1,1,0.0230,-0.0225,-0.0225*
1,1,0.0230,-0.0225,0.0225*
1,1,0.0230,0.0225,0.0225*
%
%ADD51ROUNDEDRECTD51*%
%ADD52C,0.0986*%
%ADD53O,0.0474X0.0867*%
%ADD54R,0.0474X0.0867*%
%ADD55R,0.0671X0.0671*%
%ADD56C,0.0730*%
%ADD57C,0.0080*%
%ADD58C,0.0671*%
%ADD59R,0.0671X0.0671*%
%ADD60R,0.0671X0.0671*%
%ADD61C,0.2580*%
D35*
X073000Y045900D02*
X073500D01*
X073000Y044900D02*
Y045900D01*
X074000Y039900D02*
Y044900D01*
X073000Y039900D02*
X074000D01*
X073000D02*
Y044900D01*
X074000D01*
Y045900D01*
X073500D02*
X074000D01*
X054000Y039900D02*
X055000D01*
Y047900D01*
X054000D02*
X055000D01*
X054000Y039900D02*
Y047900D01*
Y040900D02*
X055000D01*
X073000Y046900D02*
X074000D01*
Y054900D01*
X073000D02*
X074000D01*
X073000Y046900D02*
Y054900D01*
Y047900D02*
X074000D01*
X054000Y048500D02*
X055000D01*
Y049500D01*
X054000D02*
X055000D01*
X054000D02*
Y058500D01*
X055000D01*
Y049500D02*
Y058500D01*
X054000Y048500D02*
Y049500D01*
X074850Y045850D02*
X074450D01*
X074250Y045650D01*
X074450Y045450D01*
X074850D01*
X074550D01*
Y045850D01*
X074250Y045250D02*
X074850D01*
Y044950D01*
X074750Y044850D01*
X074350D01*
X074250Y044950D01*
Y045250D01*
X074850Y044650D02*
Y044450D01*
Y044550D01*
X074250D01*
X074350Y044650D01*
X054949Y048850D02*
X054749D01*
X054849D01*
Y048250D01*
X054949D01*
X054749D01*
X054150Y048850D02*
X054349D01*
X054449Y048750D01*
Y048350D01*
X054349Y048250D01*
X054150D01*
X054050Y048350D01*
Y048750D01*
X054150Y048850D01*
X053850D02*
Y048250D01*
X053450D01*
X053250D02*
X053050D01*
X053150D01*
Y048850D01*
X053250Y048750D01*
X074900Y054900D02*
X074300D01*
Y054600D01*
X074400Y054500D01*
X074600D01*
X074700Y054600D01*
Y054900D01*
X074300Y054000D02*
Y054200D01*
X074400Y054300D01*
X074800D01*
X074900Y054200D01*
Y054000D01*
X074800Y053900D01*
X074400D01*
X074300Y054000D01*
Y053700D02*
X074900D01*
X074700Y053500D01*
X074900Y053301D01*
X074300D01*
Y052701D02*
Y053101D01*
X074900D01*
Y052701D01*
X074600Y053101D02*
Y052901D01*
X074900Y052501D02*
X074300D01*
Y052201D01*
X074400Y052101D01*
X074600D01*
X074700Y052201D01*
Y052501D01*
Y052301D02*
X074900Y052101D01*
Y051901D02*
Y051701D01*
Y051801D01*
X074300D01*
X074400Y051901D01*
X057290Y052170D02*
X057090D01*
X057190D01*
Y051570D01*
X057290D01*
X057090D01*
X056490Y052170D02*
X056690D01*
X056790Y052070D01*
Y051670D01*
X056690Y051570D01*
X056490D01*
X056390Y051670D01*
Y052070D01*
X056490Y052170D01*
X056190D02*
Y051570D01*
Y051870D01*
X055790D01*
Y052170D01*
Y051570D01*
X055591D02*
X055391D01*
X055491D01*
Y052170D01*
X055591Y052070D01*
M02*
