%FSAX24Y24*%
%MOIN*%
G70*
G01*
G75*
G04 Layer_Color=2752767*
%ADD10C,0.0350*%
%ADD11C,0.0600*%
%ADD12C,0.0500*%
%ADD13C,0.1000*%
%ADD14C,0.0800*%
%ADD15R,0.0591X0.0591*%
%ADD16C,0.0591*%
%ADD17R,0.0630X0.0630*%
%ADD18C,0.0630*%
%ADD19O,0.0787X0.0551*%
%ADD20R,0.0787X0.0551*%
%ADD21R,0.0600X0.0600*%
%ADD22C,0.0600*%
G04:AMPARAMS|DCode=23|XSize=60mil|YSize=60mil|CornerRadius=7.5mil|HoleSize=0mil|Usage=FLASHONLY|Rotation=0.000|XOffset=0mil|YOffset=0mil|HoleType=Round|Shape=RoundedRectangle|*
%AMROUNDEDRECTD23*
21,1,0.0600,0.0450,0,0,0.0*
21,1,0.0450,0.0600,0,0,0.0*
1,1,0.0150,0.0225,-0.0225*
1,1,0.0150,-0.0225,-0.0225*
1,1,0.0150,-0.0225,0.0225*
1,1,0.0150,0.0225,0.0225*
%
%ADD23ROUNDEDRECTD23*%
%ADD24C,0.0906*%
%ADD25O,0.0394X0.0787*%
%ADD26R,0.0394X0.0787*%
%ADD27R,0.0591X0.0591*%
%ADD28C,0.0650*%
%ADD29C,0.0591*%
%ADD30R,0.0591X0.0591*%
%ADD31R,0.0591X0.0591*%
%ADD32C,0.2500*%
%ADD33C,0.0450*%
%ADD34C,0.0800*%
%ADD35C,0.0100*%
%ADD36C,0.0098*%
%ADD37C,0.0050*%
%ADD38C,0.0079*%
%ADD39C,0.0040*%
%ADD40C,0.0060*%
%ADD41C,0.1080*%
%ADD42C,0.0880*%
%ADD43R,0.0671X0.0671*%
%ADD44C,0.0671*%
%ADD45R,0.0710X0.0710*%
%ADD46C,0.0710*%
%ADD47O,0.0867X0.0631*%
%ADD48R,0.0867X0.0631*%
%ADD49R,0.0680X0.0680*%
%ADD50C,0.0680*%
G04:AMPARAMS|DCode=51|XSize=68mil|YSize=68mil|CornerRadius=11.5mil|HoleSize=0mil|Usage=FLASHONLY|Rotation=0.000|XOffset=0mil|YOffset=0mil|HoleType=Round|Shape=RoundedRectangle|*
%AMROUNDEDRECTD51*
21,1,0.0680,0.0450,0,0,0.0*
21,1,0.0450,0.0680,0,0,0.0*
1,1,0.0230,0.0225,-0.0225*
1,1,0.0230,-0.0225,-0.0225*
1,1,0.0230,-0.0225,0.0225*
1,1,0.0230,0.0225,0.0225*
%
%ADD51ROUNDEDRECTD51*%
%ADD52C,0.0986*%
%ADD53O,0.0474X0.0867*%
%ADD54R,0.0474X0.0867*%
%ADD55R,0.0671X0.0671*%
%ADD56C,0.0730*%
%ADD57C,0.0080*%
%ADD58C,0.0671*%
%ADD59R,0.0671X0.0671*%
%ADD60R,0.0671X0.0671*%
%ADD61C,0.2580*%
%ADD62C,0.0030*%
%ADD63C,0.0039*%
%ADD64C,0.0394*%
%ADD65C,0.0067*%
D37*
X050860Y059190D02*
Y059590D01*
X051260D01*
Y059190D01*
X050860D01*
Y055190D02*
Y055590D01*
X051260D01*
Y055190D01*
X050860D01*
X046860Y053850D02*
Y054250D01*
X047260D01*
Y053850D01*
X046860D01*
X050860D02*
Y054250D01*
X051260D01*
Y053850D01*
X050860D01*
X056070Y059150D02*
Y059550D01*
X056470D01*
Y059150D01*
X056070D01*
X052070D02*
Y059550D01*
X052470D01*
Y059150D01*
X052070D01*
X046420Y057430D02*
Y057830D01*
X046820D01*
Y057430D01*
X046420D01*
Y061430D02*
Y061830D01*
X046820D01*
Y061430D01*
X046420D01*
X052160Y064490D02*
Y064890D01*
X052560D01*
Y064490D01*
X052160D01*
Y060490D02*
Y060890D01*
X052560D01*
Y060490D01*
X052160D01*
X042830Y052560D02*
Y052960D01*
X043230D01*
Y052560D01*
X042830D01*
X046830D02*
Y052960D01*
X047230D01*
Y052560D01*
X046830D01*
X050860Y060490D02*
Y060890D01*
X051260D01*
Y060490D01*
X050860D01*
Y064490D02*
Y064890D01*
X051260D01*
Y064490D01*
X050860D01*
X048870Y059180D02*
Y059580D01*
X049270D01*
Y059180D01*
X048870D01*
Y055680D02*
Y056080D01*
X049270D01*
Y055680D01*
X048870D01*
Y060480D02*
Y060880D01*
X049270D01*
Y060480D01*
X048870D01*
Y063980D02*
Y064380D01*
X049270D01*
Y063980D01*
X048870D01*
X046803Y049530D02*
Y049930D01*
X047203D01*
Y049530D01*
X046803D01*
X042803D02*
Y049930D01*
X043203D01*
Y049530D01*
X042803D01*
Y050830D02*
Y051230D01*
X043203D01*
Y050830D01*
X042803D01*
X046803D02*
Y051230D01*
X047203D01*
Y050830D01*
X046803D01*
Y039150D02*
Y039550D01*
X047203D01*
Y039150D01*
X046803D01*
X042803D02*
Y039550D01*
X043203D01*
Y039150D01*
X042803D01*
Y037850D02*
Y038250D01*
X043203D01*
Y037850D01*
X042803D01*
X046803D02*
Y038250D01*
X047203D01*
Y037850D01*
X046803D01*
X048110Y050830D02*
Y051230D01*
X048510D01*
Y050830D01*
X048110D01*
X052110D02*
Y051230D01*
X052510D01*
Y050830D01*
X052110D01*
X048110Y037850D02*
Y038250D01*
X048510D01*
Y037850D01*
X048110D01*
X052110D02*
Y038250D01*
X052510D01*
Y037850D01*
X052110D01*
Y049530D02*
Y049930D01*
X052510D01*
Y049530D01*
X052110D01*
X048110D02*
Y049930D01*
X048510D01*
Y049530D01*
X048110D01*
X052110Y039150D02*
Y039550D01*
X052510D01*
Y039150D01*
X052110D01*
X048110D02*
Y039550D01*
X048510D01*
Y039150D01*
X048110D01*
X037497D02*
Y039550D01*
X037897D01*
Y039150D01*
X037497D01*
X041497D02*
Y039550D01*
X041897D01*
Y039150D01*
X041497D01*
Y037850D02*
Y038250D01*
X041897D01*
Y037850D01*
X041497D01*
X037497D02*
Y038250D01*
X037897D01*
Y037850D01*
X037497D01*
X036190D02*
Y038250D01*
X036590D01*
Y037850D01*
X036190D01*
X032190D02*
Y038250D01*
X032590D01*
Y037850D01*
X032190D01*
Y039150D02*
Y039550D01*
X032590D01*
Y039150D01*
X032190D01*
X036190D02*
Y039550D01*
X036590D01*
Y039150D01*
X036190D01*
X042957Y047580D02*
Y047980D01*
X043357D01*
Y047580D01*
X042957D01*
X046457D02*
Y047980D01*
X046857D01*
Y047580D01*
X046457D01*
X042957Y041100D02*
Y041500D01*
X043357D01*
Y041100D01*
X042957D01*
X046457D02*
Y041500D01*
X046857D01*
Y041100D01*
X046457D01*
X048120Y047580D02*
Y047980D01*
X048520D01*
Y047580D01*
X048120D01*
X051620D02*
Y047980D01*
X052020D01*
Y047580D01*
X051620D01*
X048120Y041100D02*
Y041500D01*
X048520D01*
Y041100D01*
X048120D01*
X051620D02*
Y041500D01*
X052020D01*
Y041100D01*
X051620D01*
X041343D02*
Y041500D01*
X041743D01*
Y041100D01*
X041343D01*
X037843D02*
Y041500D01*
X038243D01*
Y041100D01*
X037843D01*
X036180D02*
Y041500D01*
X036580D01*
Y041100D01*
X036180D01*
X032680D02*
Y041500D01*
X033080D01*
Y041100D01*
X032680D01*
X037010Y061690D02*
Y062090D01*
X037410D01*
Y061690D01*
X037010D01*
Y057690D02*
Y058090D01*
X037410D01*
Y057690D01*
X037010D01*
Y063030D02*
Y063430D01*
X037410D01*
Y063030D01*
X037010D01*
X041010D02*
Y063430D01*
X041410D01*
Y063030D01*
X041010D01*
X035710Y057690D02*
Y058090D01*
X036110D01*
Y057690D01*
X035710D01*
Y061690D02*
Y062090D01*
X036110D01*
Y061690D01*
X035710D01*
X041220Y054990D02*
Y055390D01*
X041620D01*
Y054990D01*
X041220D01*
Y058990D02*
Y059390D01*
X041620D01*
Y058990D01*
X041220D01*
X035710Y056390D02*
Y056790D01*
X036110D01*
Y056390D01*
X035710D01*
Y052390D02*
Y052790D01*
X036110D01*
Y052390D01*
X035710D01*
X041010Y064330D02*
Y064730D01*
X041410D01*
Y064330D01*
X041010D01*
X037010D02*
Y064730D01*
X037410D01*
Y064330D01*
X037010D01*
Y052390D02*
Y052790D01*
X037410D01*
Y052390D01*
X037010D01*
Y056390D02*
Y056790D01*
X037410D01*
Y056390D01*
X037010D01*
X039000Y057700D02*
Y058100D01*
X039400D01*
Y057700D01*
X039000D01*
Y061200D02*
Y061600D01*
X039400D01*
Y061200D01*
X039000D01*
Y056400D02*
Y056800D01*
X039400D01*
Y056400D01*
X039000D01*
Y052900D02*
Y053300D01*
X039400D01*
Y052900D01*
X039000D01*
X087549Y059790D02*
Y060190D01*
X087949D01*
Y059790D01*
X087549D01*
X091049D02*
Y060190D01*
X091449D01*
Y059790D01*
X091049D01*
X089549Y057770D02*
Y058170D01*
X089949D01*
Y057770D01*
X089549D01*
X087549D02*
Y058170D01*
X087949D01*
Y057770D01*
X087549D01*
X089549Y054990D02*
Y055390D01*
X089949D01*
Y054990D01*
X089549D01*
X087549D02*
Y055390D01*
X087949D01*
Y054990D01*
X087549D01*
X091209Y046190D02*
Y046590D01*
X091609D01*
Y046190D01*
X091209D01*
Y044190D02*
Y044590D01*
X091609D01*
Y044190D01*
X091209D01*
X086629Y046120D02*
Y046520D01*
X087029D01*
Y046120D01*
X086629D01*
X088629D02*
Y046520D01*
X089029D01*
Y046120D01*
X088629D01*
X085619Y050260D02*
Y050660D01*
X086019D01*
Y050260D01*
X085619D01*
X089119D02*
Y050660D01*
X089519D01*
Y050260D01*
X089119D01*
X091209Y048230D02*
Y048630D01*
X091609D01*
Y048230D01*
X091209D01*
Y050230D02*
Y050630D01*
X091609D01*
Y050230D01*
X091209D01*
Y036520D02*
Y036920D01*
X091609D01*
Y036520D01*
X091209D01*
X089209D02*
Y036920D01*
X089609D01*
Y036520D01*
X089209D01*
X089439Y038860D02*
Y039260D01*
X089839D01*
Y038860D01*
X089439D01*
X090939D02*
Y039260D01*
X091339D01*
Y038860D01*
X090939D01*
X089199Y032720D02*
Y033120D01*
X089599D01*
Y032720D01*
X089199D01*
Y030720D02*
Y031120D01*
X089599D01*
Y030720D01*
X089199D01*
X089219Y035180D02*
Y035580D01*
X089619D01*
Y035180D01*
X089219D01*
X091219D02*
Y035580D01*
X091619D01*
Y035180D01*
X091219D01*
X087719Y042790D02*
Y043190D01*
X088119D01*
Y042790D01*
X087719D01*
X091719D02*
Y043190D01*
X092119D01*
Y042790D01*
X091719D01*
X087689Y028330D02*
Y028730D01*
X088089D01*
Y028330D01*
X087689D01*
X091689D02*
Y028730D01*
X092089D01*
Y028330D01*
X091689D01*
X093139Y064090D02*
Y064490D01*
X093539D01*
Y064090D01*
X093139D01*
Y063090D02*
Y063490D01*
X093539D01*
Y063090D01*
X093139D01*
X079699Y051050D02*
Y051450D01*
X080099D01*
Y051050D01*
X079699D01*
Y046050D02*
Y046450D01*
X080099D01*
Y046050D01*
X079699D01*
X079649Y057900D02*
Y058300D01*
X080049D01*
Y057900D01*
X079649D01*
Y052900D02*
Y053300D01*
X080049D01*
Y052900D01*
X079649D01*
Y064750D02*
Y065150D01*
X080049D01*
Y064750D01*
X079649D01*
Y059750D02*
Y060150D01*
X080049D01*
Y059750D01*
X079649D01*
X079679Y030500D02*
Y030900D01*
X080079D01*
Y030500D01*
X079679D01*
Y025500D02*
Y025900D01*
X080079D01*
Y025500D01*
X079679D01*
Y037350D02*
Y037750D01*
X080079D01*
Y037350D01*
X079679D01*
Y032350D02*
Y032750D01*
X080079D01*
Y032350D01*
X079679D01*
Y044200D02*
Y044600D01*
X080079D01*
Y044200D01*
X079679D01*
Y039200D02*
Y039600D01*
X080079D01*
Y039200D01*
X079679D01*
X089119Y052200D02*
Y052600D01*
X089519D01*
Y052200D01*
X089119D01*
X093119D02*
Y052600D01*
X093519D01*
Y052200D01*
X093119D01*
X087689Y039110D02*
Y039510D01*
X088089D01*
Y039110D01*
X087689D01*
Y035110D02*
Y035510D01*
X088089D01*
Y035110D01*
X087689D01*
X093109Y032330D02*
Y032730D01*
X093509D01*
Y032330D01*
X093109D01*
Y028330D02*
Y028730D01*
X093509D01*
Y028330D01*
X093109D01*
X093100Y059790D02*
Y060190D01*
X093500D01*
Y059790D01*
X093100D01*
Y058790D02*
Y059190D01*
X093500D01*
Y058790D01*
X093100D01*
Y057790D02*
Y058190D01*
X093500D01*
Y057790D01*
X093100D01*
X093119Y046191D02*
Y046591D01*
X093519D01*
Y046191D01*
X093119D01*
Y046861D02*
Y047261D01*
X093519D01*
Y046861D01*
X093119D01*
Y047530D02*
Y047930D01*
X093519D01*
Y047530D01*
X093119D01*
Y048199D02*
Y048599D01*
X093519D01*
Y048199D01*
X093119D01*
Y048869D02*
Y049269D01*
X093519D01*
Y048869D01*
X093119D01*
Y033841D02*
Y034241D01*
X093519D01*
Y033841D01*
X093119D01*
Y034511D02*
Y034911D01*
X093519D01*
Y034511D01*
X093119D01*
Y035180D02*
Y035580D01*
X093519D01*
Y035180D01*
X093119D01*
Y035849D02*
Y036249D01*
X093519D01*
Y035849D01*
X093119D01*
Y036519D02*
Y036919D01*
X093519D01*
Y036519D01*
X093119D01*
X073300Y045200D02*
Y045600D01*
X073700D01*
Y045200D01*
X073300D01*
Y044200D02*
Y044600D01*
X073700D01*
Y044200D01*
X073300D01*
Y043200D02*
Y043600D01*
X073700D01*
Y043200D01*
X073300D01*
Y042200D02*
Y042600D01*
X073700D01*
Y042200D01*
X073300D01*
Y041200D02*
Y041600D01*
X073700D01*
Y041200D01*
X073300D01*
Y040200D02*
Y040600D01*
X073700D01*
Y040200D01*
X073300D01*
X054300D02*
Y040600D01*
X054700D01*
Y040200D01*
X054300D01*
Y043200D02*
Y043600D01*
X054700D01*
Y043200D01*
X054300D01*
Y044200D02*
Y044600D01*
X054700D01*
Y044200D01*
X054300D01*
Y045200D02*
Y045600D01*
X054700D01*
Y045200D01*
X054300D01*
Y046200D02*
Y046600D01*
X054700D01*
Y046200D01*
X054300D01*
Y047200D02*
Y047600D01*
X054700D01*
Y047200D01*
X054300D01*
Y041200D02*
Y041600D01*
X054700D01*
Y041200D01*
X054300D01*
Y042200D02*
Y042600D01*
X054700D01*
Y042200D01*
X054300D01*
X073300Y047200D02*
Y047600D01*
X073700D01*
Y047200D01*
X073300D01*
Y050200D02*
Y050600D01*
X073700D01*
Y050200D01*
X073300D01*
Y051200D02*
Y051600D01*
X073700D01*
Y051200D01*
X073300D01*
Y052200D02*
Y052600D01*
X073700D01*
Y052200D01*
X073300D01*
Y053200D02*
Y053600D01*
X073700D01*
Y053200D01*
X073300D01*
Y054200D02*
Y054600D01*
X073700D01*
Y054200D01*
X073300D01*
Y048200D02*
Y048600D01*
X073700D01*
Y048200D01*
X073300D01*
Y049200D02*
Y049600D01*
X073700D01*
Y049200D01*
X073300D01*
X044250Y031100D02*
Y031500D01*
X044650D01*
Y031100D01*
X044250D01*
X040250D02*
Y031500D01*
X040650D01*
Y031100D01*
X040250D01*
X044250Y032300D02*
Y032700D01*
X044650D01*
Y032300D01*
X044250D01*
X040250D02*
Y032700D01*
X040650D01*
Y032300D01*
X040250D01*
X048700Y032270D02*
Y032670D01*
X049100D01*
Y032270D01*
X048700D01*
X052700D02*
Y032670D01*
X053100D01*
Y032270D01*
X052700D01*
X048700Y031070D02*
Y031470D01*
X049100D01*
Y031070D01*
X048700D01*
X052700D02*
Y031470D01*
X053100D01*
Y031070D01*
X052700D01*
X061500Y035200D02*
Y035600D01*
X061900D01*
Y035200D01*
X061500D01*
Y039200D02*
Y039600D01*
X061900D01*
Y039200D01*
X061500D01*
X059140Y056140D02*
Y056540D01*
X059540D01*
Y056140D01*
X059140D01*
Y055140D02*
Y055540D01*
X059540D01*
Y055140D01*
X059140D01*
Y054140D02*
Y054540D01*
X059540D01*
Y054140D01*
X059140D01*
Y053140D02*
Y053540D01*
X059540D01*
Y053140D01*
X059140D01*
X062020D02*
Y053540D01*
X062420D01*
Y053140D01*
X062020D01*
Y054140D02*
Y054540D01*
X062420D01*
Y054140D01*
X062020D01*
Y055140D02*
Y055540D01*
X062420D01*
Y055140D01*
X062020D01*
Y056140D02*
Y056540D01*
X062420D01*
Y056140D01*
X062020D01*
X033236Y027520D02*
Y027920D01*
X033636D01*
Y027520D01*
X033236D01*
X042252D02*
Y027920D01*
X042652D01*
Y027520D01*
X042252D01*
X044260D02*
Y027920D01*
X044660D01*
Y027520D01*
X044260D01*
X059734Y026580D02*
Y026980D01*
X060134D01*
Y026580D01*
X059734D01*
X050718D02*
Y026980D01*
X051118D01*
Y026580D01*
X050718D01*
X048710D02*
Y026980D01*
X049110D01*
Y026580D01*
X048710D01*
X068130Y035200D02*
Y035600D01*
X068530D01*
Y035200D01*
X068130D01*
X065130D02*
Y035600D01*
X065530D01*
Y035200D01*
X065130D01*
X071130D02*
Y035600D01*
X071530D01*
Y035200D01*
X071130D01*
Y027200D02*
Y027600D01*
X071530D01*
Y027200D01*
X071130D01*
X065130D02*
Y027600D01*
X065530D01*
Y027200D01*
X065130D01*
X054300Y048800D02*
Y049200D01*
X054700D01*
Y048800D01*
X054300D01*
Y049800D02*
Y050200D01*
X054700D01*
Y049800D01*
X054300D01*
Y050800D02*
Y051200D01*
X054700D01*
Y050800D01*
X054300D01*
Y051800D02*
Y052200D01*
X054700D01*
Y051800D01*
X054300D01*
Y052800D02*
Y053200D01*
X054700D01*
Y052800D01*
X054300D01*
Y053800D02*
Y054200D01*
X054700D01*
Y053800D01*
X054300D01*
Y054800D02*
Y055200D01*
X054700D01*
Y054800D01*
X054300D01*
Y055800D02*
Y056200D01*
X054700D01*
Y055800D01*
X054300D01*
Y056800D02*
Y057200D01*
X054700D01*
Y056800D01*
X054300D01*
Y057800D02*
Y058200D01*
X054700D01*
Y057800D01*
X054300D01*
X035500Y063050D02*
Y063450D01*
X035900D01*
Y063050D01*
X035500D01*
X035000D02*
Y063450D01*
X035400D01*
Y063050D01*
X035000D01*
X034500D02*
Y063450D01*
X034900D01*
Y063050D01*
X034500D01*
X064400Y023950D02*
Y024350D01*
X064800D01*
Y023950D01*
X064400D01*
X065400D02*
Y024350D01*
X065800D01*
Y023950D01*
X065400D01*
X066400D02*
Y024350D01*
X066800D01*
Y023950D01*
X066400D01*
X070170D02*
Y024350D01*
X070570D01*
Y023950D01*
X070170D01*
X071170D02*
Y024350D01*
X071570D01*
Y023950D01*
X071170D01*
X087159Y063330D02*
Y063730D01*
X087559D01*
Y063330D01*
X087159D01*
Y064330D02*
Y064730D01*
X087559D01*
Y064330D01*
X087159D01*
X093209Y041160D02*
Y041560D01*
X093609D01*
Y041160D01*
X093209D01*
Y042160D02*
Y042560D01*
X093609D01*
Y042160D01*
X093209D01*
X093169Y026850D02*
Y027250D01*
X093569D01*
Y026850D01*
X093169D01*
Y025850D02*
Y026250D01*
X093569D01*
Y025850D01*
X093169D01*
X092659Y053740D02*
Y054140D01*
X093059D01*
Y053740D01*
X092659D01*
Y054740D02*
Y055140D01*
X093059D01*
Y054740D01*
X092659D01*
X091059Y061990D02*
Y062390D01*
X091459D01*
Y061990D01*
X091059D01*
X087059D02*
Y062390D01*
X087459D01*
Y061990D01*
X087059D01*
X087719Y041150D02*
Y041550D01*
X088119D01*
Y041150D01*
X087719D01*
X091719D02*
Y041550D01*
X092119D01*
Y041150D01*
X091719D01*
X091689Y026920D02*
Y027320D01*
X092089D01*
Y026920D01*
X091689D01*
X087689D02*
Y027320D01*
X088089D01*
Y026920D01*
X087689D01*
X091199Y057740D02*
Y058140D01*
X091599D01*
Y057740D01*
X091199D01*
Y053740D02*
Y054140D01*
X091599D01*
Y053740D01*
X091199D01*
X045140Y045840D02*
Y046240D01*
X045540D01*
Y045840D01*
X045140D01*
X044140D02*
Y046240D01*
X044540D01*
Y045840D01*
X044140D01*
X043140D02*
Y046240D01*
X043540D01*
Y045840D01*
X043140D01*
X042140D02*
Y046240D01*
X042540D01*
Y045840D01*
X042140D01*
X041140D02*
Y046240D01*
X041540D01*
Y045840D01*
X041140D01*
X040140D02*
Y046240D01*
X040540D01*
Y045840D01*
X040140D01*
X039140D02*
Y046240D01*
X039540D01*
Y045840D01*
X039140D01*
X045140Y042840D02*
Y043240D01*
X045540D01*
Y042840D01*
X045140D01*
X044140D02*
Y043240D01*
X044540D01*
Y042840D01*
X044140D01*
X043140D02*
Y043240D01*
X043540D01*
Y042840D01*
X043140D01*
X042140D02*
Y043240D01*
X042540D01*
Y042840D01*
X042140D01*
X041140D02*
Y043240D01*
X041540D01*
Y042840D01*
X041140D01*
X040140D02*
Y043240D01*
X040540D01*
Y042840D01*
X040140D01*
X039140D02*
Y043240D01*
X039540D01*
Y042840D01*
X039140D01*
X045440Y055430D02*
Y055830D01*
X045840D01*
Y055430D01*
X045440D01*
Y056430D02*
Y056830D01*
X045840D01*
Y056430D01*
X045440D01*
Y057430D02*
Y057830D01*
X045840D01*
Y057430D01*
X045440D01*
Y058430D02*
Y058830D01*
X045840D01*
Y058430D01*
X045440D01*
Y059430D02*
Y059830D01*
X045840D01*
Y059430D01*
X045440D01*
Y060430D02*
Y060830D01*
X045840D01*
Y060430D01*
X045440D01*
Y061430D02*
Y061830D01*
X045840D01*
Y061430D01*
X045440D01*
X042440Y055430D02*
Y055830D01*
X042840D01*
Y055430D01*
X042440D01*
Y056430D02*
Y056830D01*
X042840D01*
Y056430D01*
X042440D01*
Y057430D02*
Y057830D01*
X042840D01*
Y057430D01*
X042440D01*
Y058430D02*
Y058830D01*
X042840D01*
Y058430D01*
X042440D01*
Y059430D02*
Y059830D01*
X042840D01*
Y059430D01*
X042440D01*
Y060430D02*
Y060830D01*
X042840D01*
Y060430D01*
X042440D01*
Y061430D02*
Y061830D01*
X042840D01*
Y061430D01*
X042440D01*
X068000Y050200D02*
Y050600D01*
X068400D01*
Y050200D01*
X068000D01*
X067000Y049200D02*
Y049600D01*
X067400D01*
Y049200D01*
X067000D01*
X066000Y048200D02*
Y048600D01*
X066400D01*
Y048200D01*
X066000D01*
X070200Y042200D02*
Y042600D01*
X070600D01*
Y042200D01*
X070200D01*
X069200Y041200D02*
Y041600D01*
X069600D01*
Y041200D01*
X069200D01*
X068200Y040200D02*
Y040600D01*
X068600D01*
Y040200D01*
X068200D01*
X036500Y043300D02*
Y043700D01*
X036900D01*
Y043300D01*
X036500D01*
X095000Y046200D02*
Y046600D01*
X095400D01*
Y046200D01*
X095000D01*
X040900Y048000D02*
Y048400D01*
X041300D01*
Y048000D01*
X040900D01*
X083800Y044800D02*
Y045200D01*
X084200D01*
Y044800D01*
X083800D01*
X032300Y035600D02*
Y036000D01*
X032700D01*
Y035600D01*
X032300D01*
X032000Y066800D02*
X031800Y067200D01*
X032200D01*
X032000Y066800D01*
Y021800D02*
X031800Y022200D01*
X032200D01*
X032000Y021800D01*
X097000Y066800D02*
X096800Y067200D01*
X097200D01*
X097000Y066800D01*
Y021800D02*
X096800Y022200D01*
X097200D01*
X097000Y021800D01*
X057000D02*
X056800Y022200D01*
X057200D01*
X057000Y021800D01*
D65*
X060400Y039400D02*
G03*
X060400Y039400I-000200J000000D01*
G01*
Y035400D02*
G03*
X060400Y035400I-000200J000000D01*
G01*
M02*
