%FSAX24Y24*%
%MOIN*%
G70*
G01*
G75*
G04 Layer_Physical_Order=2*
G04 Layer_Color=16711680*
%ADD10C,0.0350*%
%ADD11C,0.0600*%
%ADD12C,0.0500*%
%ADD13C,0.1000*%
%ADD14C,0.0800*%
%ADD15R,0.0591X0.0591*%
%ADD16C,0.0591*%
%ADD17R,0.0630X0.0630*%
%ADD18C,0.0630*%
%ADD19O,0.0787X0.0551*%
%ADD20R,0.0787X0.0551*%
%ADD21R,0.0600X0.0600*%
%ADD22C,0.0600*%
G04:AMPARAMS|DCode=23|XSize=60mil|YSize=60mil|CornerRadius=7.5mil|HoleSize=0mil|Usage=FLASHONLY|Rotation=0.000|XOffset=0mil|YOffset=0mil|HoleType=Round|Shape=RoundedRectangle|*
%AMROUNDEDRECTD23*
21,1,0.0600,0.0450,0,0,0.0*
21,1,0.0450,0.0600,0,0,0.0*
1,1,0.0150,0.0225,-0.0225*
1,1,0.0150,-0.0225,-0.0225*
1,1,0.0150,-0.0225,0.0225*
1,1,0.0150,0.0225,0.0225*
%
%ADD23ROUNDEDRECTD23*%
%ADD24C,0.0906*%
%ADD25O,0.0394X0.0787*%
%ADD26R,0.0394X0.0787*%
%ADD27R,0.0591X0.0591*%
%ADD28C,0.0650*%
%ADD29C,0.0591*%
%ADD30R,0.0591X0.0591*%
%ADD31R,0.0591X0.0591*%
%ADD32C,0.2500*%
%ADD33C,0.0450*%
%ADD34C,0.0800*%
G36*
X100000Y019000D02*
X029000D01*
Y070000D01*
X100000D01*
Y019000D01*
D02*
G37*
%LPC*%
G36*
X059340Y053795D02*
X059019Y053661D01*
X058885Y053340D01*
X059019Y053019D01*
X059340Y052885D01*
X059342Y052886D01*
X069758Y042470D01*
X069729Y042400D01*
X069925Y041925D01*
X070400Y041729D01*
X070875Y041925D01*
X070939Y042081D01*
X073178D01*
X073179Y042079D01*
X073500Y041945D01*
X073821Y042079D01*
X073955Y042400D01*
X073821Y042721D01*
X073500Y042855D01*
X073179Y042721D01*
X073178Y042719D01*
X070939D01*
X070875Y042875D01*
X070400Y043071D01*
X070160Y042972D01*
X059794Y053338D01*
X059795Y053340D01*
X059661Y053661D01*
X059340Y053795D01*
D02*
G37*
G36*
X093234Y042185D02*
X093000D01*
X093069Y042019D01*
X093234Y041951D01*
Y042185D01*
D02*
G37*
G36*
X093818D02*
X093584D01*
Y041951D01*
X093750Y042019D01*
X093818Y042185D01*
D02*
G37*
G36*
X054500Y042855D02*
X054179Y042721D01*
X054045Y042400D01*
X054179Y042079D01*
X054500Y041945D01*
X054821Y042079D01*
X054955Y042400D01*
X054821Y042721D01*
X054500Y042855D01*
D02*
G37*
G36*
X038218Y041790D02*
Y041475D01*
X038534D01*
X038441Y041698D01*
X038218Y041790D01*
D02*
G37*
G36*
X046482D02*
X046259Y041698D01*
X046166Y041475D01*
X046482D01*
Y041790D01*
D02*
G37*
G36*
X046832D02*
Y041475D01*
X047147D01*
X047055Y041698D01*
X046832Y041790D01*
D02*
G37*
G36*
X093234Y042769D02*
X093069Y042701D01*
X093000Y042535D01*
X093234D01*
Y042769D01*
D02*
G37*
G36*
X042300Y067055D02*
X037000D01*
X036679Y066921D01*
X034295Y064538D01*
X034244Y064516D01*
X034110Y064195D01*
Y062344D01*
X034115Y062332D01*
X034142Y046646D01*
X030708Y043212D01*
X030670Y043120D01*
Y041110D01*
X030645Y041050D01*
Y030056D01*
X030779Y029735D01*
X032833Y027681D01*
X032998Y027282D01*
X033397Y027116D01*
X036175Y024339D01*
X036496Y024205D01*
X057511D01*
X059108Y022608D01*
X059200Y022570D01*
X063654D01*
X063714Y022545D01*
X071750D01*
X072071Y022679D01*
X072921Y023529D01*
X073055Y023850D01*
Y031350D01*
X072921Y031671D01*
X069930Y034663D01*
Y035446D01*
X070479Y035995D01*
X070891D01*
X070898Y035998D01*
X071277D01*
X070892Y035838D01*
X070710Y035400D01*
X070892Y034962D01*
X071330Y034780D01*
X071729Y034945D01*
X080212D01*
X084579Y030579D01*
X084900Y030445D01*
X089186D01*
X089399Y030357D01*
X089413Y030363D01*
X091226Y028550D01*
X091218Y028530D01*
X091415Y028055D01*
X091435Y028047D01*
Y027603D01*
X091415Y027595D01*
X091218Y027120D01*
X091415Y026645D01*
X091827Y026475D01*
X089178D01*
X088552Y027100D01*
X088560Y027120D01*
X088364Y027595D01*
X087889Y027791D01*
X087415Y027595D01*
X087218Y027120D01*
X087415Y026645D01*
X087889Y026449D01*
X087909Y026457D01*
X088668Y025699D01*
X088989Y025565D01*
X093339D01*
X093358Y025573D01*
X093369Y025568D01*
X093710Y025709D01*
X093851Y026050D01*
X093710Y026391D01*
X093369Y026532D01*
X093232Y026475D01*
X091951D01*
X092364Y026645D01*
X092560Y027120D01*
X092414Y027475D01*
D01*
X092432Y027493D01*
X092456Y027503D01*
X092924Y027971D01*
X092934Y027995D01*
X092948Y028009D01*
X093309Y027859D01*
X093784Y028055D01*
X093980Y028530D01*
X093784Y029005D01*
X093309Y029201D01*
X092835Y029005D01*
X092826Y028985D01*
X092372D01*
X092364Y029005D01*
X092194Y029075D01*
Y029129D01*
X092184Y029152D01*
Y029178D01*
X092166Y029197D01*
X092156Y029220D01*
X092132Y029230D01*
X092114Y029249D01*
X092019Y029288D01*
Y032774D01*
X092030Y032800D01*
X091992Y032892D01*
X091874Y033010D01*
Y034980D01*
X092884D01*
X092845Y034886D01*
X093793D01*
X093740Y035013D01*
X093663Y035045D01*
X093740Y035077D01*
X093866Y035380D01*
X093754Y035649D01*
X093947D01*
X094125Y035470D01*
Y026068D01*
X093542Y025485D01*
X087929D01*
X086730Y026684D01*
Y027746D01*
X087059Y028075D01*
X087407D01*
X087415Y028055D01*
X087889Y027859D01*
X088364Y028055D01*
X088560Y028530D01*
X088364Y029005D01*
X087889Y029201D01*
X087415Y029005D01*
X087407Y028985D01*
X082830D01*
X082603Y028890D01*
X082509Y028851D01*
X079985Y026327D01*
X079879Y026371D01*
X079405Y026175D01*
X079208Y025700D01*
X079405Y025225D01*
X079879Y025029D01*
X079899Y025037D01*
X080228Y024709D01*
X080549Y024575D01*
X093730D01*
X094051Y024709D01*
X094901Y025559D01*
X095035Y025880D01*
Y035659D01*
X094901Y035980D01*
X094511Y036371D01*
X094189Y036504D01*
X094059Y036450D01*
X093833D01*
Y037114D01*
X093624D01*
Y037114D01*
X093586Y037206D01*
X093494Y037244D01*
X093449D01*
Y038081D01*
X093411Y038173D01*
X091474Y040109D01*
X091461Y040142D01*
X090175Y041428D01*
Y044512D01*
X091546Y045884D01*
X091598Y045905D01*
X093319D01*
X093323Y045907D01*
X094771D01*
X095200Y045729D01*
X095675Y045925D01*
X095871Y046400D01*
X095675Y046875D01*
X095200Y047071D01*
X094725Y046875D01*
X094701Y046816D01*
X094532D01*
X095186Y047470D01*
X095446D01*
X096245Y046671D01*
Y045088D01*
X095612Y044455D01*
X092929D01*
X092608Y044321D01*
X091939Y043653D01*
X091919Y043661D01*
X091445Y043465D01*
X091248Y042990D01*
X091445Y042515D01*
X091919Y042319D01*
X092394Y042515D01*
X092590Y042990D01*
X092582Y043010D01*
X093118Y043545D01*
X095800D01*
X096121Y043679D01*
X097021Y044579D01*
X097155Y044900D01*
Y049550D01*
Y063590D01*
X097060Y063817D01*
X097021Y063911D01*
X094711Y066221D01*
X094390Y066355D01*
X080799D01*
X080478Y066221D01*
X079869Y065613D01*
X079849Y065621D01*
X079375Y065425D01*
X079178Y064950D01*
X079375Y064475D01*
X079849Y064279D01*
X080324Y064475D01*
X080520Y064950D01*
X080512Y064970D01*
X080988Y065445D01*
X094202D01*
X096245Y063402D01*
Y049662D01*
X094045Y047461D01*
X093754D01*
X093793Y047555D01*
X092845D01*
X092898Y047427D01*
X092975Y047395D01*
X092898Y047363D01*
X092773Y047061D01*
X092875Y046815D01*
X091743D01*
X091409Y046953D01*
X091011Y046788D01*
X090903Y046527D01*
X089399Y045022D01*
X089265Y044701D01*
Y041240D01*
X089399Y040919D01*
X090685Y039632D01*
Y039321D01*
X090576Y039060D01*
X090741Y038662D01*
X090955Y038574D01*
Y036981D01*
X090846Y036720D01*
X091011Y036322D01*
X091409Y036157D01*
X091743Y036295D01*
X092875D01*
X092773Y036049D01*
X092884Y035780D01*
X091811D01*
X091419Y035943D01*
X091021Y035778D01*
X090856Y035380D01*
X090965Y035119D01*
Y033128D01*
X089263Y031426D01*
X089090Y031355D01*
X085088D01*
X080721Y035721D01*
X080400Y035855D01*
X071729D01*
X071383Y035998D01*
X071762D01*
X071769Y035995D01*
X083019D01*
X083341Y036129D01*
X087899Y040687D01*
X087919Y040679D01*
X088394Y040875D01*
X088590Y041350D01*
X088394Y041825D01*
X088374Y041833D01*
Y042507D01*
X088394Y042515D01*
X088590Y042990D01*
X088394Y043465D01*
X087919Y043661D01*
X087899Y043653D01*
X087284Y044268D01*
Y046059D01*
X087336Y046183D01*
X089128Y047975D01*
X091148D01*
X091409Y047867D01*
X091727Y047999D01*
X092884D01*
X092845Y047905D01*
X093793D01*
X093740Y048033D01*
X093663Y048065D01*
X093740Y048097D01*
X093866Y048399D01*
X093752Y048673D01*
X093833D01*
Y049464D01*
X093774D01*
Y051917D01*
X093794Y051925D01*
X093990Y052400D01*
X093794Y052875D01*
X093319Y053071D01*
X092845Y052875D01*
X092648Y052400D01*
X092845Y051925D01*
X092865Y051917D01*
Y049464D01*
X092806D01*
Y048800D01*
X091819D01*
X091807Y048828D01*
X091409Y048993D01*
X091148Y048885D01*
X088939D01*
X088618Y048751D01*
X086693Y046826D01*
X086431Y046718D01*
X086266Y046320D01*
X086375Y046059D01*
Y044080D01*
X086508Y043759D01*
X087256Y043010D01*
X087248Y042990D01*
X087445Y042515D01*
X087465Y042507D01*
Y041833D01*
X087445Y041825D01*
X087248Y041350D01*
X087256Y041330D01*
X082831Y036905D01*
X079941D01*
X080354Y037075D01*
X080550Y037550D01*
X080354Y038025D01*
X080334Y038033D01*
Y038917D01*
X080354Y038925D01*
X080550Y039400D01*
X080354Y039875D01*
X079879Y040071D01*
X079405Y039875D01*
X079208Y039400D01*
X079405Y038925D01*
X079425Y038917D01*
Y038033D01*
X079405Y038025D01*
X079208Y037550D01*
X079405Y037075D01*
X079817Y036905D01*
X071773D01*
X071766Y036907D01*
X070894D01*
X070887Y036905D01*
X069380D01*
X069059Y036771D01*
X068291Y036004D01*
X067892Y035838D01*
X067710Y035400D01*
X067892Y034962D01*
X068330Y034780D01*
X068469Y034838D01*
X072145Y031162D01*
Y024038D01*
X071562Y023455D01*
X067938D01*
X066921Y024471D01*
X066600Y024605D01*
X066279Y024471D01*
X066145Y024150D01*
X066233Y023939D01*
X066221Y023934D01*
X065741Y023455D01*
X063902D01*
X060537Y026819D01*
X060372Y027218D01*
X059934Y027400D01*
X059495Y027218D01*
X059330Y026819D01*
X057625Y025115D01*
X036685D01*
X034040Y027759D01*
X033875Y028158D01*
X033476Y028324D01*
X031555Y030245D01*
Y040862D01*
X034928Y044235D01*
X040774D01*
X041639Y043371D01*
X041340Y043495D01*
X041019Y043361D01*
X040885Y043040D01*
Y041503D01*
X041019Y041182D01*
X041037Y041163D01*
X041145Y040902D01*
X041242Y040862D01*
Y039833D01*
X041222Y039825D01*
X041026Y039350D01*
X041222Y038875D01*
X041242Y038867D01*
Y038533D01*
X041222Y038525D01*
X041026Y038050D01*
X041222Y037575D01*
X041697Y037379D01*
X042171Y037575D01*
X042350Y038007D01*
X042529Y037575D01*
X043003Y037379D01*
X043478Y037575D01*
X043674Y038050D01*
X043478Y038525D01*
X043458Y038533D01*
Y038867D01*
X043478Y038875D01*
X043674Y039350D01*
X043478Y039825D01*
X043458Y039833D01*
Y040862D01*
X043555Y040902D01*
X043720Y041300D01*
X043719Y041301D01*
X043795Y041483D01*
Y043040D01*
X043661Y043361D01*
X043340Y043495D01*
X043019Y043361D01*
X042885Y043040D01*
Y041750D01*
X042759Y041698D01*
X042594Y041300D01*
X042603Y041278D01*
X042549Y041147D01*
Y039833D01*
X042529Y039825D01*
X042350Y039393D01*
X042171Y039825D01*
X042151Y039833D01*
Y041147D01*
X042097Y041278D01*
X042106Y041300D01*
X041941Y041698D01*
X041795Y041759D01*
Y043040D01*
X041671Y043339D01*
X041885Y043124D01*
Y043040D01*
X042019Y042719D01*
X042340Y042585D01*
X042661Y042719D01*
X042795Y043040D01*
Y043313D01*
X042661Y043634D01*
X041284Y045011D01*
X040963Y045145D01*
X036463D01*
X035052Y046557D01*
X035025Y062324D01*
X035303Y062045D01*
X035239Y061890D01*
X035435Y061415D01*
X035910Y061219D01*
X036385Y061415D01*
X036560Y061839D01*
X036560Y061839D01*
X036581Y061890D01*
X036560Y061941D01*
X036560Y061941D01*
X036385Y062365D01*
X035910Y062561D01*
X035755Y062497D01*
X035519Y062732D01*
Y062785D01*
X035525Y062783D01*
Y063010D01*
X035543Y063053D01*
Y063250D01*
Y063447D01*
X035525Y063490D01*
Y063717D01*
X035457Y063689D01*
X035450Y063671D01*
X035443Y063689D01*
X035200Y063790D01*
X035020Y063715D01*
Y063977D01*
X037188Y066145D01*
X042112D01*
X043745Y064512D01*
Y059648D01*
X043182Y059085D01*
X042640D01*
X042319Y058951D01*
X042185Y058630D01*
X042319Y058309D01*
X042640Y058175D01*
X043370D01*
X043691Y058309D01*
X044521Y059139D01*
X044655Y059460D01*
Y064700D01*
X044521Y065021D01*
X042621Y066921D01*
X042300Y067055D01*
D02*
G37*
G36*
X079704Y044225D02*
X079281D01*
X079405Y043925D01*
X079704Y043801D01*
Y044225D01*
D02*
G37*
G36*
X080478D02*
X080054D01*
Y043801D01*
X080354Y043925D01*
X080478Y044225D01*
D02*
G37*
G36*
X049995Y043498D02*
X045425D01*
X045372Y043476D01*
X045340Y043489D01*
X045022Y043358D01*
X044891Y043040D01*
X045022Y042722D01*
X045319Y042599D01*
X045014D01*
X044795Y042818D01*
Y043040D01*
X044661Y043361D01*
X044340Y043495D01*
X044019Y043361D01*
X043885Y043040D01*
Y042630D01*
X044019Y042309D01*
X044504Y041823D01*
X044825Y041690D01*
X046087D01*
X046409Y041823D01*
X046431Y041845D01*
X046614D01*
X046657Y041863D01*
X046699Y041845D01*
X047132D01*
X047814Y041163D01*
X047855Y041063D01*
Y039833D01*
X047835Y039825D01*
X047657Y039393D01*
X047657Y039393D01*
X047639Y039350D01*
X047657Y039307D01*
X047657Y039307D01*
X047835Y038875D01*
X047855Y038867D01*
Y038533D01*
X047835Y038525D01*
X047657Y038093D01*
X047478Y038525D01*
X047054Y038700D01*
X047054Y038700D01*
X047003Y038721D01*
X046952Y038700D01*
X046952Y038700D01*
X046529Y038525D01*
X046332Y038050D01*
X046529Y037575D01*
X046549Y037567D01*
Y034367D01*
X046682Y034045D01*
X048237Y032490D01*
X048229Y032470D01*
X048425Y031995D01*
X048445Y031987D01*
Y031753D01*
X048425Y031745D01*
X048229Y031270D01*
X048425Y030795D01*
X048445Y030787D01*
Y027155D01*
X048290Y026780D01*
X048472Y026342D01*
X048857Y026182D01*
X044633D01*
X043056Y027759D01*
X042890Y028158D01*
X042452Y028340D01*
X042053Y028175D01*
X040768D01*
X033163Y035780D01*
X033171Y035800D01*
X032975Y036275D01*
X032500Y036471D01*
X032025Y036275D01*
X031829Y035800D01*
X032025Y035325D01*
X032500Y035129D01*
X032520Y035137D01*
X040259Y027399D01*
X040580Y027265D01*
X042053D01*
X042413Y027116D01*
X044123Y025406D01*
X044445Y025273D01*
X049865D01*
X050187Y025406D01*
X050957Y026176D01*
X051356Y026342D01*
X051538Y026780D01*
X051356Y027218D01*
X050918Y027400D01*
X050480Y027218D01*
X050314Y026819D01*
X049677Y026182D01*
X048963D01*
X049348Y026342D01*
X049530Y026780D01*
X049355Y027203D01*
Y030787D01*
X049375Y030795D01*
X049571Y031270D01*
X049375Y031745D01*
X049355Y031753D01*
Y031987D01*
X049375Y031995D01*
X049571Y032470D01*
X049375Y032945D01*
X048900Y033141D01*
X048880Y033133D01*
X047458Y034555D01*
Y037567D01*
X047478Y037575D01*
X047657Y038007D01*
X047835Y037575D01*
X048310Y037379D01*
X048785Y037575D01*
X048981Y038050D01*
X048785Y038525D01*
X048765Y038533D01*
Y038867D01*
X048785Y038875D01*
X048981Y039350D01*
X048785Y039825D01*
X048765Y039833D01*
Y041015D01*
X048883Y041300D01*
X048718Y041698D01*
X048457Y041806D01*
X047641Y042621D01*
X047327Y042752D01*
X049840D01*
X051267Y041325D01*
X051257Y041300D01*
X051422Y040902D01*
X051447Y040892D01*
Y039840D01*
X051556Y039576D01*
X051681Y039451D01*
X051639Y039350D01*
X051835Y038875D01*
X052259Y038700D01*
X052259Y038700D01*
X052310Y038679D01*
X052361Y038700D01*
X052361Y038700D01*
X052785Y038875D01*
X052981Y039350D01*
X052785Y039825D01*
X052310Y040021D01*
X052209Y039979D01*
X052193Y039995D01*
Y040892D01*
X052218Y040902D01*
X052383Y041300D01*
X052218Y041698D01*
X051820Y041863D01*
X051795Y041853D01*
X050259Y043389D01*
X049995Y043498D01*
D02*
G37*
G36*
X093584Y042769D02*
Y042535D01*
X093818D01*
X093750Y042701D01*
X093584Y042769D01*
D02*
G37*
G36*
X036700Y044171D02*
X036322Y044015D01*
X035140D01*
X034819Y043881D01*
X032743Y041806D01*
X032482Y041698D01*
X032374Y041437D01*
X032069Y041131D01*
X031935Y040810D01*
Y039833D01*
X031915Y039825D01*
X031719Y039350D01*
X031915Y038875D01*
X032339Y038700D01*
X032339Y038700D01*
X032390Y038679D01*
X032441Y038700D01*
X032441Y038700D01*
X032865Y038875D01*
X033061Y039350D01*
X032865Y039825D01*
X032845Y039833D01*
Y040622D01*
X033017Y040794D01*
X033278Y040902D01*
X033386Y041163D01*
X035328Y043105D01*
X036192D01*
X036225Y043025D01*
X036700Y042829D01*
X037175Y043025D01*
X037208Y043105D01*
X038636D01*
X038925Y042817D01*
Y042625D01*
X039256D01*
X039318Y042599D01*
X038801D01*
X038779Y042621D01*
X038458Y042755D01*
X037380D01*
X037059Y042621D01*
X036243Y041806D01*
X035982Y041698D01*
X035817Y041300D01*
X035925Y041039D01*
Y039829D01*
X035915Y039825D01*
X035719Y039350D01*
X035915Y038875D01*
X035935Y038867D01*
Y038533D01*
X035915Y038525D01*
X035719Y038050D01*
X035915Y037575D01*
X036390Y037379D01*
X036865Y037575D01*
X037043Y038007D01*
X037222Y037575D01*
X037697Y037379D01*
X038171Y037575D01*
X038179Y037595D01*
X038712D01*
X043787Y032520D01*
X043779Y032500D01*
X043975Y032025D01*
X043995Y032017D01*
Y031783D01*
X043975Y031775D01*
X043779Y031300D01*
X043975Y030825D01*
X043995Y030817D01*
Y028095D01*
X043840Y027720D01*
X044022Y027282D01*
X044460Y027100D01*
X044898Y027282D01*
X045080Y027720D01*
X044905Y028143D01*
Y030817D01*
X044925Y030825D01*
X045121Y031300D01*
X044925Y031775D01*
X044905Y031783D01*
Y032017D01*
X044925Y032025D01*
X045121Y032500D01*
X044925Y032975D01*
X044450Y033171D01*
X044430Y033163D01*
X039221Y038371D01*
X038900Y038505D01*
X038179D01*
X038171Y038525D01*
X037748Y038700D01*
X037748Y038700D01*
X037697Y038721D01*
X037646Y038700D01*
X037646Y038700D01*
X037222Y038525D01*
X037043Y038093D01*
X036865Y038525D01*
X036845Y038533D01*
Y038867D01*
X036865Y038875D01*
X037043Y039307D01*
X037043Y039307D01*
X037061Y039350D01*
X037043Y039393D01*
X037043Y039393D01*
X036865Y039825D01*
X036835Y039837D01*
Y041039D01*
X036886Y041163D01*
X037568Y041845D01*
X038001D01*
X038043Y041863D01*
X038086Y041845D01*
X038269D01*
X038291Y041823D01*
X038613Y041690D01*
X039895D01*
X040216Y041823D01*
X040661Y042269D01*
X040795Y042590D01*
Y043040D01*
X040661Y043361D01*
X040340Y043495D01*
X040019Y043361D01*
X039885Y043040D01*
Y042778D01*
X039755Y042648D01*
Y042950D01*
X039795Y043045D01*
X039755Y043140D01*
Y043455D01*
X039572D01*
X039146Y043881D01*
X038825Y044015D01*
X037078D01*
X036700Y044171D01*
D02*
G37*
G36*
X054500Y043855D02*
X054179Y043721D01*
X054045Y043400D01*
X054179Y043079D01*
X054500Y042945D01*
X054821Y043079D01*
X054955Y043400D01*
X054821Y043721D01*
X054500Y043855D01*
D02*
G37*
G36*
X037868Y041790D02*
X037645Y041698D01*
X037553Y041475D01*
X037868D01*
Y041790D01*
D02*
G37*
G36*
X060025Y039999D02*
X059725Y039875D01*
X059601Y039575D01*
X060025D01*
Y039999D01*
D02*
G37*
G36*
X060375D02*
Y039575D01*
X060799D01*
X060675Y039875D01*
X060375Y039999D01*
D02*
G37*
G36*
X061525D02*
X061225Y039875D01*
X061101Y039575D01*
X061525D01*
Y039999D01*
D02*
G37*
G36*
X047178Y039949D02*
Y039525D01*
X047602D01*
X047478Y039825D01*
X047178Y039949D01*
D02*
G37*
G36*
X037522D02*
X037222Y039825D01*
X037098Y039525D01*
X037522D01*
Y039949D01*
D02*
G37*
G36*
X037872D02*
Y039525D01*
X038295D01*
X038171Y039825D01*
X037872Y039949D01*
D02*
G37*
G36*
X046828D02*
X046529Y039825D01*
X046405Y039525D01*
X046828D01*
Y039949D01*
D02*
G37*
G36*
X061875Y039999D02*
Y039575D01*
X062299D01*
X062175Y039875D01*
X061875Y039999D01*
D02*
G37*
G36*
X047147Y041125D02*
X046832D01*
Y040810D01*
X047055Y040902D01*
X047147Y041125D01*
D02*
G37*
G36*
X091919Y042021D02*
X091445Y041825D01*
X091248Y041350D01*
X091445Y040875D01*
X091919Y040679D01*
X092394Y040875D01*
X092402Y040895D01*
X093368D01*
X093409Y040878D01*
X093750Y041019D01*
X093891Y041360D01*
X093750Y041701D01*
X093409Y041842D01*
X093320Y041805D01*
X092402D01*
X092394Y041825D01*
X091919Y042021D01*
D02*
G37*
G36*
X054500Y041855D02*
X054179Y041721D01*
X054045Y041400D01*
X054179Y041079D01*
X054500Y040945D01*
X054821Y041079D01*
X054955Y041400D01*
X054821Y041721D01*
X054500Y041855D01*
D02*
G37*
G36*
X046482Y041125D02*
X046166D01*
X046259Y040902D01*
X046482Y040810D01*
Y041125D01*
D02*
G37*
G36*
X054920Y040820D02*
X054080D01*
Y039980D01*
X054920D01*
Y040820D01*
D02*
G37*
G36*
X037868Y041125D02*
X037553D01*
X037645Y040902D01*
X037868Y040810D01*
Y041125D01*
D02*
G37*
G36*
X038534D02*
X038218D01*
Y040810D01*
X038441Y040902D01*
X038534Y041125D01*
D02*
G37*
G36*
X091234Y044215D02*
X090919D01*
X091011Y043992D01*
X091234Y043900D01*
Y044215D01*
D02*
G37*
G36*
X073920Y047820D02*
X073080D01*
Y046980D01*
X073920D01*
Y047820D01*
D02*
G37*
G36*
X046482Y047605D02*
X046166D01*
X046259Y047382D01*
X046482Y047290D01*
Y047605D01*
D02*
G37*
G36*
X047147D02*
X046832D01*
Y047290D01*
X047055Y047382D01*
X047147Y047605D01*
D02*
G37*
G36*
X054500Y047855D02*
X054179Y047721D01*
X054045Y047400D01*
X054179Y047079D01*
X054500Y046945D01*
X054821Y047079D01*
X054955Y047400D01*
X054821Y047721D01*
X054500Y047855D01*
D02*
G37*
G36*
Y046855D02*
X054179Y046721D01*
X054045Y046400D01*
X054179Y046079D01*
X054500Y045945D01*
X054821Y046079D01*
X054955Y046400D01*
X054821Y046721D01*
X054500Y046855D01*
D02*
G37*
G36*
X088654Y046810D02*
X088431Y046718D01*
X088339Y046495D01*
X088654D01*
Y046810D01*
D02*
G37*
G36*
X089004D02*
Y046495D01*
X089320D01*
X089227Y046718D01*
X089004Y046810D01*
D02*
G37*
G36*
X046482Y048270D02*
X046259Y048178D01*
X046166Y047955D01*
X046482D01*
Y048270D01*
D02*
G37*
G36*
X073675Y048782D02*
Y048575D01*
X073882D01*
X073821Y048721D01*
X073675Y048782D01*
D02*
G37*
G36*
X054920Y049420D02*
X054080D01*
Y048580D01*
X054920D01*
Y049420D01*
D02*
G37*
G36*
X073325Y049225D02*
X073118D01*
X073179Y049079D01*
X073325Y049018D01*
Y049225D01*
D02*
G37*
G36*
Y048782D02*
X073179Y048721D01*
X073118Y048575D01*
X073325D01*
Y048782D01*
D02*
G37*
G36*
X046832Y048270D02*
Y047955D01*
X047147D01*
X047055Y048178D01*
X046832Y048270D01*
D02*
G37*
G36*
X073325Y048225D02*
X073118D01*
X073179Y048079D01*
X073325Y048018D01*
Y048225D01*
D02*
G37*
G36*
X073882D02*
X073675D01*
Y048018D01*
X073821Y048079D01*
X073882Y048225D01*
D02*
G37*
G36*
X089320Y046145D02*
X089004D01*
Y045830D01*
X089227Y045922D01*
X089320Y046145D01*
D02*
G37*
G36*
X091584Y044880D02*
Y044565D01*
X091900D01*
X091807Y044788D01*
X091584Y044880D01*
D02*
G37*
G36*
X079704Y044999D02*
X079405Y044875D01*
X079281Y044575D01*
X079704D01*
Y044999D01*
D02*
G37*
G36*
X080054D02*
Y044575D01*
X080478D01*
X080354Y044875D01*
X080054Y044999D01*
D02*
G37*
G36*
X091234Y044880D02*
X091011Y044788D01*
X090919Y044565D01*
X091234D01*
Y044880D01*
D02*
G37*
G36*
X091900Y044215D02*
X091584D01*
Y043900D01*
X091807Y043992D01*
X091900Y044215D01*
D02*
G37*
G36*
X054500Y044855D02*
X054179Y044721D01*
X054045Y044400D01*
X054179Y044079D01*
X054500Y043945D01*
X054821Y044079D01*
X054955Y044400D01*
X054821Y044721D01*
X054500Y044855D01*
D02*
G37*
G36*
X079899Y046921D02*
X079425Y046725D01*
X079228Y046250D01*
X079425Y045775D01*
X079899Y045579D01*
X080161Y045687D01*
X082517D01*
X083417Y044787D01*
X083525Y044525D01*
X084000Y044329D01*
X084475Y044525D01*
X084671Y045000D01*
X084475Y045475D01*
X084213Y045583D01*
X083148Y046648D01*
X082750Y046813D01*
X080161D01*
X079899Y046921D01*
D02*
G37*
G36*
X054500Y045855D02*
X054179Y045721D01*
X054045Y045400D01*
X054179Y045079D01*
X054500Y044945D01*
X054821Y045079D01*
X054955Y045400D01*
X054821Y045721D01*
X054500Y045855D01*
D02*
G37*
G36*
X040340Y046489D02*
X040022Y046358D01*
X039891Y046040D01*
X040022Y045722D01*
X040340Y045591D01*
X040658Y045722D01*
X040789Y046040D01*
X040658Y046358D01*
X040340Y046489D01*
D02*
G37*
G36*
X041340D02*
X041022Y046358D01*
X040891Y046040D01*
X041022Y045722D01*
X041340Y045591D01*
X041658Y045722D01*
X041789Y046040D01*
X041658Y046358D01*
X041340Y046489D01*
D02*
G37*
G36*
X088654Y046145D02*
X088339D01*
X088431Y045922D01*
X088654Y045830D01*
Y046145D01*
D02*
G37*
G36*
X039340Y046489D02*
X039022Y046358D01*
X038891Y046040D01*
X039022Y045722D01*
X039340Y045591D01*
X039658Y045722D01*
X039789Y046040D01*
X039658Y046358D01*
X039340Y046489D01*
D02*
G37*
G36*
X062220Y055795D02*
X061899Y055661D01*
X061765Y055340D01*
X061899Y055019D01*
X062220Y054885D01*
X062541Y055019D01*
X062542Y055021D01*
X063128D01*
X067593Y050555D01*
X067529Y050400D01*
X067725Y049925D01*
X068200Y049729D01*
X068355Y049793D01*
X072974Y045174D01*
X073080Y045130D01*
Y044980D01*
X073920D01*
Y045820D01*
X073232D01*
X068807Y050245D01*
X068871Y050400D01*
X068675Y050875D01*
X068200Y051071D01*
X068045Y051007D01*
X063486Y055566D01*
X063260Y055659D01*
X062542D01*
X062541Y055661D01*
X062220Y055795D01*
D02*
G37*
G36*
X045640Y059085D02*
X045000D01*
X044679Y058951D01*
X043699Y057971D01*
X043565Y057650D01*
Y055668D01*
X040709Y052811D01*
X040575Y052490D01*
Y048554D01*
X040429Y048200D01*
X040625Y047725D01*
X040977Y047580D01*
X041885Y046672D01*
Y046040D01*
X042019Y045719D01*
X042340Y045585D01*
X042661Y045719D01*
X042795Y046040D01*
Y046860D01*
X042661Y047181D01*
X041734Y048109D01*
X041771Y048200D01*
X041575Y048675D01*
X041485Y048712D01*
Y052302D01*
X044341Y055159D01*
X044475Y055480D01*
Y057462D01*
X045188Y058175D01*
X045640D01*
X045961Y058309D01*
X046095Y058630D01*
X045961Y058951D01*
X045640Y059085D01*
D02*
G37*
G36*
X043003Y051701D02*
X042529Y051505D01*
X042332Y051030D01*
X042529Y050555D01*
X042549Y050547D01*
Y050213D01*
X042529Y050205D01*
X042332Y049730D01*
X042529Y049255D01*
X042549Y049247D01*
Y047933D01*
X042603Y047802D01*
X042594Y047780D01*
X042759Y047382D01*
X042885Y047330D01*
Y046040D01*
X043019Y045719D01*
X043340Y045585D01*
X043661Y045719D01*
X043795Y046040D01*
Y047597D01*
X043719Y047779D01*
X043720Y047780D01*
X043555Y048178D01*
X043458Y048218D01*
Y049247D01*
X043478Y049255D01*
X043674Y049730D01*
X043478Y050205D01*
X043458Y050213D01*
Y050547D01*
X043478Y050555D01*
X043674Y051030D01*
X043478Y051505D01*
X043003Y051701D01*
D02*
G37*
G36*
X089814Y039550D02*
Y039235D01*
X090130D01*
X090037Y039458D01*
X089814Y039550D01*
D02*
G37*
G36*
X053075Y031869D02*
Y031445D01*
X053499D01*
X053375Y031745D01*
X053075Y031869D01*
D02*
G37*
G36*
X040275Y031899D02*
X039975Y031775D01*
X039851Y031475D01*
X040275D01*
Y031899D01*
D02*
G37*
G36*
X040625D02*
Y031475D01*
X041049D01*
X040925Y031775D01*
X040625Y031899D01*
D02*
G37*
G36*
X052725Y031869D02*
X052425Y031745D01*
X052301Y031445D01*
X052725D01*
Y031869D01*
D02*
G37*
G36*
X053499Y031095D02*
X053075D01*
Y030671D01*
X053375Y030795D01*
X053499Y031095D01*
D02*
G37*
G36*
X040275Y031125D02*
X039851D01*
X039975Y030825D01*
X040275Y030701D01*
Y031125D01*
D02*
G37*
G36*
X041049D02*
X040625D01*
Y030701D01*
X040925Y030825D01*
X041049Y031125D01*
D02*
G37*
G36*
X093793Y034536D02*
X092845D01*
X092898Y034408D01*
X092975Y034376D01*
X092898Y034344D01*
X092773Y034041D01*
X092898Y033739D01*
X092936Y033723D01*
Y033046D01*
X092835Y033005D01*
X092638Y032530D01*
X092835Y032055D01*
X093309Y031859D01*
X093784Y032055D01*
X093980Y032530D01*
X093784Y033005D01*
X093683Y033046D01*
Y033715D01*
X093740Y033739D01*
X093866Y034041D01*
X093740Y034344D01*
X093663Y034376D01*
X093740Y034408D01*
X093793Y034536D01*
D02*
G37*
G36*
X089224Y032745D02*
X088909D01*
X089001Y032522D01*
X089224Y032430D01*
Y032745D01*
D02*
G37*
G36*
X089890D02*
X089574D01*
Y032430D01*
X089797Y032522D01*
X089890Y032745D01*
D02*
G37*
G36*
X052725Y033069D02*
X052425Y032945D01*
X052301Y032645D01*
X052725D01*
Y033069D01*
D02*
G37*
G36*
X041049Y032325D02*
X040625D01*
Y031901D01*
X040925Y032025D01*
X041049Y032325D01*
D02*
G37*
G36*
X052725Y032295D02*
X052301D01*
X052425Y031995D01*
X052725Y031871D01*
Y032295D01*
D02*
G37*
G36*
X053499D02*
X053075D01*
Y031871D01*
X053375Y031995D01*
X053499Y032295D01*
D02*
G37*
G36*
X040275Y032325D02*
X039851D01*
X039975Y032025D01*
X040275Y031901D01*
Y032325D01*
D02*
G37*
G36*
X052725Y031095D02*
X052301D01*
X052425Y030795D01*
X052725Y030671D01*
Y031095D01*
D02*
G37*
G36*
X065330Y028020D02*
X064892Y027838D01*
X064710Y027400D01*
X064892Y026962D01*
X065330Y026780D01*
X065729Y026945D01*
X066932D01*
X069955Y023922D01*
Y023735D01*
X070275D01*
X070370Y023695D01*
X070465Y023735D01*
X070785D01*
Y024055D01*
X070825Y024150D01*
X070785Y024245D01*
Y024565D01*
X070598D01*
X067441Y027721D01*
X067120Y027855D01*
X065729D01*
X065330Y028020D01*
D02*
G37*
G36*
X056270Y060021D02*
X055795Y059825D01*
X055599Y059350D01*
X055795Y058875D01*
X055897Y058834D01*
Y033813D01*
X056006Y033549D01*
X064990Y024565D01*
X064775D01*
Y024325D01*
X065015D01*
Y024540D01*
X065225Y024330D01*
X065151Y024150D01*
X065282Y023832D01*
X065600Y023701D01*
X065918Y023832D01*
X066049Y024150D01*
X065973Y024334D01*
Y024483D01*
X065864Y024747D01*
X056643Y033968D01*
Y058834D01*
X056745Y058875D01*
X056941Y059350D01*
X056745Y059825D01*
X056270Y060021D01*
D02*
G37*
G36*
X071330Y028020D02*
X070892Y027838D01*
X070710Y027400D01*
X070875Y027001D01*
Y024190D01*
X071009Y023869D01*
X071043Y023854D01*
X071052Y023832D01*
X071370Y023701D01*
X071688Y023832D01*
X071819Y024150D01*
X071785Y024234D01*
Y027001D01*
X071950Y027400D01*
X071768Y027838D01*
X071330Y028020D01*
D02*
G37*
G36*
X097000Y023483D02*
X095951Y023049D01*
X095517Y022000D01*
X095951Y020951D01*
X097000Y020517D01*
X098049Y020951D01*
X098483Y022000D01*
X098049Y023049D01*
X097000Y023483D01*
D02*
G37*
G36*
X093170Y021186D02*
X088690D01*
Y020321D01*
X093170D01*
Y021186D01*
D02*
G37*
G36*
X032000Y023483D02*
X030951Y023049D01*
X030517Y022000D01*
X030951Y020951D01*
X032000Y020517D01*
X033049Y020951D01*
X033483Y022000D01*
X033049Y023049D01*
X032000Y023483D01*
D02*
G37*
G36*
X057000D02*
X055951Y023049D01*
X055517Y022000D01*
X055951Y020951D01*
X057000Y020517D01*
X058049Y020951D01*
X058483Y022000D01*
X058049Y023049D01*
X057000Y023483D01*
D02*
G37*
G36*
X064425Y023975D02*
X064185D01*
Y023735D01*
X064425D01*
Y023975D01*
D02*
G37*
G36*
X093194Y027459D02*
X093029Y027391D01*
X092960Y027225D01*
X093194D01*
Y027459D01*
D02*
G37*
G36*
X093544D02*
Y027225D01*
X093778D01*
X093710Y027391D01*
X093544Y027459D01*
D02*
G37*
G36*
X079879Y033221D02*
X079405Y033025D01*
X079208Y032550D01*
X079405Y032075D01*
X079425Y032067D01*
Y031183D01*
X079405Y031175D01*
X079208Y030700D01*
X079405Y030225D01*
X079879Y030029D01*
X080354Y030225D01*
X080550Y030700D01*
X080354Y031175D01*
X080334Y031183D01*
Y032067D01*
X080354Y032075D01*
X080550Y032550D01*
X080354Y033025D01*
X079879Y033221D01*
D02*
G37*
G36*
X093778Y026875D02*
X093544D01*
Y026641D01*
X093710Y026709D01*
X093778Y026875D01*
D02*
G37*
G36*
X065015Y023975D02*
X064775D01*
Y023735D01*
X065015D01*
Y023975D01*
D02*
G37*
G36*
X064425Y024565D02*
X064185D01*
Y024325D01*
X064425D01*
Y024565D01*
D02*
G37*
G36*
X093194Y026875D02*
X092960D01*
X093029Y026709D01*
X093194Y026641D01*
Y026875D01*
D02*
G37*
G36*
X053075Y033069D02*
Y032645D01*
X053499D01*
X053375Y032945D01*
X053075Y033069D01*
D02*
G37*
G36*
X090130Y038885D02*
X089814D01*
Y038570D01*
X090037Y038662D01*
X090130Y038885D01*
D02*
G37*
G36*
X087889Y039981D02*
X087415Y039785D01*
X087218Y039310D01*
X087415Y038835D01*
X087889Y038639D01*
X088364Y038835D01*
X088560Y039310D01*
X088364Y039785D01*
X087889Y039981D01*
D02*
G37*
G36*
X037522Y039175D02*
X037098D01*
X037222Y038875D01*
X037522Y038751D01*
Y039175D01*
D02*
G37*
G36*
X089464Y038885D02*
X089149D01*
X089241Y038662D01*
X089464Y038570D01*
Y038885D01*
D02*
G37*
G36*
X032565Y038649D02*
Y038225D01*
X032989D01*
X032865Y038525D01*
X032565Y038649D01*
D02*
G37*
G36*
X052135D02*
X051835Y038525D01*
X051711Y038225D01*
X052135D01*
Y038649D01*
D02*
G37*
G36*
X052485D02*
Y038225D01*
X052909D01*
X052785Y038525D01*
X052485Y038649D01*
D02*
G37*
G36*
X038295Y039175D02*
X037872D01*
Y038751D01*
X038171Y038875D01*
X038295Y039175D01*
D02*
G37*
G36*
X061525Y039225D02*
X061101D01*
X061225Y038925D01*
X061525Y038801D01*
Y039225D01*
D02*
G37*
G36*
X062299D02*
X061875D01*
Y038801D01*
X062175Y038925D01*
X062299Y039225D01*
D02*
G37*
G36*
X089464Y039550D02*
X089241Y039458D01*
X089149Y039235D01*
X089464D01*
Y039550D01*
D02*
G37*
G36*
X060799Y039225D02*
X060375D01*
Y038801D01*
X060675Y038925D01*
X060799Y039225D01*
D02*
G37*
G36*
X046828Y039175D02*
X046405D01*
X046529Y038875D01*
X046828Y038751D01*
Y039175D01*
D02*
G37*
G36*
X047602D02*
X047178D01*
Y038751D01*
X047478Y038875D01*
X047602Y039175D01*
D02*
G37*
G36*
X060025Y039225D02*
X059601D01*
X059725Y038925D01*
X060025Y038801D01*
Y039225D01*
D02*
G37*
G36*
X032215Y038649D02*
X031915Y038525D01*
X031791Y038225D01*
X032215D01*
Y038649D01*
D02*
G37*
G36*
X060200Y036071D02*
X059725Y035875D01*
X059529Y035400D01*
X059725Y034925D01*
X060200Y034729D01*
X060675Y034925D01*
X060871Y035400D01*
X060675Y035875D01*
X060200Y036071D01*
D02*
G37*
G36*
X061700D02*
X061225Y035875D01*
X061029Y035400D01*
X061225Y034925D01*
X061700Y034729D01*
X062175Y034925D01*
X062183Y034945D01*
X064931D01*
X065330Y034780D01*
X065768Y034962D01*
X065950Y035400D01*
X065768Y035838D01*
X065330Y036020D01*
X064931Y035855D01*
X062183D01*
X062175Y035875D01*
X061700Y036071D01*
D02*
G37*
G36*
X089244Y035205D02*
X088929D01*
X089021Y034982D01*
X089244Y034890D01*
Y035205D01*
D02*
G37*
G36*
X089574Y033410D02*
Y033095D01*
X089890D01*
X089797Y033318D01*
X089574Y033410D01*
D02*
G37*
G36*
X040275Y033099D02*
X039975Y032975D01*
X039851Y032675D01*
X040275D01*
Y033099D01*
D02*
G37*
G36*
X040625D02*
Y032675D01*
X041049D01*
X040925Y032975D01*
X040625Y033099D01*
D02*
G37*
G36*
X089224Y033410D02*
X089001Y033318D01*
X088909Y033095D01*
X089224D01*
Y033410D01*
D02*
G37*
G36*
X089910Y035205D02*
X089594D01*
Y034890D01*
X089817Y034982D01*
X089910Y035205D01*
D02*
G37*
G36*
X032989Y037875D02*
X032565D01*
Y037451D01*
X032865Y037575D01*
X032989Y037875D01*
D02*
G37*
G36*
X052135D02*
X051711D01*
X051835Y037575D01*
X052135Y037451D01*
Y037875D01*
D02*
G37*
G36*
X052909D02*
X052485D01*
Y037451D01*
X052785Y037575D01*
X052909Y037875D01*
D02*
G37*
G36*
X032215D02*
X031791D01*
X031915Y037575D01*
X032215Y037451D01*
Y037875D01*
D02*
G37*
G36*
X089244Y035870D02*
X089021Y035778D01*
X088929Y035555D01*
X089244D01*
Y035870D01*
D02*
G37*
G36*
X089594D02*
Y035555D01*
X089910D01*
X089817Y035778D01*
X089594Y035870D01*
D02*
G37*
G36*
X089409Y037283D02*
X089011Y037118D01*
X088846Y036720D01*
X088857Y036695D01*
X088068Y035907D01*
X087889Y035981D01*
X087415Y035785D01*
X087218Y035310D01*
X087415Y034835D01*
X087889Y034639D01*
X088364Y034835D01*
X088560Y035310D01*
X088551Y035333D01*
X089385Y036167D01*
X089409Y036157D01*
X089807Y036322D01*
X089972Y036720D01*
X089807Y037118D01*
X089409Y037283D01*
D02*
G37*
G36*
X093125Y058815D02*
X092901D01*
X092967Y058657D01*
X093125Y058592D01*
Y058815D01*
D02*
G37*
G36*
X093698D02*
X093475D01*
Y058592D01*
X093632Y058657D01*
X093698Y058815D01*
D02*
G37*
G36*
X093125Y059388D02*
X092967Y059323D01*
X092901Y059165D01*
X093125D01*
Y059388D01*
D02*
G37*
G36*
X091399Y058611D02*
X090949Y058425D01*
X090011D01*
X089749Y058533D01*
X089351Y058368D01*
X089186Y057970D01*
X089295Y057709D01*
Y055451D01*
X089243Y055327D01*
X088561Y054645D01*
X087791D01*
X087749Y054627D01*
X087707Y054645D01*
X080329D01*
X080305Y054655D01*
X078190D01*
X077869Y054521D01*
X074202Y050855D01*
X072588D01*
X066781Y056661D01*
X066460Y056795D01*
X062220D01*
X061899Y056661D01*
X061765Y056340D01*
X061899Y056019D01*
X062220Y055885D01*
X066272D01*
X072079Y050079D01*
X072400Y049945D01*
X074390D01*
X074711Y050079D01*
X078378Y053745D01*
X079787D01*
X079375Y053575D01*
X079178Y053100D01*
X079375Y052625D01*
X079395Y052617D01*
Y051652D01*
X079228Y051250D01*
X079425Y050775D01*
X079899Y050579D01*
X080374Y050775D01*
X080570Y051250D01*
X080374Y051725D01*
X080304Y051753D01*
Y052617D01*
X080324Y052625D01*
X080520Y053100D01*
X080324Y053575D01*
X079911Y053745D01*
X080291D01*
X080315Y053735D01*
X088749D01*
X089071Y053869D01*
X089886Y054684D01*
X090147Y054792D01*
X090186Y054885D01*
X090240D01*
X090264Y054895D01*
X090289D01*
X090308Y054913D01*
X090331Y054923D01*
X090341Y054947D01*
X090360Y054965D01*
X090399Y055060D01*
X090500D01*
X090591Y055098D01*
X093009Y057515D01*
X093280D01*
X093294Y057521D01*
X093300Y057519D01*
X093632Y057657D01*
X093770Y057990D01*
X093632Y058323D01*
X093300Y058461D01*
X093212Y058425D01*
X091849D01*
X091399Y058611D01*
D02*
G37*
G36*
X087574Y058460D02*
X087351Y058368D01*
X087259Y058145D01*
X087574D01*
Y058460D01*
D02*
G37*
G36*
X087924D02*
Y058145D01*
X088240D01*
X088147Y058368D01*
X087924Y058460D01*
D02*
G37*
G36*
X037210Y058561D02*
X036735Y058365D01*
X036727Y058345D01*
X036393D01*
X036385Y058365D01*
X035910Y058561D01*
X035435Y058365D01*
X035239Y057890D01*
X035435Y057415D01*
X035859Y057240D01*
X035435Y057065D01*
X035239Y056590D01*
X035435Y056115D01*
X035910Y055919D01*
X036385Y056115D01*
X036393Y056135D01*
X036727D01*
X036735Y056115D01*
X037210Y055919D01*
X037685Y056115D01*
X037693Y056135D01*
X038963D01*
X039200Y056037D01*
X039534Y056175D01*
X042640D01*
X042961Y056309D01*
X043095Y056630D01*
X042961Y056951D01*
X042640Y057085D01*
X039389D01*
X039200Y057163D01*
X038915Y057045D01*
X037693D01*
X037685Y057065D01*
X037261Y057240D01*
X037685Y057415D01*
X037693Y057435D01*
X038963D01*
X039200Y057337D01*
X039461Y057445D01*
X040662D01*
X040799Y057309D01*
X041120Y057175D01*
X042640D01*
X042961Y057309D01*
X043095Y057630D01*
X042961Y057951D01*
X042640Y058085D01*
X041308D01*
X041171Y058221D01*
X040850Y058355D01*
X039461D01*
X039200Y058463D01*
X038915Y058345D01*
X037693D01*
X037685Y058365D01*
X037210Y058561D01*
D02*
G37*
G36*
X093475Y059388D02*
Y059165D01*
X093698D01*
X093632Y059323D01*
X093475Y059388D01*
D02*
G37*
G36*
X087924Y060480D02*
Y060165D01*
X088240D01*
X088147Y060388D01*
X087924Y060480D01*
D02*
G37*
G36*
X039025Y061225D02*
X038710D01*
X038802Y061002D01*
X039025Y060910D01*
Y061225D01*
D02*
G37*
G36*
X039690D02*
X039375D01*
Y060910D01*
X039598Y061002D01*
X039690Y061225D01*
D02*
G37*
G36*
X087574Y060480D02*
X087351Y060388D01*
X087259Y060165D01*
X087574D01*
Y060480D01*
D02*
G37*
G36*
Y059815D02*
X087259D01*
X087351Y059592D01*
X087574Y059500D01*
Y059815D01*
D02*
G37*
G36*
X088240D02*
X087924D01*
Y059500D01*
X088147Y059592D01*
X088240Y059815D01*
D02*
G37*
G36*
X042640Y060085D02*
X041860D01*
X041539Y059951D01*
X041440Y059853D01*
X041420Y059861D01*
X040945Y059665D01*
X040749Y059190D01*
X040945Y058715D01*
X041420Y058519D01*
X041895Y058715D01*
X042085Y059175D01*
X042640D01*
X042961Y059309D01*
X043095Y059630D01*
X042961Y059951D01*
X042640Y060085D01*
D02*
G37*
G36*
X059776Y056165D02*
X059515D01*
Y055904D01*
X059565D01*
X059714Y055966D01*
X059776Y056115D01*
Y056165D01*
D02*
G37*
G36*
X048895Y056370D02*
X048672Y056278D01*
X048580Y056055D01*
X048895D01*
Y056370D01*
D02*
G37*
G36*
X049245D02*
Y056055D01*
X049560D01*
X049468Y056278D01*
X049245Y056370D01*
D02*
G37*
G36*
X059165Y056165D02*
X058904D01*
Y056115D01*
X058966Y055966D01*
X059115Y055904D01*
X059165D01*
Y056165D01*
D02*
G37*
G36*
X050885Y055989D02*
X050585Y055865D01*
X050461Y055565D01*
X050885D01*
Y055989D01*
D02*
G37*
G36*
X051235D02*
Y055565D01*
X051659D01*
X051535Y055865D01*
X051235Y055989D01*
D02*
G37*
G36*
X042640Y056085D02*
X041860D01*
X041539Y055951D01*
X041440Y055853D01*
X041420Y055861D01*
X040945Y055665D01*
X040821Y055364D01*
X039063Y053606D01*
X038802Y053498D01*
X038694Y053237D01*
X038502Y053045D01*
X037693D01*
X037685Y053065D01*
X037210Y053261D01*
X036735Y053065D01*
X036560Y052641D01*
X036560Y052641D01*
X036539Y052590D01*
X036560Y052539D01*
X036560Y052539D01*
X036735Y052115D01*
X037210Y051919D01*
X037685Y052115D01*
X037693Y052135D01*
X038690D01*
X039011Y052269D01*
X039337Y052594D01*
X039598Y052702D01*
X039706Y052963D01*
X041308Y054565D01*
X041420Y054519D01*
X041895Y054715D01*
X042085Y055175D01*
X042640D01*
X042961Y055309D01*
X043095Y055630D01*
X042961Y055951D01*
X042640Y056085D01*
D02*
G37*
G36*
X059165Y056776D02*
X059115D01*
X058966Y056714D01*
X058904Y056565D01*
Y056515D01*
X059165D01*
Y056776D01*
D02*
G37*
G36*
X087574Y057795D02*
X087259D01*
X087351Y057572D01*
X087574Y057480D01*
Y057795D01*
D02*
G37*
G36*
X088240D02*
X087924D01*
Y057480D01*
X088147Y057572D01*
X088240Y057795D01*
D02*
G37*
G36*
X054500Y058455D02*
X054179Y058321D01*
X054045Y058000D01*
X054179Y057679D01*
X054500Y057545D01*
X054821Y057679D01*
X054955Y058000D01*
X054821Y058321D01*
X054500Y058455D01*
D02*
G37*
G36*
X079849Y060621D02*
X079375Y060425D01*
X079178Y059950D01*
X079375Y059475D01*
X079395Y059467D01*
Y058583D01*
X079375Y058575D01*
X079178Y058100D01*
X079375Y057625D01*
X079849Y057429D01*
X080324Y057625D01*
X080520Y058100D01*
X080324Y058575D01*
X080304Y058583D01*
Y059467D01*
X080324Y059475D01*
X080520Y059950D01*
X080324Y060425D01*
X079849Y060621D01*
D02*
G37*
G36*
X059565Y056776D02*
X059515D01*
Y056515D01*
X059776D01*
Y056565D01*
X059714Y056714D01*
X059565Y056776D01*
D02*
G37*
G36*
X054500Y057455D02*
X054179Y057321D01*
X054045Y057000D01*
X054179Y056679D01*
X054500Y056545D01*
X054821Y056679D01*
X054955Y057000D01*
X054821Y057321D01*
X054500Y057455D01*
D02*
G37*
G36*
X046620Y058301D02*
X046145Y058105D01*
X046137Y058085D01*
X045640D01*
X045319Y057951D01*
X045185Y057630D01*
X045319Y057309D01*
X045640Y057175D01*
X046137D01*
X046145Y057155D01*
X046620Y056959D01*
X047095Y057155D01*
X047291Y057630D01*
X047095Y058105D01*
X046620Y058301D01*
D02*
G37*
G36*
X087184Y064355D02*
X086950D01*
X087019Y064189D01*
X087184Y064121D01*
Y064355D01*
D02*
G37*
G36*
X087768D02*
X087534D01*
Y064121D01*
X087700Y064189D01*
X087768Y064355D01*
D02*
G37*
G36*
X093164Y064705D02*
X092924D01*
Y064465D01*
X093164D01*
Y064705D01*
D02*
G37*
G36*
X052959Y064515D02*
X052535D01*
Y064091D01*
X052835Y064215D01*
X052959Y064515D01*
D02*
G37*
G36*
X093164Y064115D02*
X092924D01*
Y063875D01*
X093164D01*
Y064115D01*
D02*
G37*
G36*
X093755D02*
X093514D01*
Y063875D01*
X093755D01*
Y064115D01*
D02*
G37*
G36*
X052185Y064515D02*
X051761D01*
X051885Y064215D01*
X052185Y064091D01*
Y064515D01*
D02*
G37*
G36*
X093755Y064705D02*
X093514D01*
Y064465D01*
X093755D01*
Y064705D01*
D02*
G37*
G36*
X052535Y065289D02*
Y064865D01*
X052959D01*
X052835Y065165D01*
X052535Y065289D01*
D02*
G37*
G36*
X032000Y068483D02*
X030951Y068049D01*
X030517Y067000D01*
X030951Y065951D01*
X032000Y065517D01*
X033049Y065951D01*
X033483Y067000D01*
X033049Y068049D01*
X032000Y068483D01*
D02*
G37*
G36*
X097000D02*
X095951Y068049D01*
X095517Y067000D01*
X095951Y065951D01*
X097000Y065517D01*
X098049Y065951D01*
X098483Y067000D01*
X098049Y068049D01*
X097000Y068483D01*
D02*
G37*
G36*
X052185Y065289D02*
X051885Y065165D01*
X051761Y064865D01*
X052185D01*
Y065289D01*
D02*
G37*
G36*
X051060Y065361D02*
X050585Y065165D01*
X050577Y065145D01*
X049580D01*
X049259Y065011D01*
X048933Y064686D01*
X048672Y064578D01*
X048507Y064180D01*
X048513Y064166D01*
X046640Y062293D01*
X046620Y062301D01*
X046145Y062105D01*
X046137Y062085D01*
X045640D01*
X045319Y061951D01*
X045185Y061630D01*
X045319Y061309D01*
X045640Y061175D01*
X046137D01*
X046145Y061155D01*
X046558Y060985D01*
X045881D01*
X045640Y061085D01*
X045319Y060951D01*
X045185Y060630D01*
X045319Y060309D01*
X045419Y060209D01*
X045513Y060170D01*
X045718Y060085D01*
X045640D01*
X045319Y059951D01*
X045185Y059630D01*
X045319Y059309D01*
X045640Y059175D01*
X048592D01*
X048672Y058982D01*
X049070Y058817D01*
X049331Y058925D01*
X050581D01*
X050585Y058915D01*
X051060Y058719D01*
X051535Y058915D01*
X051543Y058935D01*
X051771D01*
X051795Y058875D01*
X052270Y058679D01*
X052745Y058875D01*
X052941Y059350D01*
X052745Y059825D01*
X052270Y060021D01*
X051844Y059845D01*
X051543D01*
X051535Y059865D01*
X051111Y060040D01*
X051535Y060215D01*
X051543Y060235D01*
X051877D01*
X051885Y060215D01*
X052360Y060019D01*
X052835Y060215D01*
X053031Y060690D01*
X052835Y061165D01*
X052360Y061361D01*
X051885Y061165D01*
X051877Y061145D01*
X051543D01*
X051535Y061165D01*
X051060Y061361D01*
X050585Y061165D01*
X050577Y061145D01*
X049307D01*
X049070Y061243D01*
X048672Y061078D01*
X048633Y060985D01*
X046682D01*
X047095Y061155D01*
X047291Y061630D01*
X047283Y061650D01*
X049377Y063744D01*
X049468Y063782D01*
X049576Y064043D01*
X049768Y064235D01*
X050577D01*
X050585Y064215D01*
X051060Y064019D01*
X051535Y064215D01*
X051710Y064639D01*
X051710Y064639D01*
X051731Y064690D01*
X051710Y064741D01*
X051710Y064741D01*
X051535Y065165D01*
X051060Y065361D01*
D02*
G37*
G36*
X087184Y064939D02*
X087019Y064871D01*
X086950Y064705D01*
X087184D01*
Y064939D01*
D02*
G37*
G36*
X087534D02*
Y064705D01*
X087768D01*
X087700Y064871D01*
X087534Y064939D01*
D02*
G37*
G36*
X039025Y061890D02*
X038802Y061798D01*
X038710Y061575D01*
X039025D01*
Y061890D01*
D02*
G37*
G36*
X039375D02*
Y061575D01*
X039690D01*
X039598Y061798D01*
X039375Y061890D01*
D02*
G37*
G36*
X037035Y062489D02*
X036735Y062365D01*
X036611Y062065D01*
X037035D01*
Y062489D01*
D02*
G37*
G36*
X087359Y064012D02*
X087019Y063871D01*
X086878Y063530D01*
X086905Y063465D01*
Y062714D01*
X086785Y062665D01*
X086588Y062190D01*
X086785Y061715D01*
X087259Y061519D01*
X087734Y061715D01*
X087930Y062190D01*
X087814Y062471D01*
Y063465D01*
X087841Y063530D01*
X087700Y063871D01*
X087359Y064012D01*
D02*
G37*
G36*
X041800Y065973D02*
X038280D01*
X038016Y065864D01*
X037311Y065159D01*
X037210Y065201D01*
X036735Y065005D01*
X036539Y064530D01*
X036735Y064055D01*
X037159Y063880D01*
X037159Y063880D01*
X037210Y063859D01*
X037261Y063880D01*
X037261Y063880D01*
X037685Y064055D01*
X037881Y064530D01*
X037839Y064631D01*
X038435Y065227D01*
X041645D01*
X042267Y064605D01*
Y062045D01*
X042225D01*
Y061249D01*
X041665Y061809D01*
Y062747D01*
X041685Y062755D01*
X041881Y063230D01*
X041685Y063705D01*
X041665Y063713D01*
Y064047D01*
X041685Y064055D01*
X041881Y064530D01*
X041685Y065005D01*
X041210Y065201D01*
X040735Y065005D01*
X040539Y064530D01*
X040735Y064055D01*
X040755Y064047D01*
Y063713D01*
X040735Y063705D01*
X040539Y063230D01*
X040735Y062755D01*
X040755Y062747D01*
Y061621D01*
X040889Y061299D01*
X041879Y060309D01*
X042201Y060175D01*
X042640D01*
X042961Y060309D01*
X043095Y060630D01*
X042961Y060951D01*
X042640Y061085D01*
X042389D01*
X042259Y061215D01*
X043055D01*
Y062045D01*
X043013D01*
Y064760D01*
X042936Y064947D01*
X042904Y065024D01*
X042064Y065864D01*
X041800Y065973D01*
D02*
G37*
G36*
X037035Y061715D02*
X036611D01*
X036735Y061415D01*
X037035Y061291D01*
Y061715D01*
D02*
G37*
G36*
X037809D02*
X037385D01*
Y061291D01*
X037685Y061415D01*
X037809Y061715D01*
D02*
G37*
G36*
X037385Y062489D02*
Y062065D01*
X037809D01*
X037685Y062365D01*
X037385Y062489D01*
D02*
G37*
G36*
X037035Y063829D02*
X036735Y063705D01*
X036611Y063405D01*
X037035D01*
Y063829D01*
D02*
G37*
G36*
X037385D02*
Y063405D01*
X037809D01*
X037685Y063705D01*
X037385Y063829D01*
D02*
G37*
G36*
X035875Y063717D02*
Y063425D01*
X036043D01*
Y063447D01*
X035943Y063689D01*
X035875Y063717D01*
D02*
G37*
G36*
X036043Y063075D02*
X035875D01*
Y062783D01*
X035943Y062811D01*
X036043Y063053D01*
Y063075D01*
D02*
G37*
G36*
X037035Y063055D02*
X036611D01*
X036735Y062755D01*
X037035Y062631D01*
Y063055D01*
D02*
G37*
G36*
X037809D02*
X037385D01*
Y062631D01*
X037685Y062755D01*
X037809Y063055D01*
D02*
G37*
G36*
X093339Y063745D02*
X093018Y063611D01*
X093001Y063595D01*
X092962D01*
X092938Y063585D01*
X092913D01*
X092894Y063567D01*
X092870Y063557D01*
X092861Y063533D01*
X092842Y063515D01*
X092803Y063420D01*
X092359D01*
X092267Y063382D01*
X091642Y062756D01*
X091632Y062733D01*
X091614Y062714D01*
D01*
X091259Y062861D01*
X090785Y062665D01*
X090588Y062190D01*
X090785Y061715D01*
X090805Y061707D01*
Y060275D01*
X090686Y059990D01*
X090851Y059592D01*
X091249Y059427D01*
X091535Y059545D01*
X093275D01*
X093300Y059535D01*
X093347Y059555D01*
X093735D01*
Y059943D01*
X093754Y059990D01*
Y063194D01*
X093794Y063290D01*
X093661Y063611D01*
X093339Y063745D01*
D02*
G37*
G36*
X054500Y056455D02*
X054179Y056321D01*
X054045Y056000D01*
X054179Y055679D01*
X054500Y055545D01*
X054821Y055679D01*
X054955Y056000D01*
X054821Y056321D01*
X054500Y056455D01*
D02*
G37*
G36*
X052135Y051629D02*
X051835Y051505D01*
X051711Y051205D01*
X052135D01*
Y051629D01*
D02*
G37*
G36*
X048310Y051701D02*
X047835Y051505D01*
X047657Y051073D01*
X047478Y051505D01*
X047003Y051701D01*
X046529Y051505D01*
X046332Y051030D01*
X046529Y050555D01*
X046952Y050380D01*
X046952Y050380D01*
X047003Y050359D01*
X047054Y050380D01*
X047054Y050380D01*
X047478Y050555D01*
X047657Y050987D01*
X047835Y050555D01*
X047855Y050547D01*
Y050213D01*
X047835Y050205D01*
X047657Y049773D01*
X047657Y049773D01*
X047639Y049730D01*
X047657Y049687D01*
X047657Y049687D01*
X047835Y049255D01*
X047855Y049247D01*
Y048017D01*
X047814Y047917D01*
X047132Y047235D01*
X046699D01*
X046657Y047217D01*
X046614Y047235D01*
X046431D01*
X046398Y047268D01*
X046230Y047337D01*
X046076Y047401D01*
X044626D01*
X044305Y047268D01*
X044019Y046981D01*
X043885Y046660D01*
Y046040D01*
X044019Y045719D01*
X044340Y045585D01*
X044661Y045719D01*
X044795Y046040D01*
Y046472D01*
X044815Y046492D01*
X045888D01*
X045921Y046459D01*
X046085Y046390D01*
X046235Y046328D01*
X045670D01*
X045658Y046358D01*
X045340Y046489D01*
X045022Y046358D01*
X044891Y046040D01*
X045022Y045722D01*
X045340Y045591D01*
X045372Y045604D01*
X045425Y045582D01*
X049995D01*
X050259Y045691D01*
X051795Y047227D01*
X051820Y047217D01*
X052218Y047382D01*
X052383Y047780D01*
X052373Y047805D01*
X052574Y048006D01*
X052683Y048270D01*
Y049214D01*
X052785Y049255D01*
X052981Y049730D01*
X052785Y050205D01*
X052361Y050380D01*
X052361Y050380D01*
X052310Y050401D01*
X052259Y050380D01*
X052259Y050380D01*
X051835Y050205D01*
X051639Y049730D01*
X051835Y049255D01*
X051937Y049214D01*
Y048425D01*
X051845Y048333D01*
X051820Y048343D01*
X051422Y048178D01*
X051257Y047780D01*
X051267Y047755D01*
X049840Y046328D01*
X047327D01*
X047641Y046459D01*
X048457Y047274D01*
X048718Y047382D01*
X048883Y047780D01*
X048765Y048065D01*
Y049247D01*
X048785Y049255D01*
X048981Y049730D01*
X048785Y050205D01*
X048765Y050213D01*
Y050547D01*
X048785Y050555D01*
X048981Y051030D01*
X048785Y051505D01*
X048310Y051701D01*
D02*
G37*
G36*
X054500Y052455D02*
X054179Y052321D01*
X054045Y052000D01*
X054179Y051679D01*
X054500Y051545D01*
X054821Y051679D01*
X054955Y052000D01*
X054821Y052321D01*
X054500Y052455D01*
D02*
G37*
G36*
X052485Y051629D02*
Y051205D01*
X052909D01*
X052785Y051505D01*
X052485Y051629D01*
D02*
G37*
G36*
X085644Y050950D02*
X085421Y050858D01*
X085329Y050635D01*
X085644D01*
Y050950D01*
D02*
G37*
G36*
X091584Y050920D02*
Y050605D01*
X091900D01*
X091807Y050828D01*
X091584Y050920D01*
D02*
G37*
G36*
X073500Y051855D02*
X073179Y051721D01*
X073045Y051400D01*
X073179Y051079D01*
X073500Y050945D01*
X073821Y051079D01*
X073955Y051400D01*
X073821Y051721D01*
X073500Y051855D01*
D02*
G37*
G36*
X085994Y050950D02*
Y050635D01*
X086310D01*
X086217Y050858D01*
X085994Y050950D01*
D02*
G37*
G36*
X035735Y053189D02*
X035435Y053065D01*
X035311Y052765D01*
X035735D01*
Y053189D01*
D02*
G37*
G36*
X054500Y053455D02*
X054179Y053321D01*
X054045Y053000D01*
X054179Y052679D01*
X054500Y052545D01*
X054821Y052679D01*
X054955Y053000D01*
X054821Y053321D01*
X054500Y053455D01*
D02*
G37*
G36*
X073500Y053855D02*
X073179Y053721D01*
X073045Y053400D01*
X073179Y053079D01*
X073500Y052945D01*
X073821Y053079D01*
X073955Y053400D01*
X073821Y053721D01*
X073500Y053855D01*
D02*
G37*
G36*
X036085Y053189D02*
Y052765D01*
X036509D01*
X036385Y053065D01*
X036085Y053189D01*
D02*
G37*
G36*
X035735Y052415D02*
X035311D01*
X035435Y052115D01*
X035735Y051991D01*
Y052415D01*
D02*
G37*
G36*
X073500Y052855D02*
X073179Y052721D01*
X073045Y052400D01*
X073179Y052079D01*
X073500Y051945D01*
X073821Y052079D01*
X073955Y052400D01*
X073821Y052721D01*
X073500Y052855D01*
D02*
G37*
G36*
X045640Y057079D02*
X045322Y056948D01*
X045191Y056630D01*
X045322Y056312D01*
X045640Y056181D01*
X045824Y056257D01*
X045955D01*
X046687Y055525D01*
Y054566D01*
X046585Y054525D01*
X046389Y054050D01*
X046585Y053575D01*
X046657Y053546D01*
Y053276D01*
X046555Y053235D01*
X046359Y052760D01*
X046555Y052285D01*
X047030Y052089D01*
X047505Y052285D01*
X047701Y052760D01*
X047505Y053235D01*
X047403Y053276D01*
Y053521D01*
X047535Y053575D01*
X047731Y054050D01*
X047535Y054525D01*
X047433Y054566D01*
Y055680D01*
X047324Y055944D01*
X046374Y056894D01*
X046110Y057003D01*
X045824D01*
X045640Y057079D01*
D02*
G37*
G36*
X036509Y052415D02*
X036085D01*
Y051991D01*
X036385Y052115D01*
X036509Y052415D01*
D02*
G37*
G36*
X091234Y050920D02*
X091011Y050828D01*
X090919Y050605D01*
X091234D01*
Y050920D01*
D02*
G37*
G36*
X073675Y049782D02*
Y049575D01*
X073882D01*
X073821Y049721D01*
X073675Y049782D01*
D02*
G37*
G36*
X073325D02*
X073179Y049721D01*
X073118Y049575D01*
X073325D01*
Y049782D01*
D02*
G37*
G36*
X046828Y050329D02*
X046529Y050205D01*
X046405Y049905D01*
X046828D01*
Y050329D01*
D02*
G37*
G36*
X089319Y053071D02*
X088845Y052875D01*
X088648Y052400D01*
X088845Y051925D01*
X088865Y051917D01*
Y050721D01*
X088756Y050460D01*
X088921Y050062D01*
X089319Y049897D01*
X089717Y050062D01*
X089882Y050460D01*
X089774Y050721D01*
Y051917D01*
X089794Y051925D01*
X089990Y052400D01*
X089794Y052875D01*
X089319Y053071D01*
D02*
G37*
G36*
X046828Y049555D02*
X046405D01*
X046529Y049255D01*
X046828Y049131D01*
Y049555D01*
D02*
G37*
G36*
X073882Y049225D02*
X073675D01*
Y049018D01*
X073821Y049079D01*
X073882Y049225D01*
D02*
G37*
G36*
X054500Y050455D02*
X054179Y050321D01*
X054045Y050000D01*
X054179Y049679D01*
X054500Y049545D01*
X054821Y049679D01*
X054955Y050000D01*
X054821Y050321D01*
X054500Y050455D01*
D02*
G37*
G36*
X047602Y049555D02*
X047178D01*
Y049131D01*
X047478Y049255D01*
X047602Y049555D01*
D02*
G37*
G36*
X052135Y050855D02*
X051711D01*
X051835Y050555D01*
X052135Y050431D01*
Y050855D01*
D02*
G37*
G36*
X086310Y050285D02*
X085994D01*
Y049970D01*
X086217Y050062D01*
X086310Y050285D01*
D02*
G37*
G36*
X054500Y051455D02*
X054179Y051321D01*
X054045Y051000D01*
X054179Y050679D01*
X054500Y050545D01*
X054821Y050679D01*
X054955Y051000D01*
X054821Y051321D01*
X054500Y051455D01*
D02*
G37*
G36*
X052909Y050855D02*
X052485D01*
Y050431D01*
X052785Y050555D01*
X052909Y050855D01*
D02*
G37*
G36*
X091234Y050255D02*
X090919D01*
X091011Y050032D01*
X091234Y049940D01*
Y050255D01*
D02*
G37*
G36*
X047178Y050329D02*
Y049905D01*
X047602D01*
X047478Y050205D01*
X047178Y050329D01*
D02*
G37*
G36*
X085644Y050285D02*
X085329D01*
X085421Y050062D01*
X085644Y049970D01*
Y050285D01*
D02*
G37*
G36*
X091900Y050255D02*
X091584D01*
Y049940D01*
X091807Y050032D01*
X091900Y050255D01*
D02*
G37*
G36*
X045640Y056079D02*
X045322Y055948D01*
X045191Y055630D01*
X045267Y055446D01*
Y054595D01*
X043805Y053133D01*
X043546D01*
X043505Y053235D01*
X043030Y053431D01*
X042555Y053235D01*
X042359Y052760D01*
X042555Y052285D01*
X043030Y052089D01*
X043505Y052285D01*
X043546Y052387D01*
X043960D01*
X044224Y052496D01*
X045904Y054176D01*
X046013Y054440D01*
Y055446D01*
X046089Y055630D01*
X045958Y055948D01*
X045640Y056079D01*
D02*
G37*
G36*
X054500Y055455D02*
X054179Y055321D01*
X054045Y055000D01*
X054179Y054679D01*
X054500Y054545D01*
X054821Y054679D01*
X054955Y055000D01*
X054821Y055321D01*
X054500Y055455D01*
D02*
G37*
G36*
X087574Y055015D02*
X087259D01*
X087351Y054792D01*
X087574Y054700D01*
Y055015D01*
D02*
G37*
G36*
X088240D02*
X087924D01*
Y054700D01*
X088147Y054792D01*
X088240Y055015D01*
D02*
G37*
G36*
X049560Y055705D02*
X049245D01*
Y055390D01*
X049468Y055482D01*
X049560Y055705D01*
D02*
G37*
G36*
X051235Y054649D02*
Y054225D01*
X051659D01*
X051535Y054525D01*
X051235Y054649D01*
D02*
G37*
G36*
X092684Y054765D02*
X092450D01*
X092519Y054599D01*
X092684Y054531D01*
Y054765D01*
D02*
G37*
G36*
X093268D02*
X093034D01*
Y054531D01*
X093200Y054599D01*
X093268Y054765D01*
D02*
G37*
G36*
X048895Y055705D02*
X048580D01*
X048672Y055482D01*
X048895Y055390D01*
Y055705D01*
D02*
G37*
G36*
X059340Y055795D02*
X059019Y055661D01*
X059018Y055659D01*
X058540D01*
X058314Y055566D01*
X057374Y054626D01*
X057281Y054400D01*
Y051200D01*
X057374Y050974D01*
X067793Y040555D01*
X067729Y040400D01*
X067925Y039925D01*
X068400Y039729D01*
X068875Y039925D01*
X068939Y040081D01*
X073178D01*
X073179Y040079D01*
X073500Y039945D01*
X073821Y040079D01*
X073955Y040400D01*
X073821Y040721D01*
X073500Y040855D01*
X073179Y040721D01*
X073178Y040719D01*
X068939D01*
X068875Y040875D01*
X068400Y041071D01*
X068245Y041007D01*
X057919Y051332D01*
Y054268D01*
X058672Y055021D01*
X059018D01*
X059019Y055019D01*
X059340Y054885D01*
X059661Y055019D01*
X059795Y055340D01*
X059661Y055661D01*
X059340Y055795D01*
D02*
G37*
G36*
X050885Y055215D02*
X050461D01*
X050585Y054915D01*
X050885Y054791D01*
Y055215D01*
D02*
G37*
G36*
X051659D02*
X051235D01*
Y054791D01*
X051535Y054915D01*
X051659Y055215D01*
D02*
G37*
G36*
X092684Y055349D02*
X092519Y055281D01*
X092450Y055115D01*
X092684D01*
Y055349D01*
D02*
G37*
G36*
X087924Y055680D02*
Y055365D01*
X088240D01*
X088147Y055588D01*
X087924Y055680D01*
D02*
G37*
G36*
X087574D02*
X087351Y055588D01*
X087259Y055365D01*
X087574D01*
Y055680D01*
D02*
G37*
G36*
X093034Y055349D02*
Y055115D01*
X093268D01*
X093200Y055281D01*
X093034Y055349D01*
D02*
G37*
G36*
X091399Y054611D02*
X090925Y054415D01*
X090728Y053940D01*
X090925Y053465D01*
X091399Y053269D01*
X091874Y053465D01*
X091882Y053485D01*
X092794D01*
X092859Y053458D01*
X093200Y053599D01*
X093341Y053940D01*
X093200Y054281D01*
X092859Y054422D01*
X092794Y054395D01*
X091882D01*
X091874Y054415D01*
X091399Y054611D01*
D02*
G37*
G36*
X051659Y053875D02*
X051235D01*
Y053451D01*
X051535Y053575D01*
X051659Y053875D01*
D02*
G37*
G36*
X062220Y054795D02*
X061899Y054661D01*
X061765Y054340D01*
X061899Y054019D01*
X062220Y053885D01*
X062222Y053886D01*
X062380Y053728D01*
X062220Y053795D01*
X061899Y053661D01*
X061765Y053340D01*
X061899Y053019D01*
X061901Y053018D01*
Y052380D01*
X061994Y052154D01*
X065593Y048555D01*
X065529Y048400D01*
X065725Y047925D01*
X066200Y047729D01*
X066355Y047793D01*
X070974Y043174D01*
X071200Y043081D01*
X073178D01*
X073179Y043079D01*
X073500Y042945D01*
X073821Y043079D01*
X073955Y043400D01*
X073821Y043721D01*
X073500Y043855D01*
X073179Y043721D01*
X073178Y043719D01*
X071332D01*
X066807Y048245D01*
X066871Y048400D01*
X066675Y048875D01*
X066200Y049071D01*
X066045Y049007D01*
X062539Y052512D01*
Y053018D01*
X062541Y053019D01*
X062675Y053340D01*
X062608Y053500D01*
X066582Y049527D01*
X066529Y049400D01*
X066725Y048925D01*
X067200Y048729D01*
X067327Y048781D01*
X071934Y044174D01*
X072160Y044081D01*
X073178D01*
X073179Y044079D01*
X073500Y043945D01*
X073821Y044079D01*
X073955Y044400D01*
X073821Y044721D01*
X073500Y044855D01*
X073179Y044721D01*
X073178Y044719D01*
X072292D01*
X067795Y049216D01*
X067871Y049400D01*
X067675Y049875D01*
X067200Y050071D01*
X067016Y049995D01*
X062674Y054338D01*
X062675Y054340D01*
X062541Y054661D01*
X062220Y054795D01*
D02*
G37*
G36*
X059340D02*
X059019Y054661D01*
X059018Y054659D01*
X058740D01*
X058514Y054566D01*
X058174Y054226D01*
X058081Y054000D01*
Y052400D01*
X058174Y052174D01*
X068793Y041555D01*
X068729Y041400D01*
X068925Y040925D01*
X069400Y040729D01*
X069875Y040925D01*
X069939Y041081D01*
X073178D01*
X073179Y041079D01*
X073500Y040945D01*
X073821Y041079D01*
X073955Y041400D01*
X073821Y041721D01*
X073500Y041855D01*
X073179Y041721D01*
X073178Y041719D01*
X069939D01*
X069875Y041875D01*
X069400Y042071D01*
X069245Y042007D01*
X058719Y052532D01*
Y053868D01*
X058872Y054021D01*
X059018D01*
X059019Y054019D01*
X059340Y053885D01*
X059661Y054019D01*
X059795Y054340D01*
X059661Y054661D01*
X059340Y054795D01*
D02*
G37*
G36*
X050885Y053875D02*
X050461D01*
X050585Y053575D01*
X050885Y053451D01*
Y053875D01*
D02*
G37*
G36*
Y054649D02*
X050585Y054525D01*
X050461Y054225D01*
X050885D01*
Y054649D01*
D02*
G37*
G36*
X073500Y054855D02*
X073179Y054721D01*
X073045Y054400D01*
X073179Y054079D01*
X073500Y053945D01*
X073821Y054079D01*
X073955Y054400D01*
X073821Y054721D01*
X073500Y054855D01*
D02*
G37*
G36*
X054500Y054455D02*
X054179Y054321D01*
X054045Y054000D01*
X054179Y053679D01*
X054500Y053545D01*
X054821Y053679D01*
X054955Y054000D01*
X054821Y054321D01*
X054500Y054455D01*
D02*
G37*
%LPD*%
G36*
X091657Y021015D02*
X091675Y021013D01*
X091691Y021010D01*
X091707Y021008D01*
X091721Y021003D01*
X091734Y020998D01*
X091746Y020993D01*
X091757Y020987D01*
X091765Y020981D01*
X091773Y020976D01*
X091780Y020971D01*
X091786Y020967D01*
X091790Y020964D01*
X091793Y020961D01*
X091795Y020959D01*
X091796Y020958D01*
X091804Y020946D01*
X091812Y020932D01*
X091820Y020918D01*
X091826Y020902D01*
X091835Y020869D01*
X091841Y020835D01*
X091843Y020819D01*
X091844Y020805D01*
X091845Y020791D01*
X091846Y020779D01*
X091847Y020769D01*
Y020763D01*
Y020758D01*
Y020756D01*
Y020734D01*
X091845Y020714D01*
X091844Y020695D01*
X091842Y020680D01*
X091841Y020666D01*
X091840Y020656D01*
X091839Y020652D01*
X091838Y020649D01*
Y020648D01*
Y020647D01*
X091834Y020631D01*
X091829Y020615D01*
X091824Y020602D01*
X091820Y020592D01*
X091816Y020583D01*
X091812Y020576D01*
X091810Y020572D01*
X091809Y020571D01*
X091800Y020558D01*
X091789Y020545D01*
X091778Y020534D01*
X091767Y020526D01*
X091759Y020520D01*
X091752Y020515D01*
X091747Y020512D01*
X091745Y020511D01*
X091729Y020504D01*
X091712Y020499D01*
X091694Y020496D01*
X091678Y020494D01*
X091664Y020492D01*
X091657D01*
X091652Y020491D01*
X091641D01*
X091621Y020492D01*
X091601Y020494D01*
X091584Y020497D01*
X091568Y020501D01*
X091554Y020506D01*
X091540Y020512D01*
X091528Y020517D01*
X091518Y020523D01*
X091509Y020529D01*
X091501Y020534D01*
X091495Y020540D01*
X091489Y020545D01*
X091485Y020549D01*
X091482Y020552D01*
X091481Y020554D01*
X091480Y020555D01*
X091473Y020567D01*
X091465Y020582D01*
X091459Y020598D01*
X091453Y020613D01*
X091445Y020647D01*
X091439Y020680D01*
X091437Y020695D01*
X091435Y020710D01*
X091434Y020723D01*
Y020734D01*
X091434Y020744D01*
Y020751D01*
Y020755D01*
Y020757D01*
X091434Y020780D01*
X091435Y020802D01*
X091438Y020822D01*
X091440Y020840D01*
X091443Y020854D01*
X091444Y020861D01*
X091446Y020866D01*
X091447Y020870D01*
Y020873D01*
X091448Y020875D01*
Y020876D01*
X091451Y020886D01*
X091454Y020896D01*
X091457Y020905D01*
X091461Y020913D01*
X091463Y020919D01*
X091466Y020924D01*
X091467Y020927D01*
X091468Y020927D01*
X091477Y020944D01*
X091483Y020951D01*
X091488Y020958D01*
X091493Y020963D01*
X091496Y020967D01*
X091499Y020969D01*
X091500Y020970D01*
X091508Y020978D01*
X091516Y020984D01*
X091534Y020995D01*
X091542Y020999D01*
X091548Y021002D01*
X091552Y021003D01*
X091554Y021004D01*
X091566Y021008D01*
X091581Y021011D01*
X091595Y021013D01*
X091608Y021014D01*
X091620Y021015D01*
X091629Y021016D01*
X091637D01*
X091657Y021015D01*
D02*
G37*
G36*
X034690Y046390D02*
X036520Y044560D01*
Y044470D01*
X034880D01*
X034870Y044460D01*
X031270Y040860D01*
X030800D01*
Y043120D01*
X034600Y046920D01*
X034690Y046390D01*
D02*
G37*
G36*
X090043Y021015D02*
X090060Y021013D01*
X090077Y021010D01*
X090092Y021008D01*
X090107Y021003D01*
X090120Y020998D01*
X090132Y020993D01*
X090142Y020987D01*
X090151Y020981D01*
X090159Y020976D01*
X090166Y020971D01*
X090172Y020967D01*
X090175Y020964D01*
X090178Y020961D01*
X090180Y020959D01*
X090181Y020958D01*
X090190Y020946D01*
X090198Y020932D01*
X090206Y020918D01*
X090212Y020902D01*
X090220Y020869D01*
X090226Y020835D01*
X090229Y020819D01*
X090230Y020805D01*
X090231Y020791D01*
X090232Y020779D01*
X090233Y020769D01*
Y020763D01*
Y020758D01*
Y020756D01*
Y020734D01*
X090231Y020714D01*
X090230Y020695D01*
X090228Y020680D01*
X090226Y020666D01*
X090225Y020656D01*
X090224Y020652D01*
X090223Y020649D01*
Y020648D01*
Y020647D01*
X090219Y020631D01*
X090215Y020615D01*
X090210Y020602D01*
X090206Y020592D01*
X090202Y020583D01*
X090198Y020576D01*
X090196Y020572D01*
X090195Y020571D01*
X090185Y020558D01*
X090174Y020545D01*
X090164Y020534D01*
X090153Y020526D01*
X090144Y020520D01*
X090137Y020515D01*
X090133Y020512D01*
X090131Y020511D01*
X090115Y020504D01*
X090097Y020499D01*
X090080Y020496D01*
X090064Y020494D01*
X090050Y020492D01*
X090043D01*
X090038Y020491D01*
X090027D01*
X090007Y020492D01*
X089987Y020494D01*
X089970Y020497D01*
X089954Y020501D01*
X089939Y020506D01*
X089926Y020512D01*
X089914Y020517D01*
X089904Y020523D01*
X089894Y020529D01*
X089887Y020534D01*
X089881Y020540D01*
X089875Y020545D01*
X089871Y020549D01*
X089868Y020552D01*
X089867Y020554D01*
X089866Y020555D01*
X089858Y020567D01*
X089850Y020582D01*
X089845Y020598D01*
X089839Y020613D01*
X089831Y020647D01*
X089825Y020680D01*
X089823Y020695D01*
X089821Y020710D01*
X089820Y020723D01*
Y020734D01*
X089819Y020744D01*
Y020751D01*
Y020755D01*
Y020757D01*
X089820Y020780D01*
X089821Y020802D01*
X089824Y020822D01*
X089826Y020840D01*
X089829Y020854D01*
X089830Y020861D01*
X089832Y020866D01*
X089833Y020870D01*
Y020873D01*
X089834Y020875D01*
Y020876D01*
X089837Y020886D01*
X089840Y020896D01*
X089843Y020905D01*
X089847Y020913D01*
X089848Y020919D01*
X089851Y020924D01*
X089852Y020927D01*
X089853Y020927D01*
X089863Y020944D01*
X089869Y020951D01*
X089874Y020958D01*
X089879Y020963D01*
X089882Y020967D01*
X089885Y020969D01*
X089886Y020970D01*
X089893Y020978D01*
X089902Y020984D01*
X089920Y020995D01*
X089928Y020999D01*
X089933Y021002D01*
X089937Y021003D01*
X089939Y021004D01*
X089952Y021008D01*
X089967Y021011D01*
X089980Y021013D01*
X089994Y021014D01*
X090006Y021015D01*
X090014Y021016D01*
X090023D01*
X090043Y021015D01*
D02*
G37*
G36*
X090932Y020491D02*
X090862D01*
X090733Y021016D01*
X090804D01*
X090932Y020491D01*
D02*
G37*
G36*
X092811Y021015D02*
X092833Y021013D01*
X092852Y021010D01*
X092868Y021008D01*
X092881Y021004D01*
X092890Y021001D01*
X092896Y020999D01*
X092898Y020998D01*
X092911Y020991D01*
X092924Y020982D01*
X092935Y020973D01*
X092943Y020966D01*
X092951Y020958D01*
X092956Y020952D01*
X092959Y020948D01*
X092960Y020946D01*
X092968Y020932D01*
X092974Y020918D01*
X092979Y020902D01*
X092982Y020887D01*
X092985Y020874D01*
X092987Y020863D01*
X092988Y020859D01*
X092989Y020856D01*
Y020854D01*
Y020853D01*
X092848Y020843D01*
X092845Y020857D01*
X092842Y020870D01*
X092838Y020881D01*
X092834Y020888D01*
X092831Y020894D01*
X092828Y020899D01*
X092826Y020901D01*
X092825Y020902D01*
X092818Y020908D01*
X092812Y020912D01*
X092804Y020916D01*
X092797Y020918D01*
X092791Y020919D01*
X092786Y020920D01*
X092781D01*
X092772Y020919D01*
X092764Y020917D01*
X092756Y020915D01*
X092750Y020912D01*
X092745Y020908D01*
X092741Y020906D01*
X092739Y020904D01*
X092738Y020903D01*
X092733Y020896D01*
X092729Y020889D01*
X092725Y020884D01*
X092723Y020877D01*
X092722Y020872D01*
X092721Y020867D01*
Y020864D01*
Y020863D01*
X092722Y020855D01*
X092724Y020846D01*
X092727Y020839D01*
X092730Y020832D01*
X092733Y020826D01*
X092736Y020821D01*
X092737Y020818D01*
X092738Y020817D01*
X092742Y020812D01*
X092747Y020807D01*
X092758Y020797D01*
X092772Y020785D01*
X092785Y020774D01*
X092798Y020764D01*
X092809Y020756D01*
X092813Y020753D01*
X092816Y020750D01*
X092817Y020749D01*
X092818Y020748D01*
X092837Y020734D01*
X092854Y020721D01*
X092868Y020708D01*
X092882Y020696D01*
X092895Y020684D01*
X092906Y020674D01*
X092916Y020664D01*
X092925Y020654D01*
X092933Y020646D01*
X092939Y020639D01*
X092944Y020633D01*
X092948Y020627D01*
X092952Y020623D01*
X092954Y020620D01*
X092956Y020618D01*
Y020617D01*
X092969Y020597D01*
X092979Y020576D01*
X092986Y020556D01*
X092992Y020538D01*
X092996Y020522D01*
X092997Y020517D01*
X092998Y020511D01*
X092999Y020506D01*
X093000Y020503D01*
Y020501D01*
Y020500D01*
X092576D01*
Y020615D01*
X092798D01*
X092784Y020628D01*
X092774Y020638D01*
X092770Y020641D01*
X092767Y020643D01*
X092765Y020644D01*
X092764Y020645D01*
X092757Y020650D01*
X092749Y020657D01*
X092730Y020671D01*
X092721Y020677D01*
X092714Y020682D01*
X092709Y020685D01*
X092707Y020686D01*
X092695Y020696D01*
X092682Y020705D01*
X092671Y020714D01*
X092661Y020723D01*
X092644Y020738D01*
X092630Y020752D01*
X092620Y020764D01*
X092613Y020772D01*
X092609Y020777D01*
X092608Y020779D01*
X092599Y020796D01*
X092592Y020811D01*
X092587Y020826D01*
X092583Y020840D01*
X092581Y020851D01*
X092580Y020860D01*
Y020866D01*
Y020867D01*
Y020868D01*
X092581Y020884D01*
X092584Y020899D01*
X092588Y020912D01*
X092592Y020924D01*
X092597Y020933D01*
X092601Y020941D01*
X092604Y020945D01*
X092605Y020947D01*
X092614Y020960D01*
X092625Y020970D01*
X092636Y020979D01*
X092646Y020986D01*
X092655Y020992D01*
X092663Y020996D01*
X092668Y020998D01*
X092669Y020999D01*
X092670D01*
X092687Y021005D01*
X092705Y021009D01*
X092725Y021012D01*
X092743Y021014D01*
X092760Y021015D01*
X092767D01*
X092773Y021016D01*
X092785D01*
X092811Y021015D01*
D02*
G37*
G36*
X090527D02*
X090549Y021013D01*
X090568Y021010D01*
X090584Y021008D01*
X090597Y021004D01*
X090606Y021001D01*
X090612Y020999D01*
X090614Y020998D01*
X090627Y020991D01*
X090640Y020982D01*
X090651Y020973D01*
X090660Y020966D01*
X090667Y020958D01*
X090672Y020952D01*
X090675Y020948D01*
X090676Y020946D01*
X090684Y020932D01*
X090690Y020918D01*
X090695Y020902D01*
X090699Y020887D01*
X090702Y020874D01*
X090703Y020863D01*
X090704Y020859D01*
X090705Y020856D01*
Y020854D01*
Y020853D01*
X090564Y020843D01*
X090561Y020857D01*
X090558Y020870D01*
X090554Y020881D01*
X090550Y020888D01*
X090547Y020894D01*
X090544Y020899D01*
X090542Y020901D01*
X090541Y020902D01*
X090535Y020908D01*
X090528Y020912D01*
X090520Y020916D01*
X090513Y020918D01*
X090507Y020919D01*
X090502Y020920D01*
X090498D01*
X090488Y020919D01*
X090480Y020917D01*
X090472Y020915D01*
X090466Y020912D01*
X090461Y020908D01*
X090458Y020906D01*
X090456Y020904D01*
X090455Y020903D01*
X090449Y020896D01*
X090445Y020889D01*
X090441Y020884D01*
X090439Y020877D01*
X090438Y020872D01*
X090437Y020867D01*
Y020864D01*
Y020863D01*
X090438Y020855D01*
X090440Y020846D01*
X090443Y020839D01*
X090446Y020832D01*
X090449Y020826D01*
X090452Y020821D01*
X090454Y020818D01*
X090455Y020817D01*
X090458Y020812D01*
X090463Y020807D01*
X090474Y020797D01*
X090488Y020785D01*
X090501Y020774D01*
X090514Y020764D01*
X090525Y020756D01*
X090529Y020753D01*
X090532Y020750D01*
X090534Y020749D01*
X090535Y020748D01*
X090553Y020734D01*
X090570Y020721D01*
X090584Y020708D01*
X090598Y020696D01*
X090611Y020684D01*
X090622Y020674D01*
X090632Y020664D01*
X090641Y020654D01*
X090649Y020646D01*
X090656Y020639D01*
X090661Y020633D01*
X090664Y020627D01*
X090668Y020623D01*
X090670Y020620D01*
X090672Y020618D01*
Y020617D01*
X090685Y020597D01*
X090695Y020576D01*
X090702Y020556D01*
X090708Y020538D01*
X090712Y020522D01*
X090713Y020517D01*
X090714Y020511D01*
X090715Y020506D01*
X090716Y020503D01*
Y020501D01*
Y020500D01*
X090293D01*
Y020615D01*
X090514D01*
X090500Y020628D01*
X090490Y020638D01*
X090486Y020641D01*
X090483Y020643D01*
X090481Y020644D01*
X090480Y020645D01*
X090473Y020650D01*
X090465Y020657D01*
X090446Y020671D01*
X090437Y020677D01*
X090430Y020682D01*
X090425Y020685D01*
X090423Y020686D01*
X090411Y020696D01*
X090398Y020705D01*
X090387Y020714D01*
X090377Y020723D01*
X090360Y020738D01*
X090346Y020752D01*
X090337Y020764D01*
X090329Y020772D01*
X090325Y020777D01*
X090324Y020779D01*
X090315Y020796D01*
X090308Y020811D01*
X090303Y020826D01*
X090299Y020840D01*
X090297Y020851D01*
X090296Y020860D01*
Y020866D01*
Y020867D01*
Y020868D01*
X090297Y020884D01*
X090300Y020899D01*
X090304Y020912D01*
X090308Y020924D01*
X090313Y020933D01*
X090317Y020941D01*
X090320Y020945D01*
X090321Y020947D01*
X090331Y020960D01*
X090341Y020970D01*
X090352Y020979D01*
X090362Y020986D01*
X090372Y020992D01*
X090379Y020996D01*
X090384Y020998D01*
X090385Y020999D01*
X090386D01*
X090403Y021005D01*
X090421Y021009D01*
X090441Y021012D01*
X090459Y021014D01*
X090476Y021015D01*
X090483D01*
X090489Y021016D01*
X090501D01*
X090527Y021015D01*
D02*
G37*
G36*
X089567Y020999D02*
X089578Y020983D01*
X089588Y020968D01*
X089599Y020957D01*
X089607Y020947D01*
X089614Y020940D01*
X089619Y020936D01*
X089621Y020934D01*
X089638Y020923D01*
X089655Y020912D01*
X089674Y020903D01*
X089691Y020895D01*
X089708Y020888D01*
X089715Y020886D01*
X089721Y020884D01*
X089726Y020882D01*
X089729Y020881D01*
X089731Y020880D01*
X089732D01*
Y020765D01*
X089715Y020770D01*
X089699Y020775D01*
X089685Y020780D01*
X089674Y020785D01*
X089664Y020789D01*
X089657Y020792D01*
X089652Y020794D01*
X089651Y020795D01*
X089627Y020808D01*
X089616Y020815D01*
X089605Y020822D01*
X089597Y020829D01*
X089590Y020834D01*
X089586Y020837D01*
X089584Y020838D01*
Y020500D01*
X089441D01*
Y021016D01*
X089559D01*
X089567Y020999D01*
D02*
G37*
G36*
X091205Y021015D02*
X091231Y021011D01*
X091244Y021009D01*
X091255Y021006D01*
X091265Y021003D01*
X091273Y021000D01*
X091282Y020996D01*
X091289Y020993D01*
X091295Y020990D01*
X091300Y020988D01*
X091304Y020985D01*
X091307Y020984D01*
X091308Y020982D01*
X091309D01*
X091324Y020968D01*
X091338Y020953D01*
X091349Y020936D01*
X091357Y020921D01*
X091363Y020906D01*
X091368Y020895D01*
X091369Y020890D01*
X091370Y020887D01*
X091371Y020886D01*
Y020885D01*
X091238Y020861D01*
X091236Y020874D01*
X091233Y020885D01*
X091230Y020894D01*
X091227Y020901D01*
X091223Y020906D01*
X091221Y020910D01*
X091219Y020912D01*
X091218Y020913D01*
X091212Y020918D01*
X091205Y020922D01*
X091198Y020925D01*
X091191Y020927D01*
X091187Y020927D01*
X091182Y020928D01*
X091178D01*
X091169Y020927D01*
X091161Y020927D01*
X091155Y020924D01*
X091150Y020922D01*
X091146Y020919D01*
X091143Y020916D01*
X091141Y020915D01*
X091140Y020914D01*
X091135Y020908D01*
X091131Y020902D01*
X091129Y020896D01*
X091127Y020890D01*
X091126Y020885D01*
X091125Y020881D01*
Y020878D01*
Y020877D01*
X091126Y020868D01*
X091128Y020860D01*
X091131Y020853D01*
X091134Y020847D01*
X091138Y020843D01*
X091141Y020839D01*
X091143Y020837D01*
X091144Y020836D01*
X091150Y020830D01*
X091158Y020826D01*
X091166Y020822D01*
X091174Y020820D01*
X091180Y020819D01*
X091185Y020818D01*
X091195D01*
X091201Y020819D01*
X091208D01*
X091215Y020719D01*
X091205Y020722D01*
X091196Y020724D01*
X091189Y020725D01*
X091182Y020726D01*
X091177Y020727D01*
X091170D01*
X091159Y020726D01*
X091149Y020724D01*
X091141Y020722D01*
X091133Y020718D01*
X091128Y020714D01*
X091123Y020711D01*
X091121Y020709D01*
X091120Y020708D01*
X091114Y020700D01*
X091109Y020691D01*
X091107Y020683D01*
X091104Y020674D01*
X091103Y020665D01*
X091102Y020659D01*
Y020655D01*
Y020653D01*
X091103Y020641D01*
X091105Y020630D01*
X091108Y020620D01*
X091111Y020612D01*
X091115Y020606D01*
X091118Y020601D01*
X091120Y020599D01*
X091121Y020598D01*
X091128Y020591D01*
X091136Y020586D01*
X091145Y020582D01*
X091151Y020580D01*
X091158Y020578D01*
X091163Y020577D01*
X091168D01*
X091178Y020578D01*
X091187Y020580D01*
X091194Y020582D01*
X091200Y020585D01*
X091206Y020588D01*
X091210Y020591D01*
X091212Y020592D01*
X091213Y020593D01*
X091219Y020601D01*
X091225Y020609D01*
X091232Y020629D01*
X091234Y020638D01*
X091236Y020645D01*
X091238Y020650D01*
Y020652D01*
X091379Y020633D01*
X091373Y020616D01*
X091367Y020601D01*
X091360Y020588D01*
X091354Y020576D01*
X091349Y020567D01*
X091344Y020561D01*
X091341Y020557D01*
X091340Y020555D01*
X091330Y020544D01*
X091319Y020534D01*
X091308Y020525D01*
X091298Y020520D01*
X091288Y020514D01*
X091281Y020510D01*
X091276Y020508D01*
X091274Y020507D01*
X091258Y020502D01*
X091240Y020498D01*
X091223Y020495D01*
X091205Y020493D01*
X091190Y020492D01*
X091183D01*
X091177Y020491D01*
X091165D01*
X091140Y020492D01*
X091117Y020494D01*
X091098Y020498D01*
X091081Y020502D01*
X091068Y020506D01*
X091059Y020510D01*
X091053Y020512D01*
X091051Y020513D01*
X091035Y020521D01*
X091022Y020532D01*
X091010Y020542D01*
X091001Y020553D01*
X090993Y020561D01*
X090987Y020568D01*
X090985Y020573D01*
X090984Y020575D01*
X090976Y020591D01*
X090970Y020605D01*
X090966Y020620D01*
X090963Y020633D01*
X090961Y020644D01*
X090960Y020652D01*
Y020658D01*
Y020660D01*
X090961Y020673D01*
X090962Y020684D01*
X090965Y020695D01*
X090967Y020704D01*
X090970Y020712D01*
X090973Y020717D01*
X090974Y020721D01*
X090975Y020722D01*
X090981Y020730D01*
X090987Y020739D01*
X090993Y020746D01*
X090999Y020752D01*
X091005Y020757D01*
X091010Y020760D01*
X091013Y020762D01*
X091014Y020763D01*
X091021Y020766D01*
X091027Y020769D01*
X091042Y020774D01*
X091049Y020776D01*
X091054Y020778D01*
X091058Y020779D01*
X091059D01*
X091046Y020787D01*
X091035Y020795D01*
X091026Y020803D01*
X091019Y020810D01*
X091013Y020816D01*
X091008Y020821D01*
X091006Y020825D01*
X091005Y020826D01*
X090999Y020836D01*
X090994Y020846D01*
X090991Y020856D01*
X090988Y020866D01*
X090987Y020874D01*
X090987Y020880D01*
Y020885D01*
Y020886D01*
Y020896D01*
X090988Y020906D01*
X090993Y020925D01*
X091001Y020940D01*
X091009Y020954D01*
X091017Y020965D01*
X091025Y020972D01*
X091029Y020977D01*
X091030Y020979D01*
X091031D01*
X091040Y020986D01*
X091050Y020992D01*
X091072Y021001D01*
X091096Y021008D01*
X091119Y021011D01*
X091141Y021014D01*
X091150Y021015D01*
X091158D01*
X091165Y021016D01*
X091175D01*
X091205Y021015D01*
D02*
G37*
G36*
X092074Y020491D02*
X092003D01*
X091875Y021016D01*
X091946D01*
X092074Y020491D01*
D02*
G37*
G36*
X089303Y020710D02*
Y020595D01*
X089046D01*
Y020500D01*
X088923D01*
Y020595D01*
X088860D01*
Y020704D01*
X088923D01*
Y021016D01*
X089046D01*
X089303Y020710D01*
D02*
G37*
G36*
X092515Y020888D02*
X092264D01*
X092291Y020853D01*
X092314Y020819D01*
X092333Y020789D01*
X092342Y020775D01*
X092350Y020762D01*
X092356Y020750D01*
X092362Y020739D01*
X092367Y020730D01*
X092370Y020723D01*
X092373Y020717D01*
X092375Y020712D01*
X092377Y020709D01*
Y020708D01*
X092390Y020675D01*
X092400Y020640D01*
X092410Y020605D01*
X092412Y020589D01*
X092416Y020572D01*
X092419Y020558D01*
X092422Y020544D01*
X092424Y020531D01*
X092426Y020521D01*
X092427Y020512D01*
X092428Y020506D01*
X092429Y020501D01*
Y020500D01*
X092289D01*
X092286Y020532D01*
X092282Y020561D01*
X092277Y020588D01*
X092275Y020600D01*
X092273Y020610D01*
X092271Y020620D01*
X092269Y020629D01*
X092267Y020637D01*
X092265Y020642D01*
X092264Y020647D01*
X092263Y020651D01*
X092262Y020653D01*
Y020654D01*
X092251Y020684D01*
X092241Y020714D01*
X092229Y020739D01*
X092223Y020751D01*
X092218Y020762D01*
X092212Y020771D01*
X092208Y020780D01*
X092204Y020788D01*
X092200Y020795D01*
X092197Y020800D01*
X092195Y020804D01*
X092193Y020805D01*
Y020806D01*
X092178Y020827D01*
X092164Y020846D01*
X092149Y020865D01*
X092134Y020881D01*
X092122Y020893D01*
X092112Y020903D01*
X092108Y020907D01*
X092105Y020910D01*
X092104Y020911D01*
X092103Y020912D01*
Y021008D01*
X092515D01*
Y020888D01*
D02*
G37*
G36*
X066775Y023767D02*
X066899Y023851D01*
X066904Y023857D01*
X067660Y023130D01*
X067540Y023010D01*
X065510D01*
Y023040D01*
X066313Y023843D01*
X066425Y023767D01*
Y024150D01*
X066775D01*
Y023767D01*
D02*
G37*
G36*
X087889Y028355D02*
X087291D01*
X087285Y028368D01*
X087272Y028472D01*
X086600Y027800D01*
Y026630D01*
X088000Y025230D01*
Y025100D01*
X088050Y025050D01*
X088030Y025030D01*
X088000D01*
Y025000D01*
X080800D01*
X080770Y025030D01*
X080549D01*
X080318Y025211D01*
X080354Y025225D01*
X080321Y025258D01*
X080421Y025387D01*
X080478Y025525D01*
X079879D01*
Y025875D01*
X080478D01*
X080421Y026013D01*
X080321Y026142D01*
X082709Y028530D01*
X087264D01*
X087285Y028692D01*
X087291Y028705D01*
X087889D01*
Y028355D01*
D02*
G37*
G36*
X093319Y038081D02*
Y037114D01*
X093494D01*
Y036718D01*
X093319D01*
Y036544D01*
X092806D01*
Y036750D01*
X091960D01*
X091972Y036720D01*
X091900Y036545D01*
X091409D01*
Y036720D01*
X091234D01*
Y037210D01*
X091409Y037283D01*
Y038609D01*
X091537Y038662D01*
X091630Y038885D01*
X091139D01*
Y039060D01*
X090964D01*
Y039550D01*
X091139Y039623D01*
Y040261D01*
X093319Y038081D01*
D02*
G37*
G36*
X093300Y057815D02*
X092901D01*
X092967Y057657D01*
X090500Y055190D01*
X090312D01*
X090240Y055015D01*
X089749D01*
Y055190D01*
X089574D01*
Y055680D01*
X089749Y055753D01*
Y057407D01*
X089574Y057480D01*
Y057970D01*
X089749D01*
Y058145D01*
X090240D01*
X090312Y057970D01*
X090741D01*
X090801Y058115D01*
X091998D01*
X092058Y057970D01*
X092837D01*
X092829Y057990D01*
X092901Y058165D01*
X093300D01*
Y057815D01*
D02*
G37*
G36*
X093339Y063290D02*
X093514D01*
Y062913D01*
X093339Y062840D01*
X093333Y062843D01*
X093296Y060425D01*
X093475D01*
Y059990D01*
X093300D01*
Y059815D01*
X092865D01*
Y060000D01*
X091808D01*
X091812Y059990D01*
X091740Y059815D01*
X091249D01*
Y059990D01*
X091074D01*
Y060480D01*
X091249Y060553D01*
X091259Y060549D01*
Y061519D01*
X091084Y061591D01*
Y062190D01*
X091259D01*
Y062365D01*
X091858D01*
X091734Y062665D01*
X092359Y063290D01*
X092890D01*
X092962Y063465D01*
X093339D01*
Y063290D01*
D02*
G37*
G36*
X091900Y032800D02*
X091889Y032789D01*
Y029201D01*
X092064Y029129D01*
Y028705D01*
X092488D01*
X092560Y028530D01*
X092638D01*
X092711Y028705D01*
X093309D01*
Y028355D01*
X092711D01*
X092832Y028063D01*
X092364Y027595D01*
X092064Y027719D01*
Y027120D01*
X091714D01*
Y027719D01*
X091889Y027791D01*
Y027859D01*
X091714Y027931D01*
Y028530D01*
Y029129D01*
X091415Y029005D01*
X091385Y028934D01*
X089797Y030522D01*
X089890Y030745D01*
X089399D01*
Y031095D01*
X089890D01*
X089797Y031318D01*
X091419Y032940D01*
Y033100D01*
X091600D01*
X091900Y032800D01*
D02*
G37*
G36*
X060109Y026233D02*
X060356Y026335D01*
X063800Y022700D01*
X059200D01*
X057500Y024400D01*
X059480Y026380D01*
X059495Y026342D01*
X059759Y026233D01*
Y026780D01*
X060109D01*
Y026233D01*
D02*
G37*
G36*
X070523Y036323D02*
X070700Y036400D01*
X069800Y035500D01*
Y034000D01*
X068769Y035031D01*
X068830Y035111D01*
X068877Y035225D01*
X068330D01*
Y035575D01*
X068877D01*
X068830Y035689D01*
X068738Y035808D01*
X068768Y035838D01*
X069300Y036370D01*
X069380Y036450D01*
X070650D01*
X070523Y036323D01*
D02*
G37*
G36*
X096700Y046400D02*
X095500Y047600D01*
X094800D01*
X096700Y049500D01*
Y046400D01*
D02*
G37*
%LPC*%
G36*
X091644Y020923D02*
X091642D01*
X091631Y020921D01*
X091620Y020917D01*
X091611Y020912D01*
X091604Y020905D01*
X091598Y020898D01*
X091595Y020893D01*
X091593Y020889D01*
X091592Y020887D01*
X091589Y020881D01*
X091586Y020872D01*
X091584Y020862D01*
X091582Y020851D01*
X091578Y020829D01*
X091576Y020806D01*
X091575Y020786D01*
Y020776D01*
X091574Y020768D01*
Y020762D01*
Y020757D01*
Y020753D01*
Y020752D01*
Y020727D01*
X091575Y020707D01*
X091576Y020689D01*
X091578Y020675D01*
X091579Y020664D01*
X091581Y020655D01*
X091582Y020651D01*
Y020649D01*
X091585Y020638D01*
X091589Y020629D01*
X091593Y020620D01*
X091597Y020614D01*
X091599Y020609D01*
X091602Y020605D01*
X091604Y020603D01*
X091605Y020602D01*
X091611Y020598D01*
X091618Y020594D01*
X091624Y020592D01*
X091630Y020590D01*
X091635Y020589D01*
X091638Y020588D01*
X091642D01*
X091654Y020590D01*
X091664Y020594D01*
X091672Y020599D01*
X091678Y020605D01*
X091684Y020612D01*
X091688Y020617D01*
X091690Y020621D01*
X091691Y020623D01*
X091694Y020630D01*
X091697Y020639D01*
X091699Y020648D01*
X091701Y020658D01*
X091704Y020681D01*
X091706Y020703D01*
X091707Y020723D01*
Y020732D01*
X091708Y020740D01*
Y020747D01*
Y020752D01*
Y020755D01*
Y020756D01*
Y020773D01*
X091707Y020789D01*
Y020804D01*
X091706Y020816D01*
X091704Y020829D01*
X091703Y020839D01*
X091702Y020848D01*
X091700Y020857D01*
X091699Y020864D01*
X091698Y020870D01*
X091696Y020876D01*
X091695Y020880D01*
X091694Y020885D01*
X091693Y020886D01*
X091686Y020898D01*
X091678Y020907D01*
X091670Y020914D01*
X091662Y020918D01*
X091654Y020921D01*
X091648Y020922D01*
X091644Y020923D01*
D02*
G37*
G36*
X090030D02*
X090028D01*
X090016Y020921D01*
X090006Y020917D01*
X089997Y020912D01*
X089990Y020905D01*
X089984Y020898D01*
X089980Y020893D01*
X089978Y020889D01*
X089977Y020887D01*
X089974Y020881D01*
X089971Y020872D01*
X089970Y020862D01*
X089968Y020851D01*
X089964Y020829D01*
X089962Y020806D01*
X089961Y020786D01*
Y020776D01*
X089960Y020768D01*
Y020762D01*
Y020757D01*
Y020753D01*
Y020752D01*
Y020727D01*
X089961Y020707D01*
X089962Y020689D01*
X089964Y020675D01*
X089965Y020664D01*
X089967Y020655D01*
X089968Y020651D01*
Y020649D01*
X089971Y020638D01*
X089974Y020629D01*
X089978Y020620D01*
X089982Y020614D01*
X089985Y020609D01*
X089988Y020605D01*
X089990Y020603D01*
X089991Y020602D01*
X089997Y020598D01*
X090004Y020594D01*
X090010Y020592D01*
X090015Y020590D01*
X090020Y020589D01*
X090024Y020588D01*
X090028D01*
X090040Y020590D01*
X090050Y020594D01*
X090057Y020599D01*
X090064Y020605D01*
X090070Y020612D01*
X090074Y020617D01*
X090076Y020621D01*
X090077Y020623D01*
X090080Y020630D01*
X090083Y020639D01*
X090085Y020648D01*
X090087Y020658D01*
X090090Y020681D01*
X090092Y020703D01*
X090092Y020723D01*
Y020732D01*
X090093Y020740D01*
Y020747D01*
Y020752D01*
Y020755D01*
Y020756D01*
Y020773D01*
X090092Y020789D01*
Y020804D01*
X090092Y020816D01*
X090090Y020829D01*
X090089Y020839D01*
X090088Y020848D01*
X090086Y020857D01*
X090085Y020864D01*
X090084Y020870D01*
X090082Y020876D01*
X090081Y020880D01*
X090080Y020885D01*
X090079Y020886D01*
X090072Y020898D01*
X090064Y020907D01*
X090055Y020914D01*
X090048Y020918D01*
X090040Y020921D01*
X090034Y020922D01*
X090030Y020923D01*
D02*
G37*
G36*
X093144Y037114D02*
X092806D01*
Y036894D01*
X093144D01*
Y037114D01*
D02*
G37*
G36*
X093125Y060425D02*
X092865D01*
Y060165D01*
X093125D01*
Y060425D01*
D02*
G37*
G36*
X091584Y037210D02*
Y036895D01*
X091900D01*
X091807Y037118D01*
X091584Y037210D01*
D02*
G37*
G36*
X091424Y060480D02*
Y060165D01*
X091740D01*
X091647Y060388D01*
X091424Y060480D01*
D02*
G37*
G36*
X089046Y020864D02*
Y020704D01*
X089183D01*
X089046Y020864D01*
D02*
G37*
G36*
X091314Y039550D02*
Y039235D01*
X091630D01*
X091537Y039458D01*
X091314Y039550D01*
D02*
G37*
G36*
X092488Y028355D02*
X092064D01*
Y027931D01*
X092364Y028055D01*
X092488Y028355D01*
D02*
G37*
G36*
X091224Y057765D02*
X090801D01*
X090925Y057465D01*
X091224Y057341D01*
Y057765D01*
D02*
G37*
G36*
X091998D02*
X091574D01*
Y057341D01*
X091874Y057465D01*
X091998Y057765D01*
D02*
G37*
G36*
X090240Y057795D02*
X089924D01*
Y057480D01*
X090147Y057572D01*
X090240Y057795D01*
D02*
G37*
G36*
X091858Y062015D02*
X091434D01*
Y061591D01*
X091734Y061715D01*
X091858Y062015D01*
D02*
G37*
G36*
X089924Y055680D02*
Y055365D01*
X090240D01*
X090147Y055588D01*
X089924Y055680D01*
D02*
G37*
G36*
X093164Y063115D02*
X092962D01*
X093021Y062972D01*
X093164Y062913D01*
Y063115D01*
D02*
G37*
%LPD*%
D10*
X062220Y054340D02*
X072160Y044400D01*
X063260Y055340D02*
X068200Y050400D01*
X073200Y045400D01*
X073500D01*
X062220Y055340D02*
X063260D01*
X072160Y044400D02*
X073500D01*
X062220Y052380D02*
X066200Y048400D01*
X071200Y043400D01*
X059340Y053340D02*
X070280Y042400D01*
X058400Y052400D02*
X069400Y041400D01*
X071200Y043400D02*
X073500D01*
X070400Y042400D02*
X073500D01*
X070280D02*
X070400D01*
X057600Y051200D02*
X068400Y040400D01*
X073500D01*
X057600Y051200D02*
Y054400D01*
X069400Y041400D02*
X073500D01*
X058400Y052400D02*
Y054000D01*
X062220Y052380D02*
Y053340D01*
X057600Y054400D02*
X058540Y055340D01*
X059340D01*
X058400Y054000D02*
X058740Y054340D01*
X059340D01*
X035200Y062600D02*
Y063250D01*
Y062600D02*
X035910Y061890D01*
D11*
X034565Y062344D02*
Y064195D01*
X041030Y048170D02*
Y052490D01*
Y048170D02*
X042340Y046860D01*
X035140Y043560D02*
X038825D01*
X046242Y042300D02*
X047320D01*
X046087Y042145D02*
X046242Y042300D01*
X047320D02*
X048320Y041300D01*
X037380Y042300D02*
X038458D01*
X036380Y041300D02*
X037380Y042300D01*
X038458D02*
X038613Y042145D01*
X082830Y028530D02*
X087889D01*
X080000Y025700D02*
X082830Y028530D01*
X079879Y025700D02*
X080000D01*
X091889Y028530D02*
X093309D01*
X072400Y050400D02*
X073500D01*
X066460Y056340D02*
X072400Y050400D01*
X062220Y056340D02*
X066460D01*
X038825Y043560D02*
X039340Y043045D01*
X032880Y041300D02*
X035140Y043560D01*
X032390Y039350D02*
Y040810D01*
X032880Y041300D01*
X051060Y059390D02*
X052360D01*
X034570Y062339D02*
X034600Y044800D01*
X031100Y041050D02*
X034740Y044690D01*
X091409Y036750D02*
Y038790D01*
Y036720D02*
Y036750D01*
X093319Y049170D02*
Y052400D01*
X096700Y044900D02*
Y049550D01*
X095800Y044000D02*
X096700Y044900D01*
X092929Y044000D02*
X095800D01*
X091919Y042990D02*
X092929Y044000D01*
X084900Y030900D02*
X089379D01*
X080400Y035400D02*
X084900Y030900D01*
X071330Y035400D02*
X080400D01*
X095191Y046391D02*
X095200Y046400D01*
X096700Y049550D02*
Y063590D01*
X094390Y065900D02*
X096700Y063590D01*
X042300Y066600D02*
X044200Y064700D01*
Y059460D02*
Y064700D01*
X043370Y058630D02*
X044200Y059460D01*
X089720Y044701D02*
X091409Y046390D01*
X091399Y053940D02*
X092859D01*
X093339Y026020D02*
X093369Y026050D01*
X088989Y026020D02*
X093339D01*
X087889Y027120D02*
X088989Y026020D01*
X093399Y041350D02*
X093409Y041360D01*
X091919Y041350D02*
X093399D01*
X087359Y062290D02*
Y063530D01*
X087259Y062190D02*
X087359Y062290D01*
X061700Y035400D02*
X065330D01*
X048900Y031270D02*
Y032470D01*
Y026790D02*
Y031270D01*
Y026790D02*
X048910Y026780D01*
X047003Y034367D02*
Y038050D01*
Y034367D02*
X048900Y032470D01*
X044450Y031300D02*
Y032500D01*
Y027730D02*
Y031300D01*
X037697Y038050D02*
X038900D01*
X044450Y032500D01*
X045640Y057630D02*
X046620D01*
X041860Y059630D02*
X042640D01*
X041420Y059190D02*
X041860Y059630D01*
X042201Y060630D02*
X042640D01*
X041210Y061621D02*
Y063230D01*
Y061621D02*
X042201Y060630D01*
X041210Y063230D02*
Y064530D01*
X079879Y037550D02*
Y039400D01*
Y030700D02*
Y032550D01*
X079849Y058100D02*
Y059950D01*
Y051300D02*
Y053100D01*
X071330Y024190D02*
Y027400D01*
X067120D02*
X070370Y024150D01*
X065330Y027400D02*
X067120D01*
X094189Y036049D02*
X094580Y035659D01*
Y025880D02*
Y035659D01*
X093730Y025030D02*
X094580Y025880D01*
X080549Y025030D02*
X093730D01*
X079879Y025700D02*
X080549Y025030D01*
X089319Y050460D02*
Y052400D01*
X043157Y047780D02*
X043340Y047597D01*
X043003Y047933D02*
X043157Y047780D01*
X043340Y046040D02*
Y047597D01*
X043003Y049730D02*
Y051030D01*
Y047933D02*
Y049730D01*
X043340Y041483D02*
Y043040D01*
X043157Y041300D02*
X043340Y041483D01*
X043003Y041147D02*
X043157Y041300D01*
X043003Y039350D02*
Y041147D01*
Y038050D02*
Y039350D01*
X048310Y049730D02*
Y051030D01*
Y047790D02*
Y049730D01*
Y047790D02*
X048320Y047780D01*
X047320Y046780D02*
X048320Y047780D01*
X046076Y046946D02*
X046242Y046780D01*
X047320D01*
X044626Y046946D02*
X046076D01*
X044340Y046660D02*
X044626Y046946D01*
X044340Y046040D02*
Y046660D01*
X048310Y041290D02*
X048320Y041300D01*
X048310Y039350D02*
Y041290D01*
Y038050D02*
Y039350D01*
X044340Y042630D02*
Y043040D01*
X044825Y042145D02*
X046087D01*
X044340Y042630D02*
X044825Y042145D01*
X051050Y059380D02*
X051060Y059390D01*
X049070Y059380D02*
X051050D01*
X045640Y059630D02*
X048820D01*
X049070Y059380D01*
X041697Y039350D02*
Y041147D01*
X041543Y041300D02*
X041697Y041147D01*
Y038050D02*
Y039350D01*
X041340Y041503D02*
Y043040D01*
Y041503D02*
X041543Y041300D01*
X049580Y064690D02*
X051060D01*
X049070Y064180D02*
X049580Y064690D01*
X049070Y064080D02*
Y064180D01*
X046620Y061630D02*
X049070Y064080D01*
X045640Y061630D02*
X046620D01*
X049080Y060690D02*
X051060D01*
X052360D01*
X049070Y060680D02*
X049080Y060690D01*
X048920Y060530D02*
X049070Y060680D01*
X045740Y060530D02*
X048920D01*
X045640Y060630D02*
X045740Y060530D01*
X040340Y042590D02*
Y043040D01*
X039895Y042145D02*
X040340Y042590D01*
X038613Y042145D02*
X039895D01*
X036390Y038050D02*
Y039350D01*
X036380Y039360D02*
Y041300D01*
Y039360D02*
X036390Y039350D01*
X039200Y057900D02*
X040850D01*
X041120Y057630D02*
X042640D01*
X039190Y057890D02*
X039200Y057900D01*
X040850D02*
X041120Y057630D01*
X037210Y057890D02*
X039190D01*
X035910D02*
X037210D01*
X041860Y055630D02*
X042640D01*
X041420Y055190D02*
X041860Y055630D01*
X041290Y055190D02*
X041420D01*
X039200Y053100D02*
X041290Y055190D01*
X038690Y052590D02*
X039200Y053100D01*
X037210Y052590D02*
X038690D01*
X039230Y056630D02*
X042640D01*
X039200Y056600D02*
X039230Y056630D01*
X039190Y056590D02*
X039200Y056600D01*
X037210Y056590D02*
X039190D01*
X035910D02*
X037210D01*
X089749Y055190D02*
Y057970D01*
X088749Y054190D02*
X089749Y055190D01*
X080305Y054200D02*
X080315Y054190D01*
X088749D01*
X074390Y050400D02*
X078190Y054200D01*
X080305D01*
X073500Y050400D02*
X074390D01*
X091419Y032940D02*
Y035380D01*
X089399Y030920D02*
X091419Y032940D01*
X089399Y030920D02*
X089499D01*
X091889Y028530D01*
Y027120D02*
Y028530D01*
X045000Y058630D02*
X045640D01*
X044020Y057650D02*
X045000Y058630D01*
X044020Y055480D02*
Y057650D01*
X041030Y052490D02*
X044020Y055480D01*
X042340Y046040D02*
Y046860D01*
X091409Y048430D02*
X091449Y048390D01*
X088939Y048430D02*
X091409D01*
X086829Y046320D02*
X088939Y048430D01*
X086829Y044080D02*
Y046320D01*
Y044080D02*
X087919Y042990D01*
Y041350D02*
Y042990D01*
X083019Y036450D02*
X087919Y041350D01*
X036496Y024660D02*
X057814D01*
X059934Y026780D01*
X033436Y027720D02*
X036496Y024660D01*
X093300Y059990D02*
Y063250D01*
X093339Y063290D01*
X093290Y060000D02*
X093300Y059990D01*
X091259Y060000D02*
X093290D01*
X091259D02*
Y062190D01*
X091139Y039060D02*
X091409Y038790D01*
X089720Y041240D02*
X091139Y039821D01*
X089720Y041240D02*
Y044701D01*
X091139Y039060D02*
Y039821D01*
X042452Y027720D02*
X044445Y025727D01*
X049865D01*
X050918Y026780D01*
X068330Y035400D02*
X069380Y036450D01*
X070891D01*
X070894Y036453D01*
X071766D01*
X071769Y036450D01*
X083019D01*
X032500Y035800D02*
X040580Y027720D01*
X042452D01*
X089379Y030900D02*
X089399Y030920D01*
X059934Y026780D02*
X063714Y023000D01*
X067750D01*
X066600Y024150D02*
X067750Y023000D01*
X071750D01*
X072600Y023850D01*
X068330Y035400D02*
X068550D01*
X072600Y031350D01*
Y023850D02*
Y031350D01*
X079849Y064950D02*
X080799Y065900D01*
X094390D01*
X042340Y043040D02*
Y043313D01*
X036390Y044690D02*
X040963D01*
X042340Y043313D01*
X034740Y044690D02*
X036390D01*
X031100Y030056D02*
Y041050D01*
Y030056D02*
X033436Y027720D01*
X037000Y066600D02*
X042300D01*
X034595Y064195D02*
X037000Y066600D01*
X042640Y058630D02*
X043370D01*
X091409Y036750D02*
X093319D01*
X091409Y046360D02*
X093319D01*
Y046361D02*
X095191D01*
X089749Y057970D02*
X093280D01*
D12*
X094211Y047061D02*
X096700Y049550D01*
X093319Y047061D02*
X094211D01*
X093319Y036049D02*
X094189D01*
X091419Y035380D02*
X093319D01*
X091449Y048399D02*
X093319D01*
X034700Y045300D02*
Y046380D01*
D13*
X051060Y059390D02*
D03*
Y055390D02*
D03*
X047060Y054050D02*
D03*
X051060D02*
D03*
X056270Y059350D02*
D03*
X052270D02*
D03*
X046620Y057630D02*
D03*
Y061630D02*
D03*
X052360Y064690D02*
D03*
Y060690D02*
D03*
X043030Y052760D02*
D03*
X047030D02*
D03*
X051060Y060690D02*
D03*
Y064690D02*
D03*
X047003Y049730D02*
D03*
X043003D02*
D03*
Y051030D02*
D03*
X047003D02*
D03*
Y039350D02*
D03*
X043003D02*
D03*
Y038050D02*
D03*
X047003D02*
D03*
X048310Y051030D02*
D03*
X052310D02*
D03*
X048310Y038050D02*
D03*
X052310D02*
D03*
Y049730D02*
D03*
X048310D02*
D03*
X052310Y039350D02*
D03*
X048310D02*
D03*
X037697D02*
D03*
X041697D02*
D03*
Y038050D02*
D03*
X037697D02*
D03*
X036390D02*
D03*
X032390D02*
D03*
Y039350D02*
D03*
X036390D02*
D03*
X037210Y061890D02*
D03*
Y057890D02*
D03*
Y063230D02*
D03*
X041210D02*
D03*
X035910Y057890D02*
D03*
Y061890D02*
D03*
X041420Y055190D02*
D03*
Y059190D02*
D03*
X035910Y056590D02*
D03*
Y052590D02*
D03*
X041210Y064530D02*
D03*
X037210D02*
D03*
Y052590D02*
D03*
Y056590D02*
D03*
X087919Y042990D02*
D03*
X091919D02*
D03*
X087889Y028530D02*
D03*
X091889D02*
D03*
X079899Y051250D02*
D03*
Y046250D02*
D03*
X079849Y058100D02*
D03*
Y053100D02*
D03*
Y064950D02*
D03*
Y059950D02*
D03*
X079879Y030700D02*
D03*
Y025700D02*
D03*
Y037550D02*
D03*
Y032550D02*
D03*
Y044400D02*
D03*
Y039400D02*
D03*
X089319Y052400D02*
D03*
X093319D02*
D03*
X087889Y039310D02*
D03*
Y035310D02*
D03*
X093309Y032530D02*
D03*
Y028530D02*
D03*
X044450Y031300D02*
D03*
X040450D02*
D03*
X044450Y032500D02*
D03*
X040450D02*
D03*
X048900Y032470D02*
D03*
X052900D02*
D03*
X048900Y031270D02*
D03*
X052900D02*
D03*
X061700Y035400D02*
D03*
Y039400D02*
D03*
X091259Y062190D02*
D03*
X087259D02*
D03*
X087919Y041350D02*
D03*
X091919D02*
D03*
X091889Y027120D02*
D03*
X087889D02*
D03*
X091399Y057940D02*
D03*
Y053940D02*
D03*
X060200Y039400D02*
D03*
Y035400D02*
D03*
X068200Y050400D02*
D03*
X067200Y049400D02*
D03*
X066200Y048400D02*
D03*
X070400Y042400D02*
D03*
X069400Y041400D02*
D03*
X068400Y040400D02*
D03*
X036700Y043500D02*
D03*
X095200Y046400D02*
D03*
X041100Y048200D02*
D03*
X084000Y045000D02*
D03*
X032500Y035800D02*
D03*
D14*
X049070Y059380D02*
D03*
Y055880D02*
D03*
Y060680D02*
D03*
Y064180D02*
D03*
X043157Y047780D02*
D03*
X046657D02*
D03*
X043157Y041300D02*
D03*
X046657D02*
D03*
X048320Y047780D02*
D03*
X051820D02*
D03*
X048320Y041300D02*
D03*
X051820D02*
D03*
X041543D02*
D03*
X038043D02*
D03*
X036380D02*
D03*
X032880D02*
D03*
X039200Y057900D02*
D03*
Y061400D02*
D03*
Y056600D02*
D03*
Y053100D02*
D03*
X087749Y059990D02*
D03*
X091249D02*
D03*
X089749Y057970D02*
D03*
X087749D02*
D03*
X089749Y055190D02*
D03*
X087749D02*
D03*
X091409Y046390D02*
D03*
Y044390D02*
D03*
X086829Y046320D02*
D03*
X088829D02*
D03*
X085819Y050460D02*
D03*
X089319D02*
D03*
X091409Y048430D02*
D03*
Y050430D02*
D03*
Y036720D02*
D03*
X089409D02*
D03*
X089639Y039060D02*
D03*
X091139D02*
D03*
X089399Y032920D02*
D03*
Y030920D02*
D03*
X089419Y035380D02*
D03*
X091419D02*
D03*
D15*
X093339Y064290D02*
D03*
D16*
Y063290D02*
D03*
X065600Y024150D02*
D03*
X066600D02*
D03*
X071370D02*
D03*
D17*
X093300Y059990D02*
D03*
D18*
Y058990D02*
D03*
Y057990D02*
D03*
D19*
X093319Y046391D02*
D03*
Y047061D02*
D03*
Y047730D02*
D03*
Y048399D02*
D03*
Y034041D02*
D03*
Y034711D02*
D03*
Y035380D02*
D03*
Y036049D02*
D03*
D20*
Y049069D02*
D03*
Y036719D02*
D03*
D21*
X073500Y045400D02*
D03*
X054500Y040400D02*
D03*
X073500Y047400D02*
D03*
X054500Y049000D02*
D03*
D22*
X073500Y044400D02*
D03*
Y043400D02*
D03*
Y042400D02*
D03*
Y041400D02*
D03*
Y040400D02*
D03*
X054500Y043400D02*
D03*
Y044400D02*
D03*
Y045400D02*
D03*
Y046400D02*
D03*
Y047400D02*
D03*
Y041400D02*
D03*
Y042400D02*
D03*
X073500Y050400D02*
D03*
Y051400D02*
D03*
Y052400D02*
D03*
Y053400D02*
D03*
Y054400D02*
D03*
Y048400D02*
D03*
Y049400D02*
D03*
X059340Y055340D02*
D03*
Y054340D02*
D03*
Y053340D02*
D03*
X062220D02*
D03*
Y054340D02*
D03*
Y055340D02*
D03*
Y056340D02*
D03*
X054500Y050000D02*
D03*
Y051000D02*
D03*
Y052000D02*
D03*
Y053000D02*
D03*
Y054000D02*
D03*
Y055000D02*
D03*
Y056000D02*
D03*
Y057000D02*
D03*
Y058000D02*
D03*
D23*
X059340Y056340D02*
D03*
D24*
X033436Y027720D02*
D03*
X042452D02*
D03*
X044460D02*
D03*
X059934Y026780D02*
D03*
X050918D02*
D03*
X048910D02*
D03*
X068330Y035400D02*
D03*
X065330D02*
D03*
X071330D02*
D03*
Y027400D02*
D03*
X065330D02*
D03*
D25*
X035700Y063250D02*
D03*
X035200D02*
D03*
D26*
X034700D02*
D03*
D27*
X064600Y024150D02*
D03*
X070370D02*
D03*
D28*
X087359Y063530D02*
D03*
Y064530D02*
D03*
X093409Y041360D02*
D03*
Y042360D02*
D03*
X093369Y027050D02*
D03*
Y026050D02*
D03*
X092859Y053940D02*
D03*
Y054940D02*
D03*
D29*
X045340Y046040D02*
D03*
X044340D02*
D03*
X043340D02*
D03*
X042340D02*
D03*
X041340D02*
D03*
X040340D02*
D03*
X039340D02*
D03*
X045340Y043040D02*
D03*
X044340D02*
D03*
X043340D02*
D03*
X042340D02*
D03*
X041340D02*
D03*
X040340D02*
D03*
X045640Y055630D02*
D03*
Y056630D02*
D03*
Y057630D02*
D03*
Y058630D02*
D03*
Y059630D02*
D03*
Y060630D02*
D03*
Y061630D02*
D03*
X042640Y055630D02*
D03*
Y056630D02*
D03*
Y057630D02*
D03*
Y058630D02*
D03*
Y059630D02*
D03*
Y060630D02*
D03*
D30*
X039340Y043040D02*
D03*
D31*
X042640Y061630D02*
D03*
D32*
X032000Y067000D02*
D03*
Y022000D02*
D03*
X097000Y067000D02*
D03*
Y022000D02*
D03*
X057000D02*
D03*
D33*
X045640Y054440D02*
Y055630D01*
X043960Y052760D02*
X045640Y054440D01*
X043030Y052760D02*
X043960D01*
X042640Y061630D02*
Y064760D01*
X041800Y065600D02*
X042640Y064760D01*
X038280Y065600D02*
X041800D01*
X037210Y064530D02*
X038280Y065600D01*
X045425Y043125D02*
X049995D01*
X051820Y041300D01*
X045340Y043040D02*
X045425Y043125D01*
X051820Y039840D02*
X052310Y039350D01*
X051820Y039840D02*
Y041300D01*
X034700Y046380D02*
X036390Y044690D01*
X093309Y034031D02*
X093319Y034041D01*
X093309Y032530D02*
Y034031D01*
X047030Y054020D02*
X047060Y054050D01*
Y055680D01*
X047030Y052760D02*
Y054020D01*
X045640Y056630D02*
X046110D01*
X047060Y055680D01*
X087999Y035310D02*
X089409Y036720D01*
X087889Y035310D02*
X087999D01*
X052310Y048270D02*
Y049730D01*
X051820Y047780D02*
X052310Y048270D01*
X049995Y045955D02*
X051820Y047780D01*
X045340Y046040D02*
X045425Y045955D01*
X049995D01*
X065600Y024150D02*
Y024483D01*
X056270Y033813D02*
X065600Y024483D01*
X056270Y033813D02*
Y059350D01*
X034690Y046390D02*
X034700Y046380D01*
D34*
X079899Y046250D02*
X082750D01*
X084000Y045000D01*
M02*
