M48
;Layer_Color=9474304
;FILE_FORMAT=2:4
INCH
;TYPE=PLATED
T1F00S00C0.0354
T2F00S00C0.0360
T3F00S00C0.1200
%
T01
X079879Y025700
Y030700
X089399Y030920
X087889Y028530
Y027120
X091889
Y028530
X093309
X093369Y027050
Y026050
X071330Y027400
X071370Y024150
X070370
X066600
X065600
X064600
X065330Y027400
X059934Y026780
X050918
X048910
X044460Y027720
X042452
X033436
X032500Y035800
X032390Y038050
Y039350
X032880Y041300
X036380
X038043
X037697Y039350
Y038050
X036390
Y039350
X036700Y043500
X039340Y043040
X040340
X041340
X042340
X043340
X044340
X045340
Y046040
X044340
X043340
X042340
X041340
X040340
X039340
X041543Y041300
X043157
X043003Y039350
Y038050
X041697
Y039350
X046657Y041300
X044450Y032500
Y031300
X040450
Y032500
X048900Y032470
Y031270
X052900
Y032470
X052310Y038050
Y039350
X051820Y041300
X054500Y041400
Y040400
Y042400
Y043400
Y044400
Y045400
Y046400
X048320Y041300
X048310Y039350
Y038050
X047003
Y039350
X061700Y039400
Y035400
X065330
X068330
X071330
X073500Y040400
Y041400
Y042400
Y043400
Y044400
Y045400
X070400Y042400
X069400Y041400
X068400Y040400
X079879Y039400
Y037550
Y032550
X089399Y032920
X089419Y035380
X089409Y036720
X091409
X091419Y035380
X093319
Y034711
Y034041
X093309Y032530
X093319Y036049
Y036719
X091139Y039060
X089639
X087889Y039310
X087919Y041350
Y042990
X091919
Y041350
X093409Y041360
Y042360
X091409Y044390
Y046390
X093319Y046391
X088829Y046320
X086829
X084000Y045000
X079879Y044400
X079899Y046250
X087889Y035310
X095200Y046400
X093319Y047061
Y047730
Y048399
Y049069
X091409Y048430
Y050430
X089319Y050460
Y052400
X089749Y055190
X087749
Y057970
X089749
X091399Y057940
X093300Y057990
Y058990
Y059990
X091249
X091259Y062190
X087259
X087749Y059990
X079849Y059950
Y058100
Y053100
X079899Y051250
X085819Y050460
X091399Y053940
X092859
Y054940
X093319Y052400
X073500
Y051400
Y050400
Y049400
Y048400
Y047400
Y053400
Y054400
X068200Y050400
X067200Y049400
X066200Y048400
X062220Y053340
Y054340
Y055340
Y056340
X059340
Y055340
Y054340
Y053340
X054500Y053000
Y052000
Y051000
Y050000
Y049000
Y047400
X051820Y047780
X052310Y049730
Y051030
X048310
Y049730
X047003
Y051030
X047030Y052760
X047060Y054050
X049070Y055880
X051060Y055390
Y054050
X054500Y054000
Y055000
Y056000
Y057000
Y058000
X056270Y059350
X052270
X051060Y059390
Y060690
X052360
X049070Y060680
Y059380
X048320Y047780
X046657
X043157
X043003Y049730
Y051030
X043030Y052760
X042640Y055630
Y056630
Y057630
Y058630
Y059630
Y060630
Y061630
X045640
X046620
X045640Y060630
Y059630
Y058630
Y057630
X046620
X045640Y056630
Y055630
X041420Y055190
X039200Y056600
Y057900
X037210Y057890
X035910
Y056590
X037210
Y052590
X035910
X039200Y053100
X041100Y048200
X041420Y059190
X039200Y061400
X037210Y061890
X035910
X035700Y063250
X035200
X034700
X037210Y063230
Y064530
X041210
Y063230
X049070Y064180
X051060Y064690
X052360
X079849Y064950
X087359Y064530
Y063530
X093339Y063290
Y064290
T02
X060200Y035400
Y039400
T03
X097000Y022000
X057000
X032000
Y067000
X097000
M30
