%FSAX24Y24*%
%MOIN*%
G70*
G01*
G75*
G04 Layer_Physical_Order=1*
G04 Layer_Color=255*
%ADD10C,0.0350*%
%ADD11C,0.0600*%
%ADD12C,0.0500*%
%ADD13C,0.1000*%
%ADD14C,0.0800*%
%ADD15R,0.0591X0.0591*%
%ADD16C,0.0591*%
%ADD17R,0.0630X0.0630*%
%ADD18C,0.0630*%
%ADD19O,0.0787X0.0551*%
%ADD20R,0.0787X0.0551*%
%ADD21R,0.0600X0.0600*%
%ADD22C,0.0600*%
G04:AMPARAMS|DCode=23|XSize=60mil|YSize=60mil|CornerRadius=7.5mil|HoleSize=0mil|Usage=FLASHONLY|Rotation=0.000|XOffset=0mil|YOffset=0mil|HoleType=Round|Shape=RoundedRectangle|*
%AMROUNDEDRECTD23*
21,1,0.0600,0.0450,0,0,0.0*
21,1,0.0450,0.0600,0,0,0.0*
1,1,0.0150,0.0225,-0.0225*
1,1,0.0150,-0.0225,-0.0225*
1,1,0.0150,-0.0225,0.0225*
1,1,0.0150,0.0225,0.0225*
%
%ADD23ROUNDEDRECTD23*%
%ADD24C,0.0906*%
%ADD25O,0.0394X0.0787*%
%ADD26R,0.0394X0.0787*%
%ADD27R,0.0591X0.0591*%
%ADD28C,0.0650*%
%ADD29C,0.0591*%
%ADD30R,0.0591X0.0591*%
%ADD31R,0.0591X0.0591*%
%ADD32C,0.2500*%
G36*
X100000Y019000D02*
X029000D01*
Y070000D01*
X100000D01*
Y019000D01*
D02*
G37*
%LPC*%
G36*
X046482Y041125D02*
X046166D01*
X046259Y040902D01*
X046482Y040810D01*
Y041125D01*
D02*
G37*
G36*
X038534D02*
X038218D01*
Y040810D01*
X038441Y040902D01*
X038534Y041125D01*
D02*
G37*
G36*
X047147D02*
X046832D01*
Y040810D01*
X047055Y040902D01*
X047147Y041125D01*
D02*
G37*
G36*
X054500Y041855D02*
X054179Y041721D01*
X054045Y041400D01*
X054179Y041079D01*
X054500Y040945D01*
X054821Y041079D01*
X054955Y041400D01*
X054821Y041721D01*
X054500Y041855D01*
D02*
G37*
G36*
X093409Y041842D02*
X093069Y041701D01*
X092928Y041360D01*
X093069Y041019D01*
X093409Y040878D01*
X093750Y041019D01*
X093891Y041360D01*
X093750Y041701D01*
X093409Y041842D01*
D02*
G37*
G36*
X043157Y041863D02*
X042759Y041698D01*
X042594Y041300D01*
X042759Y040902D01*
X043157Y040737D01*
X043555Y040902D01*
X043720Y041300D01*
X043555Y041698D01*
X043157Y041863D01*
D02*
G37*
G36*
X041543D02*
X041145Y041698D01*
X040981Y041300D01*
X041145Y040902D01*
X041543Y040737D01*
X041941Y040902D01*
X042106Y041300D01*
X041941Y041698D01*
X041543Y041863D01*
D02*
G37*
G36*
X048320D02*
X047922Y041698D01*
X047757Y041300D01*
X047922Y040902D01*
X048320Y040737D01*
X048718Y040902D01*
X048883Y041300D01*
X048718Y041698D01*
X048320Y041863D01*
D02*
G37*
G36*
X037868Y041125D02*
X037553D01*
X037645Y040902D01*
X037868Y040810D01*
Y041125D01*
D02*
G37*
G36*
X051820Y041863D02*
X051422Y041698D01*
X051257Y041300D01*
X051422Y040902D01*
X051820Y040737D01*
X052218Y040902D01*
X052383Y041300D01*
X052218Y041698D01*
X051820Y041863D01*
D02*
G37*
G36*
X073500Y042855D02*
X073179Y042721D01*
X073045Y042400D01*
X073179Y042079D01*
X073500Y041945D01*
X073821Y042079D01*
X073955Y042400D01*
X073821Y042721D01*
X073500Y042855D01*
D02*
G37*
G36*
X054500D02*
X054179Y042721D01*
X054045Y042400D01*
X054179Y042079D01*
X054500Y041945D01*
X054821Y042079D01*
X054955Y042400D01*
X054821Y042721D01*
X054500Y042855D01*
D02*
G37*
G36*
X093234Y042185D02*
X093000D01*
X093069Y042019D01*
X093234Y041951D01*
Y042185D01*
D02*
G37*
G36*
X087919Y043661D02*
X087445Y043465D01*
X087248Y042990D01*
X087445Y042515D01*
X087919Y042319D01*
X088394Y042515D01*
X088590Y042990D01*
X088394Y043465D01*
X087919Y043661D01*
D02*
G37*
G36*
X093818Y042185D02*
X093584D01*
Y041951D01*
X093750Y042019D01*
X093818Y042185D01*
D02*
G37*
G36*
X037868Y041790D02*
X037645Y041698D01*
X037553Y041475D01*
X037868D01*
Y041790D01*
D02*
G37*
G36*
X073500Y041855D02*
X073179Y041721D01*
X073045Y041400D01*
X073179Y041079D01*
X073500Y040945D01*
X073821Y041079D01*
X073955Y041400D01*
X073821Y041721D01*
X073500Y041855D01*
D02*
G37*
G36*
X038218Y041790D02*
Y041475D01*
X038534D01*
X038441Y041698D01*
X038218Y041790D01*
D02*
G37*
G36*
X046832D02*
Y041475D01*
X047147D01*
X047055Y041698D01*
X046832Y041790D01*
D02*
G37*
G36*
X046482D02*
X046259Y041698D01*
X046166Y041475D01*
X046482D01*
Y041790D01*
D02*
G37*
G36*
X036380Y041863D02*
X035982Y041698D01*
X035817Y041300D01*
X035982Y040902D01*
X036380Y040737D01*
X036778Y040902D01*
X036943Y041300D01*
X036778Y041698D01*
X036380Y041863D01*
D02*
G37*
G36*
X037522Y039949D02*
X037222Y039825D01*
X037098Y039525D01*
X037522D01*
Y039949D01*
D02*
G37*
G36*
X048310Y040021D02*
X047835Y039825D01*
X047657Y039393D01*
X047657Y039393D01*
X047639Y039350D01*
X047657Y039307D01*
X047657Y039307D01*
X047835Y038875D01*
X048259Y038700D01*
X047835Y038525D01*
X047657Y038093D01*
X047478Y038525D01*
X047054Y038700D01*
X047054Y038700D01*
X047003Y038721D01*
X046952Y038700D01*
X046952Y038700D01*
X046529Y038525D01*
X046332Y038050D01*
X046529Y037575D01*
X047003Y037379D01*
X047478Y037575D01*
X047657Y038007D01*
X047835Y037575D01*
X048310Y037379D01*
X048785Y037575D01*
X048981Y038050D01*
X048785Y038525D01*
X048361Y038700D01*
X048785Y038875D01*
X048981Y039350D01*
X048785Y039825D01*
X048310Y040021D01*
D02*
G37*
G36*
X037872Y039949D02*
Y039525D01*
X038295D01*
X038171Y039825D01*
X037872Y039949D01*
D02*
G37*
G36*
X047178D02*
Y039525D01*
X047602D01*
X047478Y039825D01*
X047178Y039949D01*
D02*
G37*
G36*
X046828D02*
X046529Y039825D01*
X046405Y039525D01*
X046828D01*
Y039949D01*
D02*
G37*
G36*
X089464Y039550D02*
X089241Y039458D01*
X089149Y039235D01*
X089464D01*
Y039550D01*
D02*
G37*
G36*
X060452Y039225D02*
X060375D01*
Y039148D01*
X060430Y039170D01*
X060452Y039225D01*
D02*
G37*
G36*
X089814Y039550D02*
Y039235D01*
X090130D01*
X090037Y039458D01*
X089814Y039550D01*
D02*
G37*
G36*
X043003Y040021D02*
X042529Y039825D01*
X042350Y039393D01*
X042171Y039825D01*
X041697Y040021D01*
X041222Y039825D01*
X041026Y039350D01*
X041222Y038875D01*
X041646Y038700D01*
X041222Y038525D01*
X041026Y038050D01*
X041222Y037575D01*
X041697Y037379D01*
X042171Y037575D01*
X042350Y038007D01*
X042529Y037575D01*
X043003Y037379D01*
X043478Y037575D01*
X043674Y038050D01*
X043478Y038525D01*
X043054Y038700D01*
X043478Y038875D01*
X043674Y039350D01*
X043478Y039825D01*
X043003Y040021D01*
D02*
G37*
G36*
X036390D02*
X035915Y039825D01*
X035719Y039350D01*
X035915Y038875D01*
X036339Y038700D01*
X035915Y038525D01*
X035719Y038050D01*
X035915Y037575D01*
X036390Y037379D01*
X036865Y037575D01*
X037043Y038007D01*
X037222Y037575D01*
X037697Y037379D01*
X038171Y037575D01*
X038368Y038050D01*
X038171Y038525D01*
X037748Y038700D01*
X037748Y038700D01*
X037697Y038721D01*
X037646Y038700D01*
X037646Y038700D01*
X037222Y038525D01*
X037043Y038093D01*
X036865Y038525D01*
X036441Y038700D01*
X036865Y038875D01*
X037043Y039307D01*
X037043Y039307D01*
X037061Y039350D01*
X037043Y039393D01*
X037043Y039393D01*
X036865Y039825D01*
X036390Y040021D01*
D02*
G37*
G36*
X054920Y040820D02*
X054080D01*
Y039980D01*
X054920D01*
Y040820D01*
D02*
G37*
G36*
X073500Y040855D02*
X073179Y040721D01*
X073045Y040400D01*
X073179Y040079D01*
X073500Y039945D01*
X073821Y040079D01*
X073955Y040400D01*
X073821Y040721D01*
X073500Y040855D01*
D02*
G37*
G36*
X087919Y042021D02*
X087445Y041825D01*
X087248Y041350D01*
X087445Y040875D01*
X087919Y040679D01*
X088394Y040875D01*
X088590Y041350D01*
X088394Y041825D01*
X087919Y042021D01*
D02*
G37*
G36*
X069400Y042071D02*
X068925Y041875D01*
X068861Y041719D01*
X059800D01*
X059640Y041653D01*
X059574Y041626D01*
X056468Y038519D01*
X053592D01*
X052917Y039195D01*
X052981Y039350D01*
X052785Y039825D01*
X052310Y040021D01*
X051835Y039825D01*
X051639Y039350D01*
X051835Y038875D01*
X052259Y038700D01*
X052259Y038700D01*
X052310Y038679D01*
X052361Y038700D01*
X052361Y038700D01*
X052465Y038743D01*
X052613Y038596D01*
X052485Y038649D01*
Y038225D01*
X052909D01*
X052856Y038353D01*
X053234Y037974D01*
X053460Y037881D01*
X056600D01*
X056826Y037974D01*
X059932Y041081D01*
X068861D01*
X068925Y040925D01*
X069400Y040729D01*
X069875Y040925D01*
X070071Y041400D01*
X069875Y041875D01*
X069400Y042071D01*
D02*
G37*
G36*
X091919Y042021D02*
X091445Y041825D01*
X091248Y041350D01*
X091445Y040875D01*
X091919Y040679D01*
X092394Y040875D01*
X092590Y041350D01*
X092394Y041825D01*
X091919Y042021D01*
D02*
G37*
G36*
X060375Y039652D02*
Y039575D01*
X060452D01*
X060430Y039630D01*
X060375Y039652D01*
D02*
G37*
G36*
X060025D02*
X059970Y039630D01*
X059948Y039575D01*
X060025D01*
Y039652D01*
D02*
G37*
G36*
X061525Y039999D02*
X061225Y039875D01*
X061101Y039575D01*
X061525D01*
Y039999D01*
D02*
G37*
G36*
X068400Y041071D02*
X067925Y040875D01*
X067729Y040400D01*
X067925Y039925D01*
X068400Y039729D01*
X068875Y039925D01*
X069071Y040400D01*
X068875Y040875D01*
X068400Y041071D01*
D02*
G37*
G36*
X061875Y039999D02*
Y039575D01*
X062299D01*
X062175Y039875D01*
X061875Y039999D01*
D02*
G37*
G36*
X091919Y043661D02*
X091445Y043465D01*
X091248Y042990D01*
X091445Y042515D01*
X091919Y042319D01*
X092394Y042515D01*
X092590Y042990D01*
X092394Y043465D01*
X091919Y043661D01*
D02*
G37*
G36*
X041340Y046489D02*
X041022Y046358D01*
X040891Y046040D01*
X041022Y045722D01*
X041340Y045591D01*
X041658Y045722D01*
X041789Y046040D01*
X041658Y046358D01*
X041340Y046489D01*
D02*
G37*
G36*
X040340D02*
X040022Y046358D01*
X039891Y046040D01*
X040022Y045722D01*
X040340Y045591D01*
X040658Y045722D01*
X040789Y046040D01*
X040658Y046358D01*
X040340Y046489D01*
D02*
G37*
G36*
X042340D02*
X042022Y046358D01*
X041891Y046040D01*
X042022Y045722D01*
X042340Y045591D01*
X042658Y045722D01*
X042789Y046040D01*
X042658Y046358D01*
X042340Y046489D01*
D02*
G37*
G36*
X044340D02*
X044022Y046358D01*
X043891Y046040D01*
X044022Y045722D01*
X044340Y045591D01*
X044658Y045722D01*
X044789Y046040D01*
X044658Y046358D01*
X044340Y046489D01*
D02*
G37*
G36*
X043340D02*
X043022Y046358D01*
X042891Y046040D01*
X043022Y045722D01*
X043340Y045591D01*
X043658Y045722D01*
X043789Y046040D01*
X043658Y046358D01*
X043340Y046489D01*
D02*
G37*
G36*
X054500Y045855D02*
X054179Y045721D01*
X054045Y045400D01*
X054179Y045079D01*
X054500Y044945D01*
X054821Y045079D01*
X054955Y045400D01*
X054821Y045721D01*
X054500Y045855D01*
D02*
G37*
G36*
X080054Y044999D02*
Y044575D01*
X080478D01*
X080354Y044875D01*
X080054Y044999D01*
D02*
G37*
G36*
X073920Y045820D02*
X073080D01*
Y044980D01*
X073920D01*
Y045820D01*
D02*
G37*
G36*
X039340Y046489D02*
X039022Y046358D01*
X038891Y046040D01*
X039022Y045722D01*
X039340Y045591D01*
X039658Y045722D01*
X039789Y046040D01*
X039658Y046358D01*
X039340Y046489D01*
D02*
G37*
G36*
X079899Y046921D02*
X079425Y046725D01*
X079228Y046250D01*
X079425Y045775D01*
X079899Y045579D01*
X080374Y045775D01*
X080570Y046250D01*
X080374Y046725D01*
X079899Y046921D01*
D02*
G37*
G36*
X093793Y047555D02*
X092845D01*
X092898Y047427D01*
X092975Y047395D01*
X092898Y047363D01*
X092773Y047061D01*
X092898Y046758D01*
X092975Y046726D01*
X092898Y046694D01*
X092773Y046391D01*
X092898Y046089D01*
X093201Y045963D01*
X093437D01*
X093740Y046089D01*
X093866Y046391D01*
X093740Y046694D01*
X093663Y046726D01*
X093740Y046758D01*
X093866Y047061D01*
X093740Y047363D01*
X093663Y047395D01*
X093740Y047427D01*
X093793Y047555D01*
D02*
G37*
G36*
X091259Y062861D02*
X090785Y062665D01*
X090588Y062190D01*
X090785Y061715D01*
X091259Y061519D01*
X091734Y061715D01*
X091742Y061735D01*
X092822D01*
X094745Y059812D01*
Y046883D01*
X094725Y046875D01*
X094529Y046400D01*
X094537Y046380D01*
X094112Y045955D01*
X091717D01*
X091807Y045992D01*
X091972Y046390D01*
X091807Y046788D01*
X091409Y046953D01*
X091011Y046788D01*
X090846Y046390D01*
X091011Y045992D01*
X091102Y045955D01*
X090200D01*
X089879Y045821D01*
X089512Y045455D01*
X084483D01*
X084475Y045475D01*
X084000Y045671D01*
X083525Y045475D01*
X083329Y045000D01*
X083525Y044525D01*
X084000Y044329D01*
X084475Y044525D01*
X084483Y044545D01*
X089700D01*
X090021Y044679D01*
X090388Y045045D01*
X094300D01*
X094621Y045179D01*
X095180Y045737D01*
X095200Y045729D01*
X095675Y045925D01*
X095871Y046400D01*
X095675Y046875D01*
X095655Y046883D01*
Y060000D01*
X095521Y060321D01*
X093331Y062511D01*
X093010Y062645D01*
X091742D01*
X091734Y062665D01*
X091259Y062861D01*
D02*
G37*
G36*
X088654Y046810D02*
X088431Y046718D01*
X088339Y046495D01*
X088654D01*
Y046810D01*
D02*
G37*
G36*
X054500Y047855D02*
X054179Y047721D01*
X054045Y047400D01*
X054179Y047079D01*
X054500Y046945D01*
X054821Y047079D01*
X054955Y047400D01*
X054821Y047721D01*
X054500Y047855D01*
D02*
G37*
G36*
X089004Y046810D02*
Y046495D01*
X089320D01*
X089227Y046718D01*
X089004Y046810D01*
D02*
G37*
G36*
X086829Y046883D02*
X086431Y046718D01*
X086266Y046320D01*
X086431Y045922D01*
X086829Y045757D01*
X087227Y045922D01*
X087392Y046320D01*
X087227Y046718D01*
X086829Y046883D01*
D02*
G37*
G36*
X045340Y046489D02*
X045022Y046358D01*
X044891Y046040D01*
X045022Y045722D01*
X045340Y045591D01*
X045658Y045722D01*
X045789Y046040D01*
X045658Y046358D01*
X045340Y046489D01*
D02*
G37*
G36*
X088654Y046145D02*
X088339D01*
X088431Y045922D01*
X088654Y045830D01*
Y046145D01*
D02*
G37*
G36*
X054500Y046855D02*
X054179Y046721D01*
X054045Y046400D01*
X054179Y046079D01*
X054500Y045945D01*
X054821Y046079D01*
X054955Y046400D01*
X054821Y046721D01*
X054500Y046855D01*
D02*
G37*
G36*
X089320Y046145D02*
X089004D01*
Y045830D01*
X089227Y045922D01*
X089320Y046145D01*
D02*
G37*
G36*
X079704Y044999D02*
X079405Y044875D01*
X079281Y044575D01*
X079704D01*
Y044999D01*
D02*
G37*
G36*
X044340Y043489D02*
X044022Y043358D01*
X043891Y043040D01*
X044022Y042722D01*
X044340Y042591D01*
X044658Y042722D01*
X044789Y043040D01*
X044658Y043358D01*
X044340Y043489D01*
D02*
G37*
G36*
X043340D02*
X043022Y043358D01*
X042891Y043040D01*
X043022Y042722D01*
X043340Y042591D01*
X043658Y042722D01*
X043789Y043040D01*
X043658Y043358D01*
X043340Y043489D01*
D02*
G37*
G36*
X045340D02*
X045022Y043358D01*
X044891Y043040D01*
X045022Y042722D01*
X045340Y042591D01*
X045658Y042722D01*
X045789Y043040D01*
X045658Y043358D01*
X045340Y043489D01*
D02*
G37*
G36*
X036700Y044171D02*
X036225Y043975D01*
X036029Y043500D01*
X036225Y043025D01*
X036700Y042829D01*
X037175Y043025D01*
X037371Y043500D01*
X037175Y043975D01*
X036700Y044171D01*
D02*
G37*
G36*
X039755Y043455D02*
X038925D01*
Y042625D01*
X039755D01*
Y043455D01*
D02*
G37*
G36*
X093584Y042769D02*
Y042535D01*
X093818D01*
X093750Y042701D01*
X093584Y042769D01*
D02*
G37*
G36*
X093234D02*
X093069Y042701D01*
X093000Y042535D01*
X093234D01*
Y042769D01*
D02*
G37*
G36*
X040340Y043489D02*
X040022Y043358D01*
X039891Y043040D01*
X040022Y042722D01*
X040340Y042591D01*
X040658Y042722D01*
X040789Y043040D01*
X040658Y043358D01*
X040340Y043489D01*
D02*
G37*
G36*
X042340D02*
X042022Y043358D01*
X041891Y043040D01*
X042022Y042722D01*
X042340Y042591D01*
X042658Y042722D01*
X042789Y043040D01*
X042658Y043358D01*
X042340Y043489D01*
D02*
G37*
G36*
X041340D02*
X041022Y043358D01*
X040891Y043040D01*
X041022Y042722D01*
X041340Y042591D01*
X041658Y042722D01*
X041789Y043040D01*
X041658Y043358D01*
X041340Y043489D01*
D02*
G37*
G36*
X054500Y044855D02*
X054179Y044721D01*
X054045Y044400D01*
X054179Y044079D01*
X054500Y043945D01*
X054821Y044079D01*
X054955Y044400D01*
X054821Y044721D01*
X054500Y044855D01*
D02*
G37*
G36*
X091900Y044215D02*
X091584D01*
Y043900D01*
X091807Y043992D01*
X091900Y044215D01*
D02*
G37*
G36*
X073500Y044855D02*
X073179Y044721D01*
X073045Y044400D01*
X073179Y044079D01*
X073500Y043945D01*
X073821Y044079D01*
X073955Y044400D01*
X073821Y044721D01*
X073500Y044855D01*
D02*
G37*
G36*
X091584Y044880D02*
Y044565D01*
X091900D01*
X091807Y044788D01*
X091584Y044880D01*
D02*
G37*
G36*
X091234D02*
X091011Y044788D01*
X090919Y044565D01*
X091234D01*
Y044880D01*
D02*
G37*
G36*
X073500Y043855D02*
X073179Y043721D01*
X073045Y043400D01*
X073179Y043079D01*
X073500Y042945D01*
X073821Y043079D01*
X073955Y043400D01*
X073821Y043721D01*
X073500Y043855D01*
D02*
G37*
G36*
X054500D02*
X054179Y043721D01*
X054045Y043400D01*
X054179Y043079D01*
X054500Y042945D01*
X054821Y043079D01*
X054955Y043400D01*
X054821Y043721D01*
X054500Y043855D01*
D02*
G37*
G36*
X079704Y044225D02*
X079281D01*
X079405Y043925D01*
X079704Y043801D01*
Y044225D01*
D02*
G37*
G36*
X091234Y044215D02*
X090919D01*
X091011Y043992D01*
X091234Y043900D01*
Y044215D01*
D02*
G37*
G36*
X080478Y044225D02*
X080054D01*
Y043801D01*
X080354Y043925D01*
X080478Y044225D01*
D02*
G37*
G36*
X060025Y039225D02*
X059948D01*
X059970Y039170D01*
X060025Y039148D01*
Y039225D01*
D02*
G37*
G36*
X079879Y031371D02*
X079405Y031175D01*
X079208Y030700D01*
X079405Y030225D01*
X079879Y030029D01*
X080354Y030225D01*
X080550Y030700D01*
X080354Y031175D01*
X079879Y031371D01*
D02*
G37*
G36*
X087889Y029201D02*
X087415Y029005D01*
X087218Y028530D01*
X087415Y028055D01*
X087889Y027859D01*
X088364Y028055D01*
X088560Y028530D01*
X088364Y029005D01*
X087889Y029201D01*
D02*
G37*
G36*
X048900Y033141D02*
X048425Y032945D01*
X048229Y032470D01*
X048425Y031995D01*
X048728Y031870D01*
X048425Y031745D01*
X048229Y031270D01*
X048425Y030795D01*
X048900Y030599D01*
X049375Y030795D01*
X049571Y031270D01*
X049375Y031745D01*
X049072Y031870D01*
X049375Y031995D01*
X049571Y032470D01*
X049375Y032945D01*
X048900Y033141D01*
D02*
G37*
G36*
X052725Y031095D02*
X052301D01*
X052425Y030795D01*
X052725Y030671D01*
Y031095D01*
D02*
G37*
G36*
X044450Y033171D02*
X043975Y032975D01*
X043779Y032500D01*
X043975Y032025D01*
X044278Y031900D01*
X043975Y031775D01*
X043779Y031300D01*
X043975Y030825D01*
X044450Y030629D01*
X044925Y030825D01*
X045121Y031300D01*
X044925Y031775D01*
X044622Y031900D01*
X044925Y032025D01*
X045121Y032500D01*
X044925Y032975D01*
X044450Y033171D01*
D02*
G37*
G36*
X042452Y028340D02*
X042014Y028158D01*
X041832Y027720D01*
X042014Y027282D01*
X042452Y027100D01*
X042890Y027282D01*
X043072Y027720D01*
X042890Y028158D01*
X042452Y028340D01*
D02*
G37*
G36*
X033436D02*
X032998Y028158D01*
X032816Y027720D01*
X032998Y027282D01*
X033436Y027100D01*
X033875Y027282D01*
X034056Y027720D01*
X033875Y028158D01*
X033436Y028340D01*
D02*
G37*
G36*
X044460D02*
X044022Y028158D01*
X043840Y027720D01*
X044022Y027282D01*
X044460Y027100D01*
X044898Y027282D01*
X045080Y027720D01*
X044898Y028158D01*
X044460Y028340D01*
D02*
G37*
G36*
X093544Y027459D02*
Y027225D01*
X093778D01*
X093710Y027391D01*
X093544Y027459D01*
D02*
G37*
G36*
X093194D02*
X093029Y027391D01*
X092960Y027225D01*
X093194D01*
Y027459D01*
D02*
G37*
G36*
X040625Y031899D02*
Y031475D01*
X041049D01*
X040925Y031775D01*
X040625Y031899D01*
D02*
G37*
G36*
X040275D02*
X039975Y031775D01*
X039851Y031475D01*
X040275D01*
Y031899D01*
D02*
G37*
G36*
X052725Y032295D02*
X052301D01*
X052425Y031995D01*
X052725Y031871D01*
Y032295D01*
D02*
G37*
G36*
X079879Y033221D02*
X079405Y033025D01*
X079208Y032550D01*
X079405Y032075D01*
X079879Y031879D01*
X080354Y032075D01*
X080550Y032550D01*
X080354Y033025D01*
X079879Y033221D01*
D02*
G37*
G36*
X053499Y032295D02*
X053075D01*
Y031871D01*
X053375Y031995D01*
X053499Y032295D01*
D02*
G37*
G36*
X040275Y031125D02*
X039851D01*
X039975Y030825D01*
X040275Y030701D01*
Y031125D01*
D02*
G37*
G36*
X053499Y031095D02*
X053075D01*
Y030671D01*
X053375Y030795D01*
X053499Y031095D01*
D02*
G37*
G36*
X041049Y031125D02*
X040625D01*
Y030701D01*
X040925Y030825D01*
X041049Y031125D01*
D02*
G37*
G36*
X053075Y031869D02*
Y031445D01*
X053499D01*
X053375Y031745D01*
X053075Y031869D01*
D02*
G37*
G36*
X052725D02*
X052425Y031745D01*
X052301Y031445D01*
X052725D01*
Y031869D01*
D02*
G37*
G36*
X071330Y028020D02*
X070892Y027838D01*
X070710Y027400D01*
X070892Y026962D01*
X071330Y026780D01*
X071768Y026962D01*
X071950Y027400D01*
X071768Y027838D01*
X071330Y028020D01*
D02*
G37*
G36*
X064425Y023975D02*
X064185D01*
Y023735D01*
X064425D01*
Y023975D01*
D02*
G37*
G36*
X071370Y024599D02*
X071052Y024468D01*
X070921Y024150D01*
X071052Y023832D01*
X071370Y023701D01*
X071688Y023832D01*
X071819Y024150D01*
X071688Y024468D01*
X071370Y024599D01*
D02*
G37*
G36*
X065015Y023975D02*
X064775D01*
Y023735D01*
X065015D01*
Y023975D01*
D02*
G37*
G36*
X064425Y024565D02*
X064185D01*
Y024325D01*
X064425D01*
Y024565D01*
D02*
G37*
G36*
X070785D02*
X069955D01*
Y023735D01*
X070785D01*
Y024565D01*
D02*
G37*
G36*
X057000Y023483D02*
X055951Y023049D01*
X055517Y022000D01*
X055951Y020951D01*
X057000Y020517D01*
X058049Y020951D01*
X058483Y022000D01*
X058049Y023049D01*
X057000Y023483D01*
D02*
G37*
G36*
X032000D02*
X030951Y023049D01*
X030517Y022000D01*
X030951Y020951D01*
X032000Y020517D01*
X033049Y020951D01*
X033483Y022000D01*
X033049Y023049D01*
X032000Y023483D01*
D02*
G37*
G36*
X097000D02*
X095951Y023049D01*
X095517Y022000D01*
X095951Y020951D01*
X097000Y020517D01*
X098049Y020951D01*
X098483Y022000D01*
X098049Y023049D01*
X097000Y023483D01*
D02*
G37*
G36*
X066600Y024599D02*
X066282Y024468D01*
X066151Y024150D01*
X066282Y023832D01*
X066600Y023701D01*
X066918Y023832D01*
X067049Y024150D01*
X066918Y024468D01*
X066600Y024599D01*
D02*
G37*
G36*
X065600D02*
X065282Y024468D01*
X065151Y024150D01*
X065282Y023832D01*
X065600Y023701D01*
X065918Y023832D01*
X066049Y024150D01*
X065918Y024468D01*
X065600Y024599D01*
D02*
G37*
G36*
X087889Y027791D02*
X087415Y027595D01*
X087218Y027120D01*
X087415Y026645D01*
X087889Y026449D01*
X088364Y026645D01*
X088560Y027120D01*
X088364Y027595D01*
X087889Y027791D01*
D02*
G37*
G36*
X059934Y027400D02*
X059495Y027218D01*
X059314Y026780D01*
X059495Y026342D01*
X059934Y026160D01*
X060372Y026342D01*
X060554Y026780D01*
X060372Y027218D01*
X059934Y027400D01*
D02*
G37*
G36*
X093194Y026875D02*
X092960D01*
X093029Y026709D01*
X093194Y026641D01*
Y026875D01*
D02*
G37*
G36*
X065330Y028020D02*
X064892Y027838D01*
X064710Y027400D01*
X064892Y026962D01*
X065330Y026780D01*
X065768Y026962D01*
X065950Y027400D01*
X065768Y027838D01*
X065330Y028020D01*
D02*
G37*
G36*
X093778Y026875D02*
X093544D01*
Y026641D01*
X093710Y026709D01*
X093778Y026875D01*
D02*
G37*
G36*
X079879Y026371D02*
X079405Y026175D01*
X079208Y025700D01*
X079405Y025225D01*
X079879Y025029D01*
X080354Y025225D01*
X080550Y025700D01*
X080354Y026175D01*
X079879Y026371D01*
D02*
G37*
G36*
X065015Y024565D02*
X064775D01*
Y024325D01*
X065015D01*
Y024565D01*
D02*
G37*
G36*
X093369Y026532D02*
X093029Y026391D01*
X092888Y026050D01*
X093029Y025709D01*
X093369Y025568D01*
X093710Y025709D01*
X093851Y026050D01*
X093710Y026391D01*
X093369Y026532D01*
D02*
G37*
G36*
X050918Y027400D02*
X050480Y027218D01*
X050298Y026780D01*
X050480Y026342D01*
X050918Y026160D01*
X051356Y026342D01*
X051538Y026780D01*
X051356Y027218D01*
X050918Y027400D01*
D02*
G37*
G36*
X048910D02*
X048472Y027218D01*
X048290Y026780D01*
X048472Y026342D01*
X048910Y026160D01*
X049348Y026342D01*
X049530Y026780D01*
X049348Y027218D01*
X048910Y027400D01*
D02*
G37*
G36*
X040275Y032325D02*
X039851D01*
X039975Y032025D01*
X040275Y031901D01*
Y032325D01*
D02*
G37*
G36*
X032215Y038649D02*
X031915Y038525D01*
X031791Y038225D01*
X032215D01*
Y038649D01*
D02*
G37*
G36*
X052909Y037875D02*
X052485D01*
Y037451D01*
X052785Y037575D01*
X052909Y037875D01*
D02*
G37*
G36*
X032565Y038649D02*
Y038225D01*
X032989D01*
X032865Y038525D01*
X032565Y038649D01*
D02*
G37*
G36*
X091139Y039623D02*
X090741Y039458D01*
X090576Y039060D01*
X090741Y038662D01*
X091139Y038497D01*
X091537Y038662D01*
X091702Y039060D01*
X091537Y039458D01*
X091139Y039623D01*
D02*
G37*
G36*
X052135Y038649D02*
X051835Y038525D01*
X051711Y038225D01*
X052135D01*
Y038649D01*
D02*
G37*
G36*
X079879Y038221D02*
X079405Y038025D01*
X079208Y037550D01*
X079405Y037075D01*
X079879Y036879D01*
X080354Y037075D01*
X080550Y037550D01*
X080354Y038025D01*
X079879Y038221D01*
D02*
G37*
G36*
X091409Y037283D02*
X091011Y037118D01*
X090846Y036720D01*
X091011Y036322D01*
X091409Y036157D01*
X091807Y036322D01*
X091972Y036720D01*
X091807Y037118D01*
X091409Y037283D01*
D02*
G37*
G36*
X032215Y037875D02*
X031791D01*
X031915Y037575D01*
X032215Y037451D01*
Y037875D01*
D02*
G37*
G36*
X052135D02*
X051711D01*
X051835Y037575D01*
X052135Y037451D01*
Y037875D01*
D02*
G37*
G36*
X032989D02*
X032565D01*
Y037451D01*
X032865Y037575D01*
X032989Y037875D01*
D02*
G37*
G36*
X046828Y039175D02*
X046405D01*
X046529Y038875D01*
X046828Y038751D01*
Y039175D01*
D02*
G37*
G36*
X038295D02*
X037872D01*
Y038751D01*
X038171Y038875D01*
X038295Y039175D01*
D02*
G37*
G36*
X047602D02*
X047178D01*
Y038751D01*
X047478Y038875D01*
X047602Y039175D01*
D02*
G37*
G36*
X062299Y039225D02*
X061875D01*
Y038801D01*
X062175Y038925D01*
X062299Y039225D01*
D02*
G37*
G36*
X061525D02*
X061101D01*
X061225Y038925D01*
X061525Y038801D01*
Y039225D01*
D02*
G37*
G36*
X090130Y038885D02*
X089814D01*
Y038570D01*
X090037Y038662D01*
X090130Y038885D01*
D02*
G37*
G36*
X089464D02*
X089149D01*
X089241Y038662D01*
X089464Y038570D01*
Y038885D01*
D02*
G37*
G36*
X087889Y039981D02*
X087415Y039785D01*
X087218Y039310D01*
X087249Y039236D01*
X086107Y038094D01*
X085990Y037811D01*
Y035090D01*
X086107Y034807D01*
X087157Y033757D01*
X087157Y033757D01*
X087440Y033640D01*
X091633D01*
X092669Y032604D01*
X092638Y032530D01*
X092835Y032055D01*
X093309Y031859D01*
X093784Y032055D01*
X093980Y032530D01*
X093784Y033005D01*
X093309Y033201D01*
X093235Y033170D01*
X092082Y034323D01*
X091799Y034440D01*
X087606D01*
X086790Y035256D01*
Y037645D01*
X087815Y038670D01*
X087889Y038639D01*
X088364Y038835D01*
X088560Y039310D01*
X088364Y039785D01*
X087889Y039981D01*
D02*
G37*
G36*
X037522Y039175D02*
X037098D01*
X037222Y038875D01*
X037522Y038751D01*
Y039175D01*
D02*
G37*
G36*
X079879Y040071D02*
X079405Y039875D01*
X079208Y039400D01*
X079405Y038925D01*
X079879Y038729D01*
X080354Y038925D01*
X080550Y039400D01*
X080354Y039875D01*
X079879Y040071D01*
D02*
G37*
G36*
X089409Y037283D02*
X089011Y037118D01*
X088846Y036720D01*
X089011Y036322D01*
X089409Y036157D01*
X089807Y036322D01*
X089972Y036720D01*
X089807Y037118D01*
X089409Y037283D01*
D02*
G37*
G36*
X040625Y033099D02*
Y032675D01*
X041049D01*
X040925Y032975D01*
X040625Y033099D01*
D02*
G37*
G36*
X040275D02*
X039975Y032975D01*
X039851Y032675D01*
X040275D01*
Y033099D01*
D02*
G37*
G36*
X089224Y033410D02*
X089001Y033318D01*
X088909Y033095D01*
X089224D01*
Y033410D01*
D02*
G37*
G36*
X093793Y034536D02*
X092845D01*
X092898Y034408D01*
X092975Y034376D01*
X092898Y034344D01*
X092773Y034041D01*
X092898Y033739D01*
X093201Y033613D01*
X093437D01*
X093740Y033739D01*
X093866Y034041D01*
X093740Y034344D01*
X093663Y034376D01*
X093740Y034408D01*
X093793Y034536D01*
D02*
G37*
G36*
X089574Y033410D02*
Y033095D01*
X089890D01*
X089797Y033318D01*
X089574Y033410D01*
D02*
G37*
G36*
X089224Y032745D02*
X088909D01*
X089001Y032522D01*
X089224Y032430D01*
Y032745D01*
D02*
G37*
G36*
X041049Y032325D02*
X040625D01*
Y031901D01*
X040925Y032025D01*
X041049Y032325D01*
D02*
G37*
G36*
X089890Y032745D02*
X089574D01*
Y032430D01*
X089797Y032522D01*
X089890Y032745D01*
D02*
G37*
G36*
X053075Y033069D02*
Y032645D01*
X053499D01*
X053375Y032945D01*
X053075Y033069D01*
D02*
G37*
G36*
X052725D02*
X052425Y032945D01*
X052301Y032645D01*
X052725D01*
Y033069D01*
D02*
G37*
G36*
X089244Y035205D02*
X088929D01*
X089021Y034982D01*
X089244Y034890D01*
Y035205D01*
D02*
G37*
G36*
X093833Y037114D02*
X092806D01*
Y036323D01*
X092886D01*
X092773Y036049D01*
X092898Y035747D01*
X092975Y035715D01*
X092898Y035683D01*
X092773Y035380D01*
X092898Y035077D01*
X092975Y035045D01*
X092898Y035013D01*
X092845Y034886D01*
X093793D01*
X093740Y035013D01*
X093663Y035045D01*
X093740Y035077D01*
X093866Y035380D01*
X093740Y035683D01*
X093663Y035715D01*
X093740Y035747D01*
X093866Y036049D01*
X093752Y036323D01*
X093833D01*
Y037114D01*
D02*
G37*
G36*
X089910Y035205D02*
X089594D01*
Y034890D01*
X089817Y034982D01*
X089910Y035205D01*
D02*
G37*
G36*
X089594Y035870D02*
Y035555D01*
X089910D01*
X089817Y035778D01*
X089594Y035870D01*
D02*
G37*
G36*
X089244D02*
X089021Y035778D01*
X088929Y035555D01*
X089244D01*
Y035870D01*
D02*
G37*
G36*
X065330Y036020D02*
X064892Y035838D01*
X064710Y035400D01*
X064892Y034962D01*
X065330Y034780D01*
X065768Y034962D01*
X065950Y035400D01*
X065768Y035838D01*
X065330Y036020D01*
D02*
G37*
G36*
X087889Y035981D02*
X087415Y035785D01*
X087218Y035310D01*
X087415Y034835D01*
X087889Y034639D01*
X088364Y034835D01*
X088560Y035310D01*
X088364Y035785D01*
X087889Y035981D01*
D02*
G37*
G36*
X068330Y036020D02*
X067892Y035838D01*
X067710Y035400D01*
X067892Y034962D01*
X068330Y034780D01*
X068768Y034962D01*
X068950Y035400D01*
X068768Y035838D01*
X068330Y036020D01*
D02*
G37*
G36*
X091419Y035943D02*
X091021Y035778D01*
X090856Y035380D01*
X091021Y034982D01*
X091419Y034817D01*
X091817Y034982D01*
X091982Y035380D01*
X091817Y035778D01*
X091419Y035943D01*
D02*
G37*
G36*
X071330Y036020D02*
X070892Y035838D01*
X070710Y035400D01*
X070892Y034962D01*
X071330Y034780D01*
X071768Y034962D01*
X071950Y035400D01*
X071768Y035838D01*
X071330Y036020D01*
D02*
G37*
G36*
X073920Y047820D02*
X073080D01*
Y046980D01*
X073920D01*
Y047820D01*
D02*
G37*
G36*
X042640Y059079D02*
X042322Y058948D01*
X042191Y058630D01*
X042322Y058312D01*
X042640Y058181D01*
X042958Y058312D01*
X043089Y058630D01*
X042958Y058948D01*
X042640Y059079D01*
D02*
G37*
G36*
X087924Y058460D02*
Y058145D01*
X088240D01*
X088147Y058368D01*
X087924Y058460D01*
D02*
G37*
G36*
X045640Y059079D02*
X045322Y058948D01*
X045191Y058630D01*
X045322Y058312D01*
X045640Y058181D01*
X045958Y058312D01*
X046089Y058630D01*
X045958Y058948D01*
X045640Y059079D01*
D02*
G37*
G36*
X093125Y058815D02*
X092901D01*
X092967Y058657D01*
X093125Y058592D01*
Y058815D01*
D02*
G37*
G36*
X041420Y059861D02*
X040945Y059665D01*
X040749Y059190D01*
X040945Y058715D01*
X041420Y058519D01*
X041895Y058715D01*
X042091Y059190D01*
X041895Y059665D01*
X041420Y059861D01*
D02*
G37*
G36*
X054500Y058455D02*
X054179Y058321D01*
X054045Y058000D01*
X054179Y057679D01*
X054500Y057545D01*
X054821Y057679D01*
X054955Y058000D01*
X054821Y058321D01*
X054500Y058455D01*
D02*
G37*
G36*
X093300Y058461D02*
X092967Y058323D01*
X092829Y057990D01*
X092967Y057657D01*
X093300Y057519D01*
X093632Y057657D01*
X093770Y057990D01*
X093632Y058323D01*
X093300Y058461D01*
D02*
G37*
G36*
X046620Y058301D02*
X046145Y058105D01*
X046019Y057800D01*
X045958Y057948D01*
X045640Y058079D01*
X045322Y057948D01*
X045191Y057630D01*
X045322Y057312D01*
X045640Y057181D01*
X045958Y057312D01*
X046019Y057460D01*
X046145Y057155D01*
X046620Y056959D01*
X047095Y057155D01*
X047291Y057630D01*
X047095Y058105D01*
X046620Y058301D01*
D02*
G37*
G36*
X087574Y058460D02*
X087351Y058368D01*
X087259Y058145D01*
X087574D01*
Y058460D01*
D02*
G37*
G36*
X037210Y058561D02*
X036735Y058365D01*
X036560Y057941D01*
X036385Y058365D01*
X035910Y058561D01*
X035435Y058365D01*
X035239Y057890D01*
X035435Y057415D01*
X035859Y057240D01*
X035435Y057065D01*
X035239Y056590D01*
X035435Y056115D01*
X035910Y055919D01*
X036385Y056115D01*
X036560Y056539D01*
X036735Y056115D01*
X037210Y055919D01*
X037685Y056115D01*
X037881Y056590D01*
X037685Y057065D01*
X037261Y057240D01*
X037685Y057415D01*
X037881Y057890D01*
X037685Y058365D01*
X037210Y058561D01*
D02*
G37*
G36*
X093698Y058815D02*
X093475D01*
Y058592D01*
X093632Y058657D01*
X093698Y058815D01*
D02*
G37*
G36*
X091249Y060553D02*
X090851Y060388D01*
X090686Y059990D01*
X090851Y059592D01*
X091249Y059427D01*
X091647Y059592D01*
X091812Y059990D01*
X091647Y060388D01*
X091249Y060553D01*
D02*
G37*
G36*
X079849Y060621D02*
X079375Y060425D01*
X079178Y059950D01*
X079375Y059475D01*
X079849Y059279D01*
X080324Y059475D01*
X080520Y059950D01*
X080324Y060425D01*
X079849Y060621D01*
D02*
G37*
G36*
X087574Y059815D02*
X087259D01*
X087351Y059592D01*
X087574Y059500D01*
Y059815D01*
D02*
G37*
G36*
X093735Y060425D02*
X092865D01*
Y059555D01*
X093735D01*
Y060425D01*
D02*
G37*
G36*
X088240Y059815D02*
X087924D01*
Y059500D01*
X088147Y059592D01*
X088240Y059815D01*
D02*
G37*
G36*
X093125Y059388D02*
X092967Y059323D01*
X092901Y059165D01*
X093125D01*
Y059388D01*
D02*
G37*
G36*
X049070Y059943D02*
X048672Y059778D01*
X048507Y059380D01*
X048672Y058982D01*
X049070Y058817D01*
X049468Y058982D01*
X049633Y059380D01*
X049468Y059778D01*
X049070Y059943D01*
D02*
G37*
G36*
X093475Y059388D02*
Y059165D01*
X093698D01*
X093632Y059323D01*
X093475Y059388D01*
D02*
G37*
G36*
X045640Y060079D02*
X045322Y059948D01*
X045191Y059630D01*
X045322Y059312D01*
X045640Y059181D01*
X045958Y059312D01*
X046089Y059630D01*
X045958Y059948D01*
X045640Y060079D01*
D02*
G37*
G36*
X042640D02*
X042322Y059948D01*
X042191Y059630D01*
X042322Y059312D01*
X042640Y059181D01*
X042958Y059312D01*
X043089Y059630D01*
X042958Y059948D01*
X042640Y060079D01*
D02*
G37*
G36*
X039200Y057163D02*
X038802Y056998D01*
X038637Y056600D01*
X038802Y056202D01*
X039200Y056037D01*
X039598Y056202D01*
X039763Y056600D01*
X039598Y056998D01*
X039200Y057163D01*
D02*
G37*
G36*
X059776Y056165D02*
X059515D01*
Y055904D01*
X059565D01*
X059714Y055966D01*
X059776Y056115D01*
Y056165D01*
D02*
G37*
G36*
X048895Y056370D02*
X048672Y056278D01*
X048580Y056055D01*
X048895D01*
Y056370D01*
D02*
G37*
G36*
X042640Y057079D02*
X042322Y056948D01*
X042191Y056630D01*
X042322Y056312D01*
X042640Y056181D01*
X042958Y056312D01*
X043089Y056630D01*
X042958Y056948D01*
X042640Y057079D01*
D02*
G37*
G36*
X049245Y056370D02*
Y056055D01*
X049560D01*
X049468Y056278D01*
X049245Y056370D01*
D02*
G37*
G36*
X050885Y055989D02*
X050585Y055865D01*
X050461Y055565D01*
X050885D01*
Y055989D01*
D02*
G37*
G36*
X054500Y056455D02*
X054179Y056321D01*
X054045Y056000D01*
X054179Y055679D01*
X054500Y055545D01*
X054821Y055679D01*
X054955Y056000D01*
X054821Y056321D01*
X054500Y056455D01*
D02*
G37*
G36*
X051235Y055989D02*
Y055565D01*
X051659D01*
X051535Y055865D01*
X051235Y055989D01*
D02*
G37*
G36*
X059165Y056165D02*
X058904D01*
Y056115D01*
X058966Y055966D01*
X059115Y055904D01*
X059165D01*
Y056165D01*
D02*
G37*
G36*
X062220Y056795D02*
X061899Y056661D01*
X061765Y056340D01*
X061899Y056019D01*
X062220Y055885D01*
X062541Y056019D01*
X062675Y056340D01*
X062541Y056661D01*
X062220Y056795D01*
D02*
G37*
G36*
X045640Y057079D02*
X045322Y056948D01*
X045191Y056630D01*
X045322Y056312D01*
X045640Y056181D01*
X045958Y056312D01*
X046089Y056630D01*
X045958Y056948D01*
X045640Y057079D01*
D02*
G37*
G36*
X089749Y058533D02*
X089351Y058368D01*
X089186Y057970D01*
X089351Y057572D01*
X089749Y057407D01*
X090147Y057572D01*
X090312Y057970D01*
X090147Y058368D01*
X089749Y058533D01*
D02*
G37*
G36*
X039200Y058463D02*
X038802Y058298D01*
X038637Y057900D01*
X038802Y057502D01*
X039200Y057337D01*
X039598Y057502D01*
X039763Y057900D01*
X039598Y058298D01*
X039200Y058463D01*
D02*
G37*
G36*
X079849Y058771D02*
X079375Y058575D01*
X079178Y058100D01*
X079375Y057625D01*
X079849Y057429D01*
X080324Y057625D01*
X080520Y058100D01*
X080324Y058575D01*
X079849Y058771D01*
D02*
G37*
G36*
X088240Y057795D02*
X087924D01*
Y057480D01*
X088147Y057572D01*
X088240Y057795D01*
D02*
G37*
G36*
X087574D02*
X087259D01*
X087351Y057572D01*
X087574Y057480D01*
Y057795D01*
D02*
G37*
G36*
X059565Y056776D02*
X059515D01*
Y056515D01*
X059776D01*
Y056565D01*
X059714Y056714D01*
X059565Y056776D01*
D02*
G37*
G36*
X059165D02*
X059115D01*
X058966Y056714D01*
X058904Y056565D01*
Y056515D01*
X059165D01*
Y056776D01*
D02*
G37*
G36*
X054500Y057455D02*
X054179Y057321D01*
X054045Y057000D01*
X054179Y056679D01*
X054500Y056545D01*
X054821Y056679D01*
X054955Y057000D01*
X054821Y057321D01*
X054500Y057455D01*
D02*
G37*
G36*
X091399Y058611D02*
X090925Y058415D01*
X090728Y057940D01*
X090925Y057465D01*
X091399Y057269D01*
X091874Y057465D01*
X092070Y057940D01*
X091874Y058415D01*
X091399Y058611D01*
D02*
G37*
G36*
X042640Y058079D02*
X042322Y057948D01*
X042191Y057630D01*
X042322Y057312D01*
X042640Y057181D01*
X042958Y057312D01*
X043089Y057630D01*
X042958Y057948D01*
X042640Y058079D01*
D02*
G37*
G36*
X049070Y064743D02*
X048672Y064578D01*
X048507Y064180D01*
X048672Y063782D01*
X049070Y063617D01*
X049468Y063782D01*
X049633Y064180D01*
X049468Y064578D01*
X049070Y064743D01*
D02*
G37*
G36*
X035875Y063717D02*
Y063425D01*
X036043D01*
Y063447D01*
X035943Y063689D01*
X035875Y063717D01*
D02*
G37*
G36*
X035200Y063790D02*
X035017Y063714D01*
Y063764D01*
X034383D01*
Y063262D01*
X034378Y063250D01*
X034383Y063238D01*
Y062736D01*
X035017D01*
Y062786D01*
X035200Y062710D01*
X035443Y062811D01*
X035450Y062829D01*
X035457Y062811D01*
X035525Y062783D01*
Y063010D01*
X035543Y063053D01*
Y063250D01*
Y063447D01*
X035525Y063490D01*
Y063717D01*
X035457Y063689D01*
X035450Y063671D01*
X035443Y063689D01*
X035200Y063790D01*
D02*
G37*
G36*
X093755Y064115D02*
X093514D01*
Y063875D01*
X093755D01*
Y064115D01*
D02*
G37*
G36*
X093164D02*
X092924D01*
Y063875D01*
X093164D01*
Y064115D01*
D02*
G37*
G36*
X093339Y063739D02*
X093021Y063608D01*
X092890Y063290D01*
X093021Y062972D01*
X093339Y062841D01*
X093657Y062972D01*
X093789Y063290D01*
X093657Y063608D01*
X093339Y063739D01*
D02*
G37*
G36*
X036043Y063075D02*
X035875D01*
Y062783D01*
X035943Y062811D01*
X036043Y063053D01*
Y063075D01*
D02*
G37*
G36*
X087359Y064012D02*
X087019Y063871D01*
X086878Y063530D01*
X087019Y063189D01*
X087359Y063048D01*
X087700Y063189D01*
X087841Y063530D01*
X087700Y063871D01*
X087359Y064012D01*
D02*
G37*
G36*
X037385Y063829D02*
Y063405D01*
X037809D01*
X037685Y063705D01*
X037385Y063829D01*
D02*
G37*
G36*
X037035D02*
X036735Y063705D01*
X036611Y063405D01*
X037035D01*
Y063829D01*
D02*
G37*
G36*
X052185Y064515D02*
X051761D01*
X051885Y064215D01*
X052185Y064091D01*
Y064515D01*
D02*
G37*
G36*
X087184Y064939D02*
X087019Y064871D01*
X086950Y064705D01*
X087184D01*
Y064939D01*
D02*
G37*
G36*
X093755Y064705D02*
X093514D01*
Y064465D01*
X093755D01*
Y064705D01*
D02*
G37*
G36*
X087534Y064939D02*
Y064705D01*
X087768D01*
X087700Y064871D01*
X087534Y064939D01*
D02*
G37*
G36*
X097000Y068483D02*
X095951Y068049D01*
X095517Y067000D01*
X095951Y065951D01*
X097000Y065517D01*
X098049Y065951D01*
X098483Y067000D01*
X098049Y068049D01*
X097000Y068483D01*
D02*
G37*
G36*
X032000D02*
X030951Y068049D01*
X030517Y067000D01*
X030951Y065951D01*
X032000Y065517D01*
X033049Y065951D01*
X033483Y067000D01*
X033049Y068049D01*
X032000Y068483D01*
D02*
G37*
G36*
X087184Y064355D02*
X086950D01*
X087019Y064189D01*
X087184Y064121D01*
Y064355D01*
D02*
G37*
G36*
X052959Y064515D02*
X052535D01*
Y064091D01*
X052835Y064215D01*
X052959Y064515D01*
D02*
G37*
G36*
X087768Y064355D02*
X087534D01*
Y064121D01*
X087700Y064189D01*
X087768Y064355D01*
D02*
G37*
G36*
X093164Y064705D02*
X092924D01*
Y064465D01*
X093164D01*
Y064705D01*
D02*
G37*
G36*
X079849Y065621D02*
X079375Y065425D01*
X079178Y064950D01*
X079375Y064475D01*
X079849Y064279D01*
X080324Y064475D01*
X080520Y064950D01*
X080324Y065425D01*
X079849Y065621D01*
D02*
G37*
G36*
X039025Y061225D02*
X038710D01*
X038802Y061002D01*
X039025Y060910D01*
Y061225D01*
D02*
G37*
G36*
X052360Y061361D02*
X051885Y061165D01*
X051710Y060741D01*
X051535Y061165D01*
X051060Y061361D01*
X050585Y061165D01*
X050389Y060690D01*
X050585Y060215D01*
X051009Y060040D01*
X050585Y059865D01*
X050389Y059390D01*
X050585Y058915D01*
X051060Y058719D01*
X051535Y058915D01*
X051657Y059210D01*
X051795Y058875D01*
X052270Y058679D01*
X052745Y058875D01*
X052941Y059350D01*
X052745Y059825D01*
X052270Y060021D01*
X051795Y059825D01*
X051673Y059530D01*
X051535Y059865D01*
X051111Y060040D01*
X051535Y060215D01*
X051710Y060639D01*
X051885Y060215D01*
X052360Y060019D01*
X052835Y060215D01*
X053031Y060690D01*
X052835Y061165D01*
X052360Y061361D01*
D02*
G37*
G36*
X039690Y061225D02*
X039375D01*
Y060910D01*
X039598Y061002D01*
X039690Y061225D01*
D02*
G37*
G36*
X037035Y061715D02*
X036611D01*
X036735Y061415D01*
X037035Y061291D01*
Y061715D01*
D02*
G37*
G36*
X043055Y062045D02*
X042225D01*
Y061215D01*
X043055D01*
Y062045D01*
D02*
G37*
G36*
X087574Y060480D02*
X087351Y060388D01*
X087259Y060165D01*
X087574D01*
Y060480D01*
D02*
G37*
G36*
X049070Y061243D02*
X048672Y061078D01*
X048507Y060680D01*
X048672Y060282D01*
X049070Y060117D01*
X049468Y060282D01*
X049633Y060680D01*
X049468Y061078D01*
X049070Y061243D01*
D02*
G37*
G36*
X087924Y060480D02*
Y060165D01*
X088240D01*
X088147Y060388D01*
X087924Y060480D01*
D02*
G37*
G36*
X045640Y061079D02*
X045322Y060948D01*
X045191Y060630D01*
X045322Y060312D01*
X045640Y060181D01*
X045958Y060312D01*
X046089Y060630D01*
X045958Y060948D01*
X045640Y061079D01*
D02*
G37*
G36*
X042640D02*
X042322Y060948D01*
X042191Y060630D01*
X042322Y060312D01*
X042640Y060181D01*
X042958Y060312D01*
X043089Y060630D01*
X042958Y060948D01*
X042640Y061079D01*
D02*
G37*
G36*
X037809Y061715D02*
X037385D01*
Y061291D01*
X037685Y061415D01*
X037809Y061715D01*
D02*
G37*
G36*
X037385Y062489D02*
Y062065D01*
X037809D01*
X037685Y062365D01*
X037385Y062489D01*
D02*
G37*
G36*
X037035D02*
X036735Y062365D01*
X036611Y062065D01*
X037035D01*
Y062489D01*
D02*
G37*
G36*
X041210Y065201D02*
X040735Y065005D01*
X040539Y064530D01*
X040735Y064055D01*
X041159Y063880D01*
X040735Y063705D01*
X040539Y063230D01*
X040735Y062755D01*
X041210Y062559D01*
X041685Y062755D01*
X041881Y063230D01*
X041685Y063705D01*
X041261Y063880D01*
X041685Y064055D01*
X041881Y064530D01*
X041685Y065005D01*
X041210Y065201D01*
D02*
G37*
G36*
X037809Y063055D02*
X037385D01*
Y062631D01*
X037685Y062755D01*
X037809Y063055D01*
D02*
G37*
G36*
X037035D02*
X036611D01*
X036735Y062755D01*
X037035Y062631D01*
Y063055D01*
D02*
G37*
G36*
X039025Y061890D02*
X038802Y061798D01*
X038710Y061575D01*
X039025D01*
Y061890D01*
D02*
G37*
G36*
X087259Y062861D02*
X086785Y062665D01*
X086588Y062190D01*
X086785Y061715D01*
X087259Y061519D01*
X087734Y061715D01*
X087930Y062190D01*
X087734Y062665D01*
X087259Y062861D01*
D02*
G37*
G36*
X039375Y061890D02*
Y061575D01*
X039690D01*
X039598Y061798D01*
X039375Y061890D01*
D02*
G37*
G36*
X035910Y062561D02*
X035435Y062365D01*
X035239Y061890D01*
X035435Y061415D01*
X035910Y061219D01*
X036385Y061415D01*
X036560Y061839D01*
X036560Y061839D01*
X036581Y061890D01*
X036560Y061941D01*
X036560Y061941D01*
X036385Y062365D01*
X035910Y062561D01*
D02*
G37*
G36*
X046620Y062301D02*
X046145Y062105D01*
X046019Y061800D01*
X045958Y061948D01*
X045640Y062079D01*
X045322Y061948D01*
X045191Y061630D01*
X045322Y061312D01*
X045640Y061181D01*
X045958Y061312D01*
X046019Y061460D01*
X046145Y061155D01*
X046620Y060959D01*
X047095Y061155D01*
X047291Y061630D01*
X047095Y062105D01*
X046620Y062301D01*
D02*
G37*
G36*
X085644Y050285D02*
X085329D01*
X085421Y050062D01*
X085644Y049970D01*
Y050285D01*
D02*
G37*
G36*
X073500Y050855D02*
X073179Y050721D01*
X073045Y050400D01*
X073179Y050079D01*
X073500Y049945D01*
X073821Y050079D01*
X073955Y050400D01*
X073821Y050721D01*
X073500Y050855D01*
D02*
G37*
G36*
X086310Y050285D02*
X085994D01*
Y049970D01*
X086217Y050062D01*
X086310Y050285D01*
D02*
G37*
G36*
X052909Y050855D02*
X052485D01*
Y050431D01*
X052785Y050555D01*
X052909Y050855D01*
D02*
G37*
G36*
X052135D02*
X051711D01*
X051835Y050555D01*
X052135Y050431D01*
Y050855D01*
D02*
G37*
G36*
X046828Y050329D02*
X046529Y050205D01*
X046405Y049905D01*
X046828D01*
Y050329D01*
D02*
G37*
G36*
X089319Y051023D02*
X088921Y050858D01*
X088756Y050460D01*
X088921Y050062D01*
X089319Y049897D01*
X089717Y050062D01*
X089882Y050460D01*
X089717Y050858D01*
X089319Y051023D01*
D02*
G37*
G36*
X047178Y050329D02*
Y049905D01*
X047602D01*
X047478Y050205D01*
X047178Y050329D01*
D02*
G37*
G36*
X091900Y050255D02*
X091584D01*
Y049940D01*
X091807Y050032D01*
X091900Y050255D01*
D02*
G37*
G36*
X091234D02*
X090919D01*
X091011Y050032D01*
X091234Y049940D01*
Y050255D01*
D02*
G37*
G36*
X054500Y051455D02*
X054179Y051321D01*
X054045Y051000D01*
X054179Y050679D01*
X054500Y050545D01*
X054821Y050679D01*
X054955Y051000D01*
X054821Y051321D01*
X054500Y051455D01*
D02*
G37*
G36*
X052135Y051629D02*
X051835Y051505D01*
X051711Y051205D01*
X052135D01*
Y051629D01*
D02*
G37*
G36*
X073500Y051855D02*
X073179Y051721D01*
X073045Y051400D01*
X073179Y051079D01*
X073500Y050945D01*
X073821Y051079D01*
X073955Y051400D01*
X073821Y051721D01*
X073500Y051855D01*
D02*
G37*
G36*
X052485Y051629D02*
Y051205D01*
X052909D01*
X052785Y051505D01*
X052485Y051629D01*
D02*
G37*
G36*
X089319Y053071D02*
X088845Y052875D01*
X088648Y052400D01*
X088845Y051925D01*
X089319Y051729D01*
X089794Y051925D01*
X089990Y052400D01*
X089794Y052875D01*
X089319Y053071D01*
D02*
G37*
G36*
X054500Y052455D02*
X054179Y052321D01*
X054045Y052000D01*
X054179Y051679D01*
X054500Y051545D01*
X054821Y051679D01*
X054955Y052000D01*
X054821Y052321D01*
X054500Y052455D01*
D02*
G37*
G36*
X091234Y050920D02*
X091011Y050828D01*
X090919Y050605D01*
X091234D01*
Y050920D01*
D02*
G37*
G36*
X079899Y051921D02*
X079425Y051725D01*
X079228Y051250D01*
X079425Y050775D01*
X079899Y050579D01*
X080374Y050775D01*
X080570Y051250D01*
X080374Y051725D01*
X079899Y051921D01*
D02*
G37*
G36*
X091584Y050920D02*
Y050605D01*
X091900D01*
X091807Y050828D01*
X091584Y050920D01*
D02*
G37*
G36*
X085994Y050950D02*
Y050635D01*
X086310D01*
X086217Y050858D01*
X085994Y050950D01*
D02*
G37*
G36*
X085644D02*
X085421Y050858D01*
X085329Y050635D01*
X085644D01*
Y050950D01*
D02*
G37*
G36*
X046482Y048270D02*
X046259Y048178D01*
X046166Y047955D01*
X046482D01*
Y048270D01*
D02*
G37*
G36*
X093833Y049464D02*
X092806D01*
Y048673D01*
X092886D01*
X092773Y048399D01*
X092898Y048097D01*
X092975Y048065D01*
X092898Y048033D01*
X092845Y047905D01*
X093793D01*
X093740Y048033D01*
X093663Y048065D01*
X093740Y048097D01*
X093866Y048399D01*
X093752Y048673D01*
X093833D01*
Y049464D01*
D02*
G37*
G36*
X046832Y048270D02*
Y047955D01*
X047147D01*
X047055Y048178D01*
X046832Y048270D01*
D02*
G37*
G36*
X073882Y048225D02*
X073675D01*
Y048018D01*
X073821Y048079D01*
X073882Y048225D01*
D02*
G37*
G36*
X073325D02*
X073118D01*
X073179Y048079D01*
X073325Y048018D01*
Y048225D01*
D02*
G37*
G36*
X048320Y048343D02*
X047922Y048178D01*
X047757Y047780D01*
X047922Y047382D01*
X048320Y047217D01*
X048718Y047382D01*
X048883Y047780D01*
X048718Y048178D01*
X048320Y048343D01*
D02*
G37*
G36*
X043157D02*
X042759Y048178D01*
X042594Y047780D01*
X042759Y047382D01*
X043157Y047217D01*
X043555Y047382D01*
X043720Y047780D01*
X043555Y048178D01*
X043157Y048343D01*
D02*
G37*
G36*
X046482Y047605D02*
X046166D01*
X046259Y047382D01*
X046482Y047290D01*
Y047605D01*
D02*
G37*
G36*
X091409Y048993D02*
X091011Y048828D01*
X090846Y048430D01*
X091011Y048032D01*
X091409Y047867D01*
X091807Y048032D01*
X091972Y048430D01*
X091807Y048828D01*
X091409Y048993D01*
D02*
G37*
G36*
X047147Y047605D02*
X046832D01*
Y047290D01*
X047055Y047382D01*
X047147Y047605D01*
D02*
G37*
G36*
X073325Y048782D02*
X073179Y048721D01*
X073118Y048575D01*
X073325D01*
Y048782D01*
D02*
G37*
G36*
X054500Y050455D02*
X054179Y050321D01*
X054045Y050000D01*
X054179Y049679D01*
X054500Y049545D01*
X054821Y049679D01*
X054955Y050000D01*
X054821Y050321D01*
X054500Y050455D01*
D02*
G37*
G36*
X047602Y049555D02*
X047178D01*
Y049131D01*
X047478Y049255D01*
X047602Y049555D01*
D02*
G37*
G36*
X073325Y049782D02*
X073179Y049721D01*
X073118Y049575D01*
X073325D01*
Y049782D01*
D02*
G37*
G36*
X055200Y065919D02*
X038280D01*
X038054Y065826D01*
X037365Y065137D01*
X037210Y065201D01*
X036735Y065005D01*
X036539Y064530D01*
X036735Y064055D01*
X037159Y063880D01*
X037159Y063880D01*
X037210Y063859D01*
X037261Y063880D01*
X037261Y063880D01*
X037685Y064055D01*
X037881Y064530D01*
X037817Y064685D01*
X038412Y065281D01*
X050866D01*
X050585Y065165D01*
X050389Y064690D01*
X050585Y064215D01*
X051060Y064019D01*
X051535Y064215D01*
X051710Y064639D01*
X051710Y064639D01*
X051731Y064690D01*
X051710Y064741D01*
X051710Y064741D01*
X051535Y065165D01*
X051254Y065281D01*
X052166D01*
X051885Y065165D01*
X051761Y064865D01*
X052959D01*
X052835Y065165D01*
X052554Y065281D01*
X055068D01*
X067881Y052468D01*
Y050939D01*
X067725Y050875D01*
X067529Y050400D01*
X067725Y049925D01*
X068200Y049729D01*
X068675Y049925D01*
X068871Y050400D01*
X068675Y050875D01*
X068519Y050939D01*
Y052600D01*
X068453Y052760D01*
X068426Y052826D01*
X055426Y065826D01*
X055200Y065919D01*
D02*
G37*
G36*
X073675Y049782D02*
Y049575D01*
X073882D01*
X073821Y049721D01*
X073675Y049782D01*
D02*
G37*
G36*
X059600Y060519D02*
X055000D01*
X054840Y060453D01*
X054774Y060426D01*
X052268Y057919D01*
X048800D01*
X048574Y057826D01*
X043828Y053079D01*
X043569D01*
X043505Y053235D01*
X043030Y053431D01*
X042555Y053235D01*
X042359Y052760D01*
X042555Y052285D01*
X042896Y052144D01*
X041825D01*
X041665Y052078D01*
X041599Y052051D01*
X033474Y043926D01*
X033381Y043700D01*
Y041450D01*
X033278Y041698D01*
X032880Y041863D01*
X032482Y041698D01*
X032317Y041300D01*
X032482Y040902D01*
X032880Y040737D01*
X033278Y040902D01*
X033381Y041150D01*
Y040792D01*
X032545Y039957D01*
X032390Y040021D01*
X031915Y039825D01*
X031719Y039350D01*
X031915Y038875D01*
X032339Y038700D01*
X032339Y038700D01*
X032390Y038679D01*
X032441Y038700D01*
X032441Y038700D01*
X032865Y038875D01*
X033061Y039350D01*
X032997Y039505D01*
X033926Y040434D01*
X034019Y040660D01*
Y043568D01*
X034112Y043660D01*
X034045Y043500D01*
Y037988D01*
X032520Y036463D01*
X032500Y036471D01*
X032025Y036275D01*
X031829Y035800D01*
X032025Y035325D01*
X032500Y035129D01*
X032520Y035137D01*
X038689Y028969D01*
X039010Y028835D01*
X083490D01*
X083811Y028969D01*
X085308Y030465D01*
X089138D01*
X089399Y030357D01*
X089413Y030363D01*
X091226Y028550D01*
X091218Y028530D01*
X091415Y028055D01*
X091435Y028047D01*
Y027603D01*
X091415Y027595D01*
X091218Y027120D01*
X091415Y026645D01*
X091889Y026449D01*
X092364Y026645D01*
X092434Y026815D01*
X092488D01*
X092512Y026825D01*
X092538D01*
X092556Y026843D01*
X092580Y026853D01*
X092590Y026877D01*
X092608Y026895D01*
X092680Y027070D01*
Y027170D01*
X092672Y027189D01*
X093233Y027750D01*
X093260Y027739D01*
X093359D01*
X093534Y027811D01*
X093552Y027830D01*
X093576Y027840D01*
X093586Y027863D01*
X093604Y027882D01*
Y027908D01*
X093614Y027931D01*
Y027985D01*
X093784Y028055D01*
X093980Y028530D01*
X093784Y029005D01*
X093309Y029201D01*
X092835Y029005D01*
X092764Y028835D01*
X092711D01*
X092687Y028825D01*
X092661D01*
X092643Y028807D01*
X092619Y028797D01*
X092609Y028773D01*
X092599Y028763D01*
X092590Y028773D01*
X092580Y028797D01*
X092556Y028807D01*
X092538Y028825D01*
X092512D01*
X092488Y028835D01*
X092434D01*
X092364Y029005D01*
X091889Y029201D01*
X091869Y029193D01*
X089835Y031227D01*
X089797Y031318D01*
X089399Y031483D01*
X089138Y031375D01*
X085120D01*
X084799Y031241D01*
X083302Y029745D01*
X039198D01*
X034930Y034013D01*
Y037740D01*
X034955Y037800D01*
Y043312D01*
X039388Y047745D01*
X040617D01*
X040625Y047725D01*
X041100Y047529D01*
X041575Y047725D01*
X041771Y048200D01*
X041575Y048675D01*
X041100Y048871D01*
X040625Y048675D01*
X040617Y048655D01*
X039200D01*
X039040Y048588D01*
X041957Y051506D01*
X042532D01*
X042529Y051505D01*
X042332Y051030D01*
X042529Y050555D01*
X042952Y050380D01*
X042529Y050205D01*
X042332Y049730D01*
X042529Y049255D01*
X043003Y049059D01*
X043478Y049255D01*
X043674Y049730D01*
X043478Y050205D01*
X043054Y050380D01*
X043478Y050555D01*
X043674Y051030D01*
X043478Y051505D01*
X043475Y051506D01*
X046532D01*
X046529Y051505D01*
X046521Y051485D01*
X046160D01*
X045839Y051351D01*
X044949Y050461D01*
X044815Y050140D01*
Y047530D01*
X044949Y047209D01*
X049515Y042642D01*
Y037710D01*
X049649Y037389D01*
X051959Y035079D01*
X052053Y035040D01*
X052280Y034945D01*
X061217D01*
X061225Y034925D01*
X061700Y034729D01*
X062175Y034925D01*
X062371Y035400D01*
X062175Y035875D01*
X061700Y036071D01*
X061225Y035875D01*
X061217Y035855D01*
X052468D01*
X050425Y037898D01*
Y042830D01*
X050291Y043151D01*
X045725Y047718D01*
Y049952D01*
X046348Y050575D01*
X046521D01*
X046529Y050555D01*
X046952Y050380D01*
X046952Y050380D01*
X047003Y050359D01*
X047054Y050380D01*
X047054Y050380D01*
X047478Y050555D01*
X047657Y050987D01*
X047835Y050555D01*
X048259Y050380D01*
X047835Y050205D01*
X047657Y049773D01*
X047657Y049773D01*
X047639Y049730D01*
X047657Y049687D01*
X047657Y049687D01*
X047835Y049255D01*
X048310Y049059D01*
X048785Y049255D01*
X048981Y049730D01*
X048785Y050205D01*
X048361Y050380D01*
X048785Y050555D01*
X048981Y051030D01*
X048785Y051505D01*
X048782Y051506D01*
X048843D01*
X052137Y048212D01*
X051820Y048343D01*
X051422Y048178D01*
X051257Y047780D01*
X051422Y047382D01*
X051820Y047217D01*
X052218Y047382D01*
X052383Y047780D01*
X052252Y048097D01*
X052881Y047468D01*
Y039800D01*
X052974Y039574D01*
X053574Y038974D01*
X053640Y038947D01*
X053800Y038881D01*
X056200D01*
X056426Y038974D01*
X059532Y042081D01*
X069861D01*
X069925Y041925D01*
X070400Y041729D01*
X070875Y041925D01*
X071071Y042400D01*
X070875Y042875D01*
X070400Y043071D01*
X069925Y042875D01*
X069861Y042719D01*
X059400D01*
X059240Y042653D01*
X059174Y042626D01*
X056068Y039519D01*
X053932D01*
X053519Y039932D01*
Y047600D01*
X053453Y047760D01*
X053426Y047826D01*
X052110Y049142D01*
X052310Y049059D01*
X052465Y049123D01*
X053414Y048174D01*
X053640Y048081D01*
X065661D01*
X065725Y047925D01*
X066200Y047729D01*
X066675Y047925D01*
X066871Y048400D01*
X066675Y048875D01*
X066200Y049071D01*
X065725Y048875D01*
X065661Y048719D01*
X054920D01*
Y049420D01*
X054080D01*
Y048719D01*
X053772D01*
X052917Y049575D01*
X052981Y049730D01*
X052785Y050205D01*
X052361Y050380D01*
X052361Y050380D01*
X052310Y050401D01*
X052259Y050380D01*
X052259Y050380D01*
X051835Y050205D01*
X051639Y049730D01*
X051722Y049530D01*
X049201Y052051D01*
X048975Y052144D01*
X047164D01*
X047505Y052285D01*
X047701Y052760D01*
X047505Y053235D01*
X047108Y053399D01*
X047535Y053575D01*
X047731Y054050D01*
X047535Y054525D01*
X047060Y054721D01*
X046585Y054525D01*
X046389Y054050D01*
X046585Y053575D01*
X046982Y053411D01*
X046555Y053235D01*
X046359Y052760D01*
X046555Y052285D01*
X046896Y052144D01*
X043164D01*
X043505Y052285D01*
X043569Y052441D01*
X043960D01*
X044186Y052534D01*
X048932Y057281D01*
X052400D01*
X052626Y057374D01*
X055132Y059881D01*
X055931D01*
X055795Y059825D01*
X055599Y059350D01*
X055795Y058875D01*
X056270Y058679D01*
X056745Y058875D01*
X056941Y059350D01*
X056745Y059825D01*
X056609Y059881D01*
X059468D01*
X066881Y052468D01*
Y049939D01*
X066725Y049875D01*
X066529Y049400D01*
X066725Y048925D01*
X067200Y048729D01*
X067675Y048925D01*
X067871Y049400D01*
X067675Y049875D01*
X067519Y049939D01*
Y052600D01*
X067426Y052826D01*
X059826Y060426D01*
X059600Y060519D01*
D02*
G37*
G36*
X073675Y048782D02*
Y048575D01*
X073882D01*
X073821Y048721D01*
X073675Y048782D01*
D02*
G37*
G36*
X073325Y049225D02*
X073118D01*
X073179Y049079D01*
X073325Y049018D01*
Y049225D01*
D02*
G37*
G36*
X046828Y049555D02*
X046405D01*
X046529Y049255D01*
X046828Y049131D01*
Y049555D01*
D02*
G37*
G36*
X073882Y049225D02*
X073675D01*
Y049018D01*
X073821Y049079D01*
X073882Y049225D01*
D02*
G37*
G36*
X093319Y053071D02*
X092845Y052875D01*
X092648Y052400D01*
X092845Y051925D01*
X093319Y051729D01*
X093794Y051925D01*
X093990Y052400D01*
X093794Y052875D01*
X093319Y053071D01*
D02*
G37*
G36*
X054500Y055455D02*
X054179Y055321D01*
X054045Y055000D01*
X054179Y054679D01*
X054500Y054545D01*
X054821Y054679D01*
X054955Y055000D01*
X054821Y055321D01*
X054500Y055455D01*
D02*
G37*
G36*
X093268Y054765D02*
X093034D01*
Y054531D01*
X093200Y054599D01*
X093268Y054765D01*
D02*
G37*
G36*
X089749Y055753D02*
X089351Y055588D01*
X089186Y055190D01*
X089351Y054792D01*
X089749Y054627D01*
X090147Y054792D01*
X090312Y055190D01*
X090147Y055588D01*
X089749Y055753D01*
D02*
G37*
G36*
X088240Y055015D02*
X087924D01*
Y054700D01*
X088147Y054792D01*
X088240Y055015D01*
D02*
G37*
G36*
X087574D02*
X087259D01*
X087351Y054792D01*
X087574Y054700D01*
Y055015D01*
D02*
G37*
G36*
X092684Y054765D02*
X092450D01*
X092519Y054599D01*
X092684Y054531D01*
Y054765D01*
D02*
G37*
G36*
X073500Y054855D02*
X073179Y054721D01*
X073045Y054400D01*
X073179Y054079D01*
X073500Y053945D01*
X073821Y054079D01*
X073955Y054400D01*
X073821Y054721D01*
X073500Y054855D01*
D02*
G37*
G36*
X062220Y054795D02*
X061899Y054661D01*
X061765Y054340D01*
X061899Y054019D01*
X062220Y053885D01*
X062541Y054019D01*
X062675Y054340D01*
X062541Y054661D01*
X062220Y054795D01*
D02*
G37*
G36*
X050885Y054649D02*
X050585Y054525D01*
X050461Y054225D01*
X050885D01*
Y054649D01*
D02*
G37*
G36*
X041420Y055861D02*
X040945Y055665D01*
X040749Y055190D01*
X040945Y054715D01*
X041420Y054519D01*
X041895Y054715D01*
X042091Y055190D01*
X041895Y055665D01*
X041420Y055861D01*
D02*
G37*
G36*
X051235Y054649D02*
Y054225D01*
X051659D01*
X051535Y054525D01*
X051235Y054649D01*
D02*
G37*
G36*
X050885Y055215D02*
X050461D01*
X050585Y054915D01*
X050885Y054791D01*
Y055215D01*
D02*
G37*
G36*
X087574Y055680D02*
X087351Y055588D01*
X087259Y055365D01*
X087574D01*
Y055680D01*
D02*
G37*
G36*
X045640Y056079D02*
X045322Y055948D01*
X045191Y055630D01*
X045322Y055312D01*
X045640Y055181D01*
X045958Y055312D01*
X046089Y055630D01*
X045958Y055948D01*
X045640Y056079D01*
D02*
G37*
G36*
X087924Y055680D02*
Y055365D01*
X088240D01*
X088147Y055588D01*
X087924Y055680D01*
D02*
G37*
G36*
X049560Y055705D02*
X049245D01*
Y055390D01*
X049468Y055482D01*
X049560Y055705D01*
D02*
G37*
G36*
X048895D02*
X048580D01*
X048672Y055482D01*
X048895Y055390D01*
Y055705D01*
D02*
G37*
G36*
X042640Y056079D02*
X042322Y055948D01*
X042191Y055630D01*
X042322Y055312D01*
X042640Y055181D01*
X042958Y055312D01*
X043089Y055630D01*
X042958Y055948D01*
X042640Y056079D01*
D02*
G37*
G36*
X059340Y055795D02*
X059019Y055661D01*
X058885Y055340D01*
X059019Y055019D01*
X059340Y054885D01*
X059661Y055019D01*
X059795Y055340D01*
X059661Y055661D01*
X059340Y055795D01*
D02*
G37*
G36*
X051659Y055215D02*
X051235D01*
Y054791D01*
X051535Y054915D01*
X051659Y055215D01*
D02*
G37*
G36*
X062220Y055795D02*
X061899Y055661D01*
X061765Y055340D01*
X061899Y055019D01*
X062220Y054885D01*
X062541Y055019D01*
X062675Y055340D01*
X062541Y055661D01*
X062220Y055795D01*
D02*
G37*
G36*
X093034Y055349D02*
Y055115D01*
X093268D01*
X093200Y055281D01*
X093034Y055349D01*
D02*
G37*
G36*
X092684D02*
X092519Y055281D01*
X092450Y055115D01*
X092684D01*
Y055349D01*
D02*
G37*
G36*
X035735Y053189D02*
X035435Y053065D01*
X035311Y052765D01*
X035735D01*
Y053189D01*
D02*
G37*
G36*
X037210Y053261D02*
X036735Y053065D01*
X036560Y052641D01*
X036560Y052641D01*
X036539Y052590D01*
X036560Y052539D01*
X036560Y052539D01*
X036735Y052115D01*
X037210Y051919D01*
X037685Y052115D01*
X037881Y052590D01*
X037685Y053065D01*
X037210Y053261D01*
D02*
G37*
G36*
X036085Y053189D02*
Y052765D01*
X036509D01*
X036385Y053065D01*
X036085Y053189D01*
D02*
G37*
G36*
X062220Y053795D02*
X061899Y053661D01*
X061765Y053340D01*
X061899Y053019D01*
X062220Y052885D01*
X062541Y053019D01*
X062675Y053340D01*
X062541Y053661D01*
X062220Y053795D01*
D02*
G37*
G36*
X059340D02*
X059019Y053661D01*
X058885Y053340D01*
X059019Y053019D01*
X059340Y052885D01*
X059661Y053019D01*
X059795Y053340D01*
X059661Y053661D01*
X059340Y053795D01*
D02*
G37*
G36*
X054500Y053455D02*
X054179Y053321D01*
X054045Y053000D01*
X054179Y052679D01*
X054500Y052545D01*
X054821Y052679D01*
X054955Y053000D01*
X054821Y053321D01*
X054500Y053455D01*
D02*
G37*
G36*
X035735Y052415D02*
X035311D01*
X035435Y052115D01*
X035735Y051991D01*
Y052415D01*
D02*
G37*
G36*
X073500Y052855D02*
X073179Y052721D01*
X073045Y052400D01*
X073179Y052079D01*
X073500Y051945D01*
X073821Y052079D01*
X073955Y052400D01*
X073821Y052721D01*
X073500Y052855D01*
D02*
G37*
G36*
X036509Y052415D02*
X036085D01*
Y051991D01*
X036385Y052115D01*
X036509Y052415D01*
D02*
G37*
G36*
X039200Y053663D02*
X038802Y053498D01*
X038637Y053100D01*
X038802Y052702D01*
X039200Y052537D01*
X039598Y052702D01*
X039763Y053100D01*
X039598Y053498D01*
X039200Y053663D01*
D02*
G37*
G36*
X079849Y053771D02*
X079375Y053575D01*
X079178Y053100D01*
X079375Y052625D01*
X079849Y052429D01*
X080324Y052625D01*
X080520Y053100D01*
X080324Y053575D01*
X079849Y053771D01*
D02*
G37*
G36*
X050885Y053875D02*
X050461D01*
X050585Y053575D01*
X050885Y053451D01*
Y053875D01*
D02*
G37*
G36*
X054500Y054455D02*
X054179Y054321D01*
X054045Y054000D01*
X054179Y053679D01*
X054500Y053545D01*
X054821Y053679D01*
X054955Y054000D01*
X054821Y054321D01*
X054500Y054455D01*
D02*
G37*
G36*
X051659Y053875D02*
X051235D01*
Y053451D01*
X051535Y053575D01*
X051659Y053875D01*
D02*
G37*
G36*
X092859Y054422D02*
X092519Y054281D01*
X092378Y053940D01*
X092519Y053599D01*
X092859Y053458D01*
X093200Y053599D01*
X093341Y053940D01*
X093200Y054281D01*
X092859Y054422D01*
D02*
G37*
G36*
X059340Y054795D02*
X059019Y054661D01*
X058885Y054340D01*
X059019Y054019D01*
X059340Y053885D01*
X059661Y054019D01*
X059795Y054340D01*
X059661Y054661D01*
X059340Y054795D01*
D02*
G37*
G36*
X091399Y054611D02*
X090925Y054415D01*
X090728Y053940D01*
X090925Y053465D01*
X091399Y053269D01*
X091874Y053465D01*
X092070Y053940D01*
X091874Y054415D01*
X091399Y054611D01*
D02*
G37*
G36*
X073500Y053855D02*
X073179Y053721D01*
X073045Y053400D01*
X073179Y053079D01*
X073500Y052945D01*
X073821Y053079D01*
X073955Y053400D01*
X073821Y053721D01*
X073500Y053855D01*
D02*
G37*
%LPD*%
G36*
X093309Y028530D02*
X093484D01*
Y027931D01*
X093309Y027859D01*
X093203Y027903D01*
X092519Y027219D01*
X092560Y027120D01*
X092488Y026945D01*
X091889D01*
Y027120D01*
X091714D01*
Y027719D01*
X091889Y027791D01*
X091893Y027789D01*
X091893Y027860D01*
X091889Y027859D01*
X091714Y027931D01*
Y028530D01*
X091889D01*
Y028705D01*
X092488D01*
X092560Y028530D01*
X092548Y028500D01*
X092651D01*
X092638Y028530D01*
X092711Y028705D01*
X093309D01*
Y028530D01*
D02*
G37*
G36*
X034800Y033500D02*
X032975Y035325D01*
X033099Y035625D01*
X032500D01*
Y035975D01*
X033099D01*
X032975Y036275D01*
X034800Y038100D01*
Y033500D01*
D02*
G37*
%LPC*%
G36*
X093134Y028355D02*
X092711D01*
X092835Y028055D01*
X093134Y027931D01*
Y028355D01*
D02*
G37*
G36*
X092488D02*
X092064D01*
Y027931D01*
X092364Y028055D01*
X092488Y028355D01*
D02*
G37*
G36*
X092064Y027719D02*
Y027295D01*
X092488D01*
X092364Y027595D01*
X092064Y027719D01*
D02*
G37*
%LPD*%
D10*
X041825Y051825D02*
X048975D01*
X033700Y043700D02*
X041825Y051825D01*
X033700Y040660D02*
Y043700D01*
X032390Y039350D02*
X033700Y040660D01*
X068200Y050400D02*
Y052600D01*
X055200Y065600D02*
X068200Y052600D01*
X038280Y065600D02*
X055200D01*
X067200Y049400D02*
Y052600D01*
X059600Y060200D02*
X067200Y052600D01*
X055000Y060200D02*
X059600D01*
X052400Y057600D02*
X055000Y060200D01*
X053640Y048400D02*
X066200D01*
X053200Y039800D02*
Y047600D01*
X048975Y051825D02*
X053200Y047600D01*
Y039800D02*
X053800Y039200D01*
X059400Y042400D02*
X070400D01*
X056200Y039200D02*
X059400Y042400D01*
X053800Y039200D02*
X056200D01*
X052310Y049730D02*
X053640Y048400D01*
X052310Y049730D02*
X052470D01*
X059800Y041400D02*
X069400D01*
X056600Y038200D02*
X059800Y041400D01*
X037210Y064530D02*
X038280Y065600D01*
X053460Y038200D02*
X056600D01*
X052310Y039350D02*
X053460Y038200D01*
X048800Y057600D02*
X052400D01*
X043960Y052760D02*
X048800Y057600D01*
X043030Y052760D02*
X043960D01*
D11*
X039200Y048200D02*
X041100D01*
X034500Y043500D02*
X039200Y048200D01*
X034500Y037800D02*
Y043500D01*
X060200Y035400D02*
X061700D01*
X052280D02*
X060200D01*
X085120Y030920D02*
X089399D01*
X083490Y029290D02*
X085120Y030920D01*
X039010Y029290D02*
X083490D01*
X090200Y045500D02*
X094300D01*
X089700Y045000D02*
X090200Y045500D01*
X084000Y045000D02*
X089700D01*
X094300Y045500D02*
X095200Y046400D01*
X093010Y062190D02*
X095200Y060000D01*
Y046400D02*
Y060000D01*
X091259Y062190D02*
X093010D01*
X089399Y030920D02*
X089499D01*
X091889Y027120D02*
Y028530D01*
X089499Y030920D02*
X091889Y028530D01*
X071330Y035300D02*
Y035400D01*
X049970Y037710D02*
Y042830D01*
Y037710D02*
X052280Y035400D01*
X046160Y051030D02*
X047003D01*
X045270Y050140D02*
X046160Y051030D01*
X045270Y047530D02*
X049970Y042830D01*
X045270Y047530D02*
Y050140D01*
X091409Y046390D02*
X091411Y046391D01*
X032510Y035810D02*
X034500Y037800D01*
X032500Y035800D02*
X039010Y029290D01*
D12*
X091799Y034040D02*
X093309Y032530D01*
X086390Y037811D02*
X087889Y039310D01*
X086390Y035090D02*
Y037811D01*
X087440Y034040D02*
X091799D01*
X086390Y035090D02*
X087440Y034040D01*
D13*
X051060Y059390D02*
D03*
Y055390D02*
D03*
X047060Y054050D02*
D03*
X051060D02*
D03*
X056270Y059350D02*
D03*
X052270D02*
D03*
X046620Y057630D02*
D03*
Y061630D02*
D03*
X052360Y064690D02*
D03*
Y060690D02*
D03*
X043030Y052760D02*
D03*
X047030D02*
D03*
X051060Y060690D02*
D03*
Y064690D02*
D03*
X047003Y049730D02*
D03*
X043003D02*
D03*
Y051030D02*
D03*
X047003D02*
D03*
Y039350D02*
D03*
X043003D02*
D03*
Y038050D02*
D03*
X047003D02*
D03*
X048310Y051030D02*
D03*
X052310D02*
D03*
X048310Y038050D02*
D03*
X052310D02*
D03*
Y049730D02*
D03*
X048310D02*
D03*
X052310Y039350D02*
D03*
X048310D02*
D03*
X037697D02*
D03*
X041697D02*
D03*
Y038050D02*
D03*
X037697D02*
D03*
X036390D02*
D03*
X032390D02*
D03*
Y039350D02*
D03*
X036390D02*
D03*
X037210Y061890D02*
D03*
Y057890D02*
D03*
Y063230D02*
D03*
X041210D02*
D03*
X035910Y057890D02*
D03*
Y061890D02*
D03*
X041420Y055190D02*
D03*
Y059190D02*
D03*
X035910Y056590D02*
D03*
Y052590D02*
D03*
X041210Y064530D02*
D03*
X037210D02*
D03*
Y052590D02*
D03*
Y056590D02*
D03*
X087919Y042990D02*
D03*
X091919D02*
D03*
X087889Y028530D02*
D03*
X091889D02*
D03*
X079899Y051250D02*
D03*
Y046250D02*
D03*
X079849Y058100D02*
D03*
Y053100D02*
D03*
Y064950D02*
D03*
Y059950D02*
D03*
X079879Y030700D02*
D03*
Y025700D02*
D03*
Y037550D02*
D03*
Y032550D02*
D03*
Y044400D02*
D03*
Y039400D02*
D03*
X089319Y052400D02*
D03*
X093319D02*
D03*
X087889Y039310D02*
D03*
Y035310D02*
D03*
X093309Y032530D02*
D03*
Y028530D02*
D03*
X044450Y031300D02*
D03*
X040450D02*
D03*
X044450Y032500D02*
D03*
X040450D02*
D03*
X048900Y032470D02*
D03*
X052900D02*
D03*
X048900Y031270D02*
D03*
X052900D02*
D03*
X061700Y035400D02*
D03*
Y039400D02*
D03*
X091259Y062190D02*
D03*
X087259D02*
D03*
X087919Y041350D02*
D03*
X091919D02*
D03*
X091889Y027120D02*
D03*
X087889D02*
D03*
X091399Y057940D02*
D03*
Y053940D02*
D03*
X068200Y050400D02*
D03*
X067200Y049400D02*
D03*
X066200Y048400D02*
D03*
X070400Y042400D02*
D03*
X069400Y041400D02*
D03*
X068400Y040400D02*
D03*
X036700Y043500D02*
D03*
X095200Y046400D02*
D03*
X041100Y048200D02*
D03*
X084000Y045000D02*
D03*
X032500Y035800D02*
D03*
D14*
X049070Y059380D02*
D03*
Y055880D02*
D03*
Y060680D02*
D03*
Y064180D02*
D03*
X043157Y047780D02*
D03*
X046657D02*
D03*
X043157Y041300D02*
D03*
X046657D02*
D03*
X048320Y047780D02*
D03*
X051820D02*
D03*
X048320Y041300D02*
D03*
X051820D02*
D03*
X041543D02*
D03*
X038043D02*
D03*
X036380D02*
D03*
X032880D02*
D03*
X039200Y057900D02*
D03*
Y061400D02*
D03*
Y056600D02*
D03*
Y053100D02*
D03*
X087749Y059990D02*
D03*
X091249D02*
D03*
X089749Y057970D02*
D03*
X087749D02*
D03*
X089749Y055190D02*
D03*
X087749D02*
D03*
X091409Y046390D02*
D03*
Y044390D02*
D03*
X086829Y046320D02*
D03*
X088829D02*
D03*
X085819Y050460D02*
D03*
X089319D02*
D03*
X091409Y048430D02*
D03*
Y050430D02*
D03*
Y036720D02*
D03*
X089409D02*
D03*
X089639Y039060D02*
D03*
X091139D02*
D03*
X089399Y032920D02*
D03*
Y030920D02*
D03*
X089419Y035380D02*
D03*
X091419D02*
D03*
D15*
X093339Y064290D02*
D03*
D16*
Y063290D02*
D03*
X065600Y024150D02*
D03*
X066600D02*
D03*
X071370D02*
D03*
D17*
X093300Y059990D02*
D03*
D18*
Y058990D02*
D03*
Y057990D02*
D03*
D19*
X093319Y046391D02*
D03*
Y047061D02*
D03*
Y047730D02*
D03*
Y048399D02*
D03*
Y034041D02*
D03*
Y034711D02*
D03*
Y035380D02*
D03*
Y036049D02*
D03*
D20*
Y049069D02*
D03*
Y036719D02*
D03*
D21*
X073500Y045400D02*
D03*
X054500Y040400D02*
D03*
X073500Y047400D02*
D03*
X054500Y049000D02*
D03*
D22*
X073500Y044400D02*
D03*
Y043400D02*
D03*
Y042400D02*
D03*
Y041400D02*
D03*
Y040400D02*
D03*
X054500Y043400D02*
D03*
Y044400D02*
D03*
Y045400D02*
D03*
Y046400D02*
D03*
Y047400D02*
D03*
Y041400D02*
D03*
Y042400D02*
D03*
X073500Y050400D02*
D03*
Y051400D02*
D03*
Y052400D02*
D03*
Y053400D02*
D03*
Y054400D02*
D03*
Y048400D02*
D03*
Y049400D02*
D03*
X059340Y055340D02*
D03*
Y054340D02*
D03*
Y053340D02*
D03*
X062220D02*
D03*
Y054340D02*
D03*
Y055340D02*
D03*
Y056340D02*
D03*
X054500Y050000D02*
D03*
Y051000D02*
D03*
Y052000D02*
D03*
Y053000D02*
D03*
Y054000D02*
D03*
Y055000D02*
D03*
Y056000D02*
D03*
Y057000D02*
D03*
Y058000D02*
D03*
D23*
X059340Y056340D02*
D03*
D24*
X033436Y027720D02*
D03*
X042452D02*
D03*
X044460D02*
D03*
X059934Y026780D02*
D03*
X050918D02*
D03*
X048910D02*
D03*
X068330Y035400D02*
D03*
X065330D02*
D03*
X071330D02*
D03*
Y027400D02*
D03*
X065330D02*
D03*
D25*
X035700Y063250D02*
D03*
X035200D02*
D03*
D26*
X034700D02*
D03*
D27*
X064600Y024150D02*
D03*
X070370D02*
D03*
D28*
X087359Y063530D02*
D03*
Y064530D02*
D03*
X093409Y041360D02*
D03*
Y042360D02*
D03*
X093369Y027050D02*
D03*
Y026050D02*
D03*
X092859Y053940D02*
D03*
Y054940D02*
D03*
D29*
X045340Y046040D02*
D03*
X044340D02*
D03*
X043340D02*
D03*
X042340D02*
D03*
X041340D02*
D03*
X040340D02*
D03*
X039340D02*
D03*
X045340Y043040D02*
D03*
X044340D02*
D03*
X043340D02*
D03*
X042340D02*
D03*
X041340D02*
D03*
X040340D02*
D03*
X045640Y055630D02*
D03*
Y056630D02*
D03*
Y057630D02*
D03*
Y058630D02*
D03*
Y059630D02*
D03*
Y060630D02*
D03*
Y061630D02*
D03*
X042640Y055630D02*
D03*
Y056630D02*
D03*
Y057630D02*
D03*
Y058630D02*
D03*
Y059630D02*
D03*
Y060630D02*
D03*
D30*
X039340Y043040D02*
D03*
D31*
X042640Y061630D02*
D03*
D32*
X032000Y067000D02*
D03*
Y022000D02*
D03*
X097000Y067000D02*
D03*
Y022000D02*
D03*
X057000D02*
D03*
M02*
